M48
;DRILL file {KiCad 5.0.0-rc2-be01b52~65~ubuntu18.04.1} date Fri May 25 18:16:23 2018
;FORMAT={-:-/ absolute / metric / decimal}
FMAT,2
METRIC,TZ
T1C0.400
T2C0.700
T3C0.800
T4C1.000
T5C1.100
T6C1.520
%
G90
G05
M71
T1
X162.56Y-121.92
X172.72Y-121.92
T2
X177.83Y-122.09
X177.83Y-127.17
X161.63Y-123.74
X161.63Y-128.82
X175.23Y-122.09
X175.23Y-127.17
T3
X137.08Y-106.07
X139.58Y-106.07
X132.08Y-90.805
X132.08Y-93.345
X132.08Y-95.885
X132.08Y-98.425
X132.08Y-100.965
X132.08Y-103.505
X132.08Y-106.045
X132.08Y-108.585
X144.78Y-90.805
X144.78Y-93.345
X144.78Y-95.885
X144.78Y-98.425
X144.78Y-100.965
X144.78Y-103.505
X144.78Y-106.045
X144.78Y-108.585
X137.2Y-130.81
X139.7Y-130.81
X167.03Y-131.17
X169.53Y-131.17
X163.83Y-74.93
X163.83Y-77.47
X163.83Y-80.01
X163.83Y-82.55
X163.83Y-85.09
X163.83Y-87.63
X163.83Y-90.17
X163.83Y-92.71
X163.83Y-95.25
X163.83Y-97.79
X163.83Y-100.33
X163.83Y-102.87
X163.83Y-105.41
X163.83Y-107.95
X163.83Y-110.49
X179.07Y-74.93
X179.07Y-77.47
X179.07Y-80.01
X179.07Y-82.55
X179.07Y-85.09
X179.07Y-87.63
X179.07Y-90.17
X179.07Y-92.71
X179.07Y-95.25
X179.07Y-97.79
X179.07Y-100.33
X179.07Y-102.87
X179.07Y-105.41
X179.07Y-107.95
X179.07Y-110.49
X174.63Y-131.27
X177.13Y-131.27
X160.18Y-131.17
X162.68Y-131.17
X132.08Y-66.04
X132.08Y-68.58
X132.08Y-71.12
X132.08Y-73.66
X132.08Y-76.2
X132.08Y-78.74
X132.08Y-81.28
X132.08Y-83.82
X144.78Y-66.04
X144.78Y-68.58
X144.78Y-71.12
X144.78Y-73.66
X144.78Y-76.2
X144.78Y-78.74
X144.78Y-81.28
X144.78Y-83.82
X148.59Y-125.73
X148.59Y-128.27
X148.59Y-130.81
X156.21Y-125.73
X156.21Y-128.27
X156.21Y-130.81
X148.58Y-100.97
X148.58Y-103.51
X148.58Y-106.05
X156.2Y-100.97
X156.2Y-103.51
X156.2Y-106.05
X137.2Y-81.28
X139.7Y-81.28
X132.08Y-115.57
X132.08Y-118.11
X132.08Y-120.65
X132.08Y-123.19
X132.08Y-125.73
X132.08Y-128.27
X132.08Y-130.81
X132.08Y-133.35
X144.78Y-115.57
X144.78Y-118.11
X144.78Y-120.65
X144.78Y-123.19
X144.78Y-125.73
X144.78Y-128.27
X144.78Y-130.81
X144.78Y-133.35
X148.59Y-76.2
X148.59Y-78.74
X148.59Y-81.28
X156.21Y-76.2
X156.21Y-78.74
X156.21Y-81.28
T4
X162.33Y-134.32
X164.87Y-134.32
X177.68Y-134.32
X180.22Y-134.32
X170.005Y-134.32
X172.545Y-134.32
X171.93Y-65.12
X174.47Y-65.12
T5
X122.53Y-120.65
X122.53Y-123.19
X122.53Y-125.73
X122.53Y-128.27
X122.88Y-71.15
X122.88Y-73.69
X122.88Y-76.23
X122.88Y-78.77
X122.13Y-95.9
X122.13Y-98.44
X122.13Y-100.98
X122.13Y-103.52
T6
X120.9Y-62.42
X125.98Y-62.42
T0
M30
