M48
;DRILL file {KiCad 5.0.0-fee4fd1~66~ubuntu18.04.1} date Thu Oct  4 01:04:18 2018
;FORMAT={-:-/ absolute / metric / decimal}
FMAT,2
METRIC,TZ
T1C0.400
T2C0.700
T3C0.800
T4C1.000
T5C1.100
T6C1.520
%
G90
G05
M71
T1
X167.64Y-88.646
X180.086Y-88.646
T2
X168.148Y-73.406
X173.228Y-73.406
X168.148Y-77.216
X173.228Y-77.216
X168.148Y-69.85
X173.228Y-69.85
T3
X177.205Y-66.04
X179.705Y-66.04
X137.08Y-106.07
X139.58Y-106.07
X148.59Y-125.73
X148.59Y-128.27
X148.59Y-130.81
X156.21Y-125.73
X156.21Y-128.27
X156.21Y-130.81
X165.1Y-95.25
X165.1Y-97.79
X165.1Y-100.33
X165.1Y-102.87
X165.1Y-105.41
X165.1Y-107.95
X165.1Y-110.49
X165.1Y-113.03
X165.1Y-115.57
X165.1Y-118.11
X165.1Y-120.65
X165.1Y-123.19
X165.1Y-125.73
X165.1Y-128.27
X165.1Y-130.81
X180.34Y-95.25
X180.34Y-97.79
X180.34Y-100.33
X180.34Y-102.87
X180.34Y-105.41
X180.34Y-107.95
X180.34Y-110.49
X180.34Y-113.03
X180.34Y-115.57
X180.34Y-118.11
X180.34Y-120.65
X180.34Y-123.19
X180.34Y-125.73
X180.34Y-128.27
X180.34Y-130.81
X159.425Y-66.04
X161.925Y-66.04
X132.08Y-66.04
X132.08Y-68.58
X132.08Y-71.12
X132.08Y-73.66
X132.08Y-76.2
X132.08Y-78.74
X132.08Y-81.28
X132.08Y-83.82
X144.78Y-66.04
X144.78Y-68.58
X144.78Y-71.12
X144.78Y-73.66
X144.78Y-76.2
X144.78Y-78.74
X144.78Y-81.28
X144.78Y-83.82
X132.08Y-90.805
X132.08Y-93.345
X132.08Y-95.885
X132.08Y-98.425
X132.08Y-100.965
X132.08Y-103.505
X132.08Y-106.045
X132.08Y-108.585
X144.78Y-90.805
X144.78Y-93.345
X144.78Y-95.885
X144.78Y-98.425
X144.78Y-100.965
X144.78Y-103.505
X144.78Y-106.045
X144.78Y-108.585
X148.58Y-100.97
X148.58Y-103.51
X148.58Y-106.05
X156.2Y-100.97
X156.2Y-103.51
X156.2Y-106.05
X137.2Y-130.81
X139.7Y-130.81
X132.08Y-115.57
X132.08Y-118.11
X132.08Y-120.65
X132.08Y-123.19
X132.08Y-125.73
X132.08Y-128.27
X132.08Y-130.81
X132.08Y-133.35
X144.78Y-115.57
X144.78Y-118.11
X144.78Y-120.65
X144.78Y-123.19
X144.78Y-125.73
X144.78Y-128.27
X144.78Y-130.81
X144.78Y-133.35
X168.315Y-66.04
X170.815Y-66.04
X137.2Y-81.28
X139.7Y-81.28
X148.59Y-76.2
X148.59Y-78.74
X148.59Y-81.28
X156.21Y-76.2
X156.21Y-78.74
X156.21Y-81.28
T4
X168.275Y-60.96
X170.815Y-60.96
X177.165Y-60.96
X179.705Y-60.96
X179.705Y-79.375
X179.705Y-81.915
X159.385Y-60.96
X161.925Y-60.96
T5
X122.88Y-71.15
X122.88Y-73.69
X122.88Y-76.23
X122.88Y-78.77
X122.53Y-120.65
X122.53Y-123.19
X122.53Y-125.73
X122.53Y-128.27
X122.13Y-95.9
X122.13Y-98.44
X122.13Y-100.98
X122.13Y-103.52
T6
X120.9Y-62.42
X125.98Y-62.42
T0
M30
