G04 #@! TF.GenerationSoftware,KiCad,Pcbnew,5.0.0-rc2-dev-unknown-ccb668c~64~ubuntu18.04.1*
G04 #@! TF.CreationDate,2018-04-29T16:36:45+02:00*
G04 #@! TF.ProjectId,nano8825,6E616E6F383832352E6B696361645F70,rev?*
G04 #@! TF.SameCoordinates,Original*
G04 #@! TF.FileFunction,Copper,L2,Bot,Signal*
G04 #@! TF.FilePolarity,Positive*
%FSLAX46Y46*%
G04 Gerber Fmt 4.6, Leading zero omitted, Abs format (unit mm)*
G04 Created by KiCad (PCBNEW 5.0.0-rc2-dev-unknown-ccb668c~64~ubuntu18.04.1) date Sun Apr 29 16:36:45 2018*
%MOMM*%
%LPD*%
G01*
G04 APERTURE LIST*
%ADD10O,1.700000X1.700000*%
%ADD11R,1.700000X1.700000*%
%ADD12R,2.200000X2.200000*%
%ADD13C,2.200000*%
%ADD14C,1.600000*%
%ADD15C,1.400000*%
%ADD16O,1.400000X1.400000*%
%ADD17R,1.600000X1.600000*%
%ADD18O,1.600000X1.600000*%
%ADD19R,3.000000X3.000000*%
%ADD20C,3.000000*%
%ADD21C,0.800000*%
%ADD22C,1.500000*%
G04 APERTURE END LIST*
D10*
X99540000Y-57500000D03*
D11*
X97000000Y-57500000D03*
X102750000Y-126700000D03*
D10*
X105290000Y-126700000D03*
X97615000Y-126700000D03*
D11*
X95075000Y-126700000D03*
X87400000Y-126700000D03*
D10*
X89940000Y-126700000D03*
D12*
X47600000Y-113030000D03*
D13*
X47600000Y-115570000D03*
X47600000Y-118110000D03*
X47600000Y-120650000D03*
X47950000Y-71150000D03*
X47950000Y-68610000D03*
X47950000Y-66070000D03*
D12*
X47950000Y-63530000D03*
X47200000Y-88280000D03*
D13*
X47200000Y-90820000D03*
X47200000Y-93360000D03*
X47200000Y-95900000D03*
D14*
X85250000Y-123550000D03*
X87750000Y-123550000D03*
X92100000Y-123550000D03*
X94600000Y-123550000D03*
X102200000Y-123650000D03*
X99700000Y-123650000D03*
D15*
X86700000Y-116120000D03*
D16*
X86700000Y-121200000D03*
X100300000Y-119550000D03*
D15*
X100300000Y-114470000D03*
X102900000Y-114470000D03*
D16*
X102900000Y-119550000D03*
D17*
X64770000Y-123190000D03*
D14*
X62270000Y-123190000D03*
D17*
X64770000Y-73660000D03*
D14*
X62270000Y-73660000D03*
X62150000Y-98450000D03*
D17*
X64650000Y-98450000D03*
X88900000Y-67310000D03*
D18*
X104140000Y-100330000D03*
X88900000Y-69850000D03*
X104140000Y-97790000D03*
X88900000Y-72390000D03*
X104140000Y-95250000D03*
X88900000Y-74930000D03*
X104140000Y-92710000D03*
X88900000Y-77470000D03*
X104140000Y-90170000D03*
X88900000Y-80010000D03*
X104140000Y-87630000D03*
X88900000Y-82550000D03*
X104140000Y-85090000D03*
X88900000Y-85090000D03*
X104140000Y-82550000D03*
X88900000Y-87630000D03*
X104140000Y-80010000D03*
X88900000Y-90170000D03*
X104140000Y-77470000D03*
X88900000Y-92710000D03*
X104140000Y-74930000D03*
X88900000Y-95250000D03*
X104140000Y-72390000D03*
X88900000Y-97790000D03*
X104140000Y-69850000D03*
X88900000Y-100330000D03*
X104140000Y-67310000D03*
X88900000Y-102870000D03*
X104140000Y-102870000D03*
D17*
X57150000Y-107950000D03*
D18*
X69850000Y-125730000D03*
X57150000Y-110490000D03*
X69850000Y-123190000D03*
X57150000Y-113030000D03*
X69850000Y-120650000D03*
X57150000Y-115570000D03*
X69850000Y-118110000D03*
X57150000Y-118110000D03*
X69850000Y-115570000D03*
X57150000Y-120650000D03*
X69850000Y-113030000D03*
X57150000Y-123190000D03*
X69850000Y-110490000D03*
X57150000Y-125730000D03*
X69850000Y-107950000D03*
X69850000Y-83185000D03*
X57150000Y-100965000D03*
X69850000Y-85725000D03*
X57150000Y-98425000D03*
X69850000Y-88265000D03*
X57150000Y-95885000D03*
X69850000Y-90805000D03*
X57150000Y-93345000D03*
X69850000Y-93345000D03*
X57150000Y-90805000D03*
X69850000Y-95885000D03*
X57150000Y-88265000D03*
X69850000Y-98425000D03*
X57150000Y-85725000D03*
X69850000Y-100965000D03*
D17*
X57150000Y-83185000D03*
X57150000Y-58420000D03*
D18*
X69850000Y-76200000D03*
X57150000Y-60960000D03*
X69850000Y-73660000D03*
X57150000Y-63500000D03*
X69850000Y-71120000D03*
X57150000Y-66040000D03*
X69850000Y-68580000D03*
X57150000Y-68580000D03*
X69850000Y-66040000D03*
X57150000Y-71120000D03*
X69850000Y-63500000D03*
X57150000Y-73660000D03*
X69850000Y-60960000D03*
X57150000Y-76200000D03*
X69850000Y-58420000D03*
D17*
X81280000Y-123190000D03*
D18*
X73660000Y-118110000D03*
X81280000Y-120650000D03*
X73660000Y-120650000D03*
X81280000Y-118110000D03*
X73660000Y-123190000D03*
X73650000Y-98430000D03*
X81270000Y-93350000D03*
X73650000Y-95890000D03*
X81270000Y-95890000D03*
X73650000Y-93350000D03*
D17*
X81270000Y-98430000D03*
X81280000Y-73660000D03*
D18*
X73660000Y-68580000D03*
X81280000Y-71120000D03*
X73660000Y-71120000D03*
X81280000Y-68580000D03*
X73660000Y-73660000D03*
D19*
X51050000Y-54800000D03*
D20*
X45970000Y-54800000D03*
D21*
X87630000Y-114300000D03*
X97790000Y-114300000D03*
D22*
X57150000Y-63500000D02*
X47980000Y-63500000D01*
X47980000Y-63500000D02*
X47950000Y-63530000D01*
X57150000Y-68580000D02*
X47980000Y-68580000D01*
X47980000Y-68580000D02*
X47950000Y-68610000D01*
X57150000Y-66040000D02*
X47980000Y-66040000D01*
X47980000Y-66040000D02*
X47950000Y-66070000D01*
X57150000Y-71120000D02*
X47980000Y-71120000D01*
X47980000Y-71120000D02*
X47950000Y-71150000D01*
X47200000Y-95900000D02*
X57135000Y-95900000D01*
X57135000Y-95900000D02*
X57150000Y-95885000D01*
X47200000Y-90820000D02*
X57135000Y-90820000D01*
X57135000Y-90820000D02*
X57150000Y-90805000D01*
X57150000Y-93345000D02*
X47215000Y-93345000D01*
X47215000Y-93345000D02*
X47200000Y-93360000D01*
X57150000Y-88265000D02*
X47215000Y-88265000D01*
X47215000Y-88265000D02*
X47200000Y-88280000D01*
X47600000Y-113030000D02*
X57150000Y-113030000D01*
X47600000Y-118110000D02*
X57150000Y-118110000D01*
X57150000Y-115570000D02*
X47600000Y-115570000D01*
X57150000Y-120650000D02*
X47600000Y-120650000D01*
X64770000Y-59670000D02*
X59900000Y-54800000D01*
X59900000Y-54800000D02*
X51050000Y-54800000D01*
X64770000Y-73660000D02*
X64770000Y-59670000D01*
X64770000Y-101600000D02*
X64770000Y-98570000D01*
X64135000Y-100965000D02*
X64770000Y-101600000D01*
X64770000Y-123190000D02*
X64770000Y-101600000D01*
X57150000Y-100965000D02*
X64135000Y-100965000D01*
X64650000Y-98450000D02*
X64650000Y-73780000D01*
X64650000Y-73780000D02*
X64770000Y-73660000D01*
X64770000Y-98570000D02*
X64650000Y-98450000D01*
X64770000Y-76200000D02*
X64770000Y-73660000D01*
X57150000Y-76200000D02*
X64770000Y-76200000D01*
X57150000Y-125730000D02*
X64530000Y-125730000D01*
X64770000Y-125490000D02*
X64770000Y-123190000D01*
X64530000Y-125730000D02*
X64770000Y-125490000D01*
X94260000Y-62740000D02*
X97000000Y-60000000D01*
X97000000Y-60000000D02*
X97000000Y-57500000D01*
X91440000Y-62740000D02*
X94260000Y-62740000D01*
X80200000Y-51500000D02*
X49270000Y-51500000D01*
X49270000Y-51500000D02*
X45970000Y-54800000D01*
X91440000Y-62740000D02*
X80200000Y-51500000D01*
X91440000Y-74930000D02*
X91440000Y-62740000D01*
X54830000Y-58400000D02*
X49570000Y-58400000D01*
X49570000Y-58400000D02*
X45970000Y-54800000D01*
X57150000Y-58420000D02*
X54850000Y-58420000D01*
X54850000Y-58420000D02*
X54830000Y-58400000D01*
X54200000Y-75000000D02*
X55540000Y-73660000D01*
X54200000Y-78150000D02*
X54200000Y-75000000D01*
X55915000Y-79650000D02*
X55700000Y-79650000D01*
X55540000Y-73660000D02*
X57150000Y-73660000D01*
X55700000Y-79650000D02*
X54200000Y-78150000D01*
X57150000Y-83185000D02*
X57150000Y-80885000D01*
X57150000Y-80885000D02*
X55915000Y-79650000D01*
X59500000Y-98425000D02*
X62125000Y-98425000D01*
X57150000Y-98425000D02*
X59500000Y-98425000D01*
X59450000Y-83185000D02*
X59500000Y-83235000D01*
X57150000Y-83185000D02*
X59450000Y-83185000D01*
X59500000Y-83235000D02*
X59500000Y-98425000D01*
X62125000Y-98425000D02*
X62150000Y-98450000D01*
X57150000Y-105650000D02*
X54600000Y-103100000D01*
X54600000Y-99150000D02*
X55325000Y-98425000D01*
X57150000Y-107950000D02*
X57150000Y-105650000D01*
X54600000Y-103100000D02*
X54600000Y-99150000D01*
X55325000Y-98425000D02*
X57150000Y-98425000D01*
X100400000Y-126700000D02*
X99700000Y-126000000D01*
X99700000Y-126000000D02*
X99700000Y-123650000D01*
X92725000Y-126700000D02*
X92100000Y-126075000D01*
X92100000Y-126075000D02*
X92100000Y-123550000D01*
X87400000Y-126700000D02*
X87400000Y-123900000D01*
X87400000Y-123900000D02*
X87750000Y-123550000D01*
X95075000Y-126700000D02*
X95450000Y-126700000D01*
X95450000Y-126700000D02*
X95814999Y-127064999D01*
X95814999Y-127064999D02*
X95814999Y-127564001D01*
X95814999Y-127564001D02*
X96750999Y-128500001D01*
X96750999Y-128500001D02*
X98599999Y-128500001D01*
X98599999Y-128500001D02*
X100400000Y-126700000D01*
X100400000Y-126700000D02*
X102750000Y-126700000D01*
X87400000Y-126700000D02*
X87400000Y-126824002D01*
X87400000Y-126824002D02*
X89075999Y-128500001D01*
X92725000Y-126700000D02*
X95075000Y-126700000D01*
X89075999Y-128500001D02*
X90924999Y-128500001D01*
X90924999Y-128500001D02*
X92725000Y-126700000D01*
X53600000Y-124550000D02*
X54960000Y-123190000D01*
X54960000Y-123190000D02*
X57150000Y-123190000D01*
X53600000Y-126650000D02*
X53600000Y-124550000D01*
X55650000Y-128700000D02*
X53600000Y-126650000D01*
X72250000Y-128700000D02*
X55650000Y-128700000D01*
X74250000Y-126700000D02*
X72250000Y-128700000D01*
X87400000Y-126700000D02*
X74250000Y-126700000D01*
X91440000Y-74930000D02*
X96520000Y-69850000D01*
X96520000Y-69850000D02*
X104140000Y-69850000D01*
X88900000Y-74930000D02*
X91440000Y-74930000D01*
X58420000Y-58420000D02*
X57150000Y-58420000D01*
X59690000Y-59690000D02*
X58420000Y-58420000D01*
X57150000Y-73660000D02*
X59690000Y-73660000D01*
X59690000Y-73660000D02*
X62270000Y-73660000D01*
X59690000Y-73660000D02*
X59690000Y-59690000D01*
X59690000Y-123190000D02*
X59690000Y-108190000D01*
X59690000Y-108190000D02*
X59450000Y-107950000D01*
X59450000Y-107950000D02*
X57150000Y-107950000D01*
X57150000Y-123190000D02*
X59690000Y-123190000D01*
X59690000Y-123190000D02*
X62270000Y-123190000D01*
X78850000Y-79500000D02*
X81280000Y-77070000D01*
X81280000Y-77070000D02*
X81280000Y-73660000D01*
X69850000Y-79500000D02*
X78850000Y-79500000D01*
X67500000Y-81850000D02*
X69850000Y-79500000D01*
X67500000Y-87046370D02*
X67500000Y-81850000D01*
X69850000Y-88265000D02*
X68718630Y-88265000D01*
X68718630Y-88265000D02*
X67500000Y-87046370D01*
X78350000Y-103900000D02*
X81270000Y-100980000D01*
X81270000Y-100980000D02*
X81270000Y-98430000D01*
X70000000Y-103900000D02*
X78350000Y-103900000D01*
X67600000Y-106300000D02*
X70000000Y-103900000D01*
X67600000Y-111911370D02*
X67600000Y-106300000D01*
X69850000Y-113030000D02*
X68718630Y-113030000D01*
X68718630Y-113030000D02*
X67600000Y-111911370D01*
X69850000Y-90805000D02*
X69850000Y-88265000D01*
X81270000Y-91170000D02*
X80905000Y-90805000D01*
X80905000Y-90805000D02*
X69850000Y-90805000D01*
X81270000Y-93350000D02*
X81270000Y-91170000D01*
X81270000Y-95890000D02*
X81270000Y-93350000D01*
X81270000Y-98430000D02*
X81270000Y-95890000D01*
X69850000Y-66040000D02*
X69850000Y-63500000D01*
X81280000Y-68580000D02*
X78740000Y-66040000D01*
X78740000Y-66040000D02*
X69850000Y-66040000D01*
X69850000Y-113030000D02*
X69850000Y-115570000D01*
X81280000Y-113030000D02*
X69850000Y-113030000D01*
X87630000Y-114300000D02*
X86500000Y-114300000D01*
X86700000Y-114500000D02*
X86700000Y-116120000D01*
X86500000Y-114300000D02*
X85090000Y-114300000D01*
X86500000Y-114300000D02*
X86700000Y-114500000D01*
X100300000Y-114470000D02*
X102900000Y-114470000D01*
X97790000Y-81280000D02*
X97790000Y-112650000D01*
X97790000Y-112650000D02*
X97790000Y-114300000D01*
X98480000Y-112650000D02*
X100300000Y-114470000D01*
X97790000Y-112650000D02*
X98480000Y-112650000D01*
X82550000Y-114300000D02*
X81280000Y-113030000D01*
X85090000Y-114300000D02*
X82550000Y-114300000D01*
X85090000Y-114300000D02*
X81280000Y-118110000D01*
X104140000Y-74930000D02*
X97790000Y-81280000D01*
X81280000Y-71120000D02*
X81280000Y-68580000D01*
X81280000Y-73660000D02*
X81280000Y-71120000D01*
X81280000Y-120650000D02*
X81280000Y-118110000D01*
X81280000Y-123190000D02*
X81280000Y-120650000D01*
X69850000Y-68580000D02*
X73660000Y-68580000D01*
X73660000Y-71120000D02*
X69850000Y-71120000D01*
X69850000Y-73660000D02*
X73660000Y-73660000D01*
X69850000Y-98425000D02*
X73645000Y-98425000D01*
X73645000Y-98425000D02*
X73650000Y-98430000D01*
X69850000Y-95885000D02*
X73645000Y-95885000D01*
X73645000Y-95885000D02*
X73650000Y-95890000D01*
X69850000Y-93345000D02*
X73645000Y-93345000D01*
X73645000Y-93345000D02*
X73650000Y-93350000D01*
X69850000Y-118110000D02*
X73660000Y-118110000D01*
X69850000Y-120650000D02*
X73660000Y-120650000D01*
X69850000Y-123190000D02*
X73660000Y-123190000D01*
X83820000Y-64770000D02*
X80010000Y-60960000D01*
X80010000Y-60960000D02*
X69850000Y-60960000D01*
X83820000Y-77470000D02*
X83820000Y-64770000D01*
X86360000Y-80010000D02*
X83820000Y-77470000D01*
X88900000Y-80010000D02*
X86360000Y-80010000D01*
X81280000Y-58420000D02*
X69850000Y-58420000D01*
X86360000Y-63500000D02*
X81280000Y-58420000D01*
X86360000Y-76200000D02*
X86360000Y-63500000D01*
X87630000Y-77470000D02*
X86360000Y-76200000D01*
X88900000Y-77470000D02*
X87630000Y-77470000D01*
X81415000Y-83185000D02*
X82050000Y-82550000D01*
X82050000Y-82550000D02*
X88900000Y-82550000D01*
X69850000Y-83185000D02*
X81415000Y-83185000D01*
X82625000Y-85725000D02*
X83260000Y-85090000D01*
X83260000Y-85090000D02*
X88900000Y-85090000D01*
X69850000Y-85725000D02*
X82625000Y-85725000D01*
X80010000Y-110490000D02*
X69850000Y-110490000D01*
X86360000Y-104140000D02*
X80010000Y-110490000D01*
X86360000Y-91440000D02*
X86360000Y-104140000D01*
X87630000Y-90170000D02*
X86360000Y-91440000D01*
X88900000Y-90170000D02*
X87630000Y-90170000D01*
X83820000Y-102870000D02*
X78740000Y-107950000D01*
X78740000Y-107950000D02*
X69850000Y-107950000D01*
X83820000Y-88900000D02*
X83820000Y-102870000D01*
X85090000Y-87630000D02*
X83820000Y-88900000D01*
X88900000Y-87630000D02*
X85090000Y-87630000D01*
X107000000Y-66500000D02*
X99540000Y-59040000D01*
X99540000Y-59040000D02*
X99540000Y-57500000D01*
X107000000Y-82000000D02*
X107000000Y-66500000D01*
X106450000Y-82550000D02*
X107000000Y-82000000D01*
X104140000Y-82550000D02*
X106450000Y-82550000D01*
X102900000Y-119550000D02*
X102900000Y-122950000D01*
X102900000Y-122950000D02*
X102200000Y-123650000D01*
X105000000Y-116800000D02*
X103050000Y-116800000D01*
X103050000Y-116800000D02*
X97885823Y-116800000D01*
X103050000Y-116800000D02*
X102900000Y-116950000D01*
X102900000Y-116950000D02*
X102900000Y-119550000D01*
X95700000Y-114614177D02*
X95700000Y-100150000D01*
X95700000Y-100150000D02*
X90800000Y-95250000D01*
X90800000Y-95250000D02*
X88900000Y-95250000D01*
X97885823Y-116800000D02*
X95700000Y-114614177D01*
X105290000Y-117090000D02*
X105000000Y-116800000D01*
X105290000Y-126700000D02*
X105290000Y-117090000D01*
X96350000Y-122250000D02*
X97615000Y-123515000D01*
X93150000Y-119050000D02*
X96350000Y-122250000D01*
X97615000Y-123515000D02*
X97615000Y-126700000D01*
X93150000Y-101450000D02*
X93150000Y-119050000D01*
X90289999Y-98589999D02*
X93150000Y-101450000D01*
X88900000Y-97790000D02*
X89699999Y-98589999D01*
X89699999Y-98589999D02*
X90289999Y-98589999D01*
X95900000Y-122250000D02*
X94600000Y-123550000D01*
X96350000Y-122250000D02*
X95900000Y-122250000D01*
X93650000Y-119550000D02*
X93150000Y-119050000D01*
X100300000Y-119550000D02*
X93650000Y-119550000D01*
X85710051Y-121200000D02*
X85250000Y-121660051D01*
X85250000Y-121660051D02*
X85250000Y-123550000D01*
X86700000Y-121200000D02*
X85710051Y-121200000D01*
X89940000Y-105041370D02*
X89940000Y-120550000D01*
X89940000Y-120550000D02*
X89290000Y-121200000D01*
X89940000Y-120550000D02*
X89940000Y-126700000D01*
X89290000Y-121200000D02*
X86700000Y-121200000D01*
X88900000Y-102870000D02*
X88900000Y-104001370D01*
X88900000Y-104001370D02*
X89940000Y-105041370D01*
M02*
