G04 #@! TF.GenerationSoftware,KiCad,Pcbnew,5.0.0-rc2-be01b52~65~ubuntu18.04.1*
G04 #@! TF.CreationDate,2018-05-25T18:16:16+02:00*
G04 #@! TF.ProjectId,nano8825,6E616E6F383832352E6B696361645F70,rev?*
G04 #@! TF.SameCoordinates,Original*
G04 #@! TF.FileFunction,Copper,L2,Bot,Signal*
G04 #@! TF.FilePolarity,Positive*
%FSLAX46Y46*%
G04 Gerber Fmt 4.6, Leading zero omitted, Abs format (unit mm)*
G04 Created by KiCad (PCBNEW 5.0.0-rc2-be01b52~65~ubuntu18.04.1) date Fri May 25 18:16:16 2018*
%MOMM*%
%LPD*%
G01*
G04 APERTURE LIST*
G04 #@! TA.AperFunction,ComponentPad*
%ADD10R,1.600000X1.600000*%
G04 #@! TD*
G04 #@! TA.AperFunction,ComponentPad*
%ADD11O,1.600000X1.600000*%
G04 #@! TD*
G04 #@! TA.AperFunction,ComponentPad*
%ADD12O,1.700000X1.700000*%
G04 #@! TD*
G04 #@! TA.AperFunction,ComponentPad*
%ADD13R,1.700000X1.700000*%
G04 #@! TD*
G04 #@! TA.AperFunction,ComponentPad*
%ADD14R,2.200000X2.200000*%
G04 #@! TD*
G04 #@! TA.AperFunction,ComponentPad*
%ADD15C,2.200000*%
G04 #@! TD*
G04 #@! TA.AperFunction,ComponentPad*
%ADD16C,1.600000*%
G04 #@! TD*
G04 #@! TA.AperFunction,ComponentPad*
%ADD17C,1.400000*%
G04 #@! TD*
G04 #@! TA.AperFunction,ComponentPad*
%ADD18O,1.400000X1.400000*%
G04 #@! TD*
G04 #@! TA.AperFunction,ComponentPad*
%ADD19R,3.000000X3.000000*%
G04 #@! TD*
G04 #@! TA.AperFunction,ComponentPad*
%ADD20C,3.000000*%
G04 #@! TD*
G04 #@! TA.AperFunction,ViaPad*
%ADD21C,0.800000*%
G04 #@! TD*
G04 #@! TA.AperFunction,Conductor*
%ADD22C,1.500000*%
G04 #@! TD*
G04 APERTURE END LIST*
D10*
G04 #@! TO.P,SW3,1*
G04 #@! TO.N,Net-(A1-Pad27)*
X156210000Y-130810000D03*
D11*
G04 #@! TO.P,SW3,4*
G04 #@! TO.N,Net-(A4-Pad12)*
X148590000Y-125730000D03*
G04 #@! TO.P,SW3,2*
G04 #@! TO.N,Net-(A1-Pad27)*
X156210000Y-128270000D03*
G04 #@! TO.P,SW3,5*
G04 #@! TO.N,Net-(A4-Pad11)*
X148590000Y-128270000D03*
G04 #@! TO.P,SW3,3*
G04 #@! TO.N,Net-(A1-Pad27)*
X156210000Y-125730000D03*
G04 #@! TO.P,SW3,6*
G04 #@! TO.N,Net-(A4-Pad10)*
X148590000Y-130810000D03*
G04 #@! TD*
G04 #@! TO.P,SW2,6*
G04 #@! TO.N,Net-(A3-Pad10)*
X148580000Y-106050000D03*
G04 #@! TO.P,SW2,3*
G04 #@! TO.N,Net-(A1-Pad27)*
X156200000Y-100970000D03*
G04 #@! TO.P,SW2,5*
G04 #@! TO.N,Net-(A3-Pad11)*
X148580000Y-103510000D03*
G04 #@! TO.P,SW2,2*
G04 #@! TO.N,Net-(A1-Pad27)*
X156200000Y-103510000D03*
G04 #@! TO.P,SW2,4*
G04 #@! TO.N,Net-(A3-Pad12)*
X148580000Y-100970000D03*
D10*
G04 #@! TO.P,SW2,1*
G04 #@! TO.N,Net-(A1-Pad27)*
X156200000Y-106050000D03*
G04 #@! TD*
G04 #@! TO.P,SW1,1*
G04 #@! TO.N,Net-(A1-Pad27)*
X156210000Y-81280000D03*
D11*
G04 #@! TO.P,SW1,4*
G04 #@! TO.N,Net-(A2-Pad12)*
X148590000Y-76200000D03*
G04 #@! TO.P,SW1,2*
G04 #@! TO.N,Net-(A1-Pad27)*
X156210000Y-78740000D03*
G04 #@! TO.P,SW1,5*
G04 #@! TO.N,Net-(A2-Pad11)*
X148590000Y-78740000D03*
G04 #@! TO.P,SW1,3*
G04 #@! TO.N,Net-(A1-Pad27)*
X156210000Y-76200000D03*
G04 #@! TO.P,SW1,6*
G04 #@! TO.N,Net-(A2-Pad10)*
X148590000Y-81280000D03*
G04 #@! TD*
D12*
G04 #@! TO.P,J8,2*
G04 #@! TO.N,Net-(A1-Pad24)*
X174470000Y-65120000D03*
D13*
G04 #@! TO.P,J8,1*
G04 #@! TO.N,Net-(A1-Pad29)*
X171930000Y-65120000D03*
G04 #@! TD*
G04 #@! TO.P,J7,1*
G04 #@! TO.N,Net-(A1-Pad29)*
X177680000Y-134320000D03*
D12*
G04 #@! TO.P,J7,2*
G04 #@! TO.N,Net-(A1-Pad12)*
X180220000Y-134320000D03*
G04 #@! TD*
G04 #@! TO.P,J6,2*
G04 #@! TO.N,Net-(A1-Pad13)*
X172545000Y-134320000D03*
D13*
G04 #@! TO.P,J6,1*
G04 #@! TO.N,Net-(A1-Pad29)*
X170005000Y-134320000D03*
G04 #@! TD*
G04 #@! TO.P,J5,1*
G04 #@! TO.N,Net-(A1-Pad29)*
X162330000Y-134320000D03*
D12*
G04 #@! TO.P,J5,2*
G04 #@! TO.N,Net-(A1-Pad15)*
X164870000Y-134320000D03*
G04 #@! TD*
D14*
G04 #@! TO.P,J4,1*
G04 #@! TO.N,Net-(A4-Pad3)*
X122530000Y-120650000D03*
D15*
G04 #@! TO.P,J4,2*
G04 #@! TO.N,Net-(A4-Pad4)*
X122530000Y-123190000D03*
G04 #@! TO.P,J4,3*
G04 #@! TO.N,Net-(A4-Pad5)*
X122530000Y-125730000D03*
G04 #@! TO.P,J4,4*
G04 #@! TO.N,Net-(A4-Pad6)*
X122530000Y-128270000D03*
G04 #@! TD*
G04 #@! TO.P,J2,4*
G04 #@! TO.N,Net-(A2-Pad6)*
X122880000Y-78770000D03*
G04 #@! TO.P,J2,3*
G04 #@! TO.N,Net-(A2-Pad5)*
X122880000Y-76230000D03*
G04 #@! TO.P,J2,2*
G04 #@! TO.N,Net-(A2-Pad4)*
X122880000Y-73690000D03*
D14*
G04 #@! TO.P,J2,1*
G04 #@! TO.N,Net-(A2-Pad3)*
X122880000Y-71150000D03*
G04 #@! TD*
G04 #@! TO.P,J3,1*
G04 #@! TO.N,Net-(A3-Pad3)*
X122130000Y-95900000D03*
D15*
G04 #@! TO.P,J3,2*
G04 #@! TO.N,Net-(A3-Pad4)*
X122130000Y-98440000D03*
G04 #@! TO.P,J3,3*
G04 #@! TO.N,Net-(A3-Pad5)*
X122130000Y-100980000D03*
G04 #@! TO.P,J3,4*
G04 #@! TO.N,Net-(A3-Pad6)*
X122130000Y-103520000D03*
G04 #@! TD*
D16*
G04 #@! TO.P,C4,1*
G04 #@! TO.N,Net-(A1-Pad15)*
X160180000Y-131170000D03*
G04 #@! TO.P,C4,2*
G04 #@! TO.N,Net-(A1-Pad29)*
X162680000Y-131170000D03*
G04 #@! TD*
G04 #@! TO.P,C5,2*
G04 #@! TO.N,Net-(A1-Pad29)*
X167030000Y-131170000D03*
G04 #@! TO.P,C5,1*
G04 #@! TO.N,Net-(A1-Pad13)*
X169530000Y-131170000D03*
G04 #@! TD*
G04 #@! TO.P,C6,1*
G04 #@! TO.N,Net-(A1-Pad12)*
X177130000Y-131270000D03*
G04 #@! TO.P,C6,2*
G04 #@! TO.N,Net-(A1-Pad29)*
X174630000Y-131270000D03*
G04 #@! TD*
D17*
G04 #@! TO.P,R1,1*
G04 #@! TO.N,Net-(A1-Pad27)*
X161630000Y-123740000D03*
D18*
G04 #@! TO.P,R1,2*
G04 #@! TO.N,Net-(A1-Pad15)*
X161630000Y-128820000D03*
G04 #@! TD*
G04 #@! TO.P,R2,2*
G04 #@! TO.N,Net-(A1-Pad13)*
X175230000Y-127170000D03*
D17*
G04 #@! TO.P,R2,1*
G04 #@! TO.N,Net-(A1-Pad27)*
X175230000Y-122090000D03*
G04 #@! TD*
G04 #@! TO.P,R3,1*
G04 #@! TO.N,Net-(A1-Pad27)*
X177830000Y-122090000D03*
D18*
G04 #@! TO.P,R3,2*
G04 #@! TO.N,Net-(A1-Pad12)*
X177830000Y-127170000D03*
G04 #@! TD*
D10*
G04 #@! TO.P,C1,1*
G04 #@! TO.N,Net-(A2-Pad8)*
X139700000Y-130810000D03*
D16*
G04 #@! TO.P,C1,2*
G04 #@! TO.N,Net-(A1-Pad29)*
X137200000Y-130810000D03*
G04 #@! TD*
D10*
G04 #@! TO.P,C3,1*
G04 #@! TO.N,Net-(A2-Pad8)*
X139700000Y-81280000D03*
D16*
G04 #@! TO.P,C3,2*
G04 #@! TO.N,Net-(A1-Pad29)*
X137200000Y-81280000D03*
G04 #@! TD*
G04 #@! TO.P,C2,2*
G04 #@! TO.N,Net-(A1-Pad29)*
X137080000Y-106070000D03*
D10*
G04 #@! TO.P,C2,1*
G04 #@! TO.N,Net-(A2-Pad8)*
X139580000Y-106070000D03*
G04 #@! TD*
G04 #@! TO.P,A1,1*
G04 #@! TO.N,Net-(A1-Pad1)*
X163830000Y-74930000D03*
D11*
G04 #@! TO.P,A1,17*
G04 #@! TO.N,Net-(A1-Pad17)*
X179070000Y-107950000D03*
G04 #@! TO.P,A1,2*
G04 #@! TO.N,Net-(A1-Pad2)*
X163830000Y-77470000D03*
G04 #@! TO.P,A1,18*
G04 #@! TO.N,Net-(A1-Pad18)*
X179070000Y-105410000D03*
G04 #@! TO.P,A1,3*
G04 #@! TO.N,Net-(A1-Pad3)*
X163830000Y-80010000D03*
G04 #@! TO.P,A1,19*
G04 #@! TO.N,Net-(A1-Pad19)*
X179070000Y-102870000D03*
G04 #@! TO.P,A1,4*
G04 #@! TO.N,Net-(A1-Pad29)*
X163830000Y-82550000D03*
G04 #@! TO.P,A1,20*
G04 #@! TO.N,Net-(A1-Pad20)*
X179070000Y-100330000D03*
G04 #@! TO.P,A1,5*
G04 #@! TO.N,Net-(A1-Pad5)*
X163830000Y-85090000D03*
G04 #@! TO.P,A1,21*
G04 #@! TO.N,Net-(A1-Pad21)*
X179070000Y-97790000D03*
G04 #@! TO.P,A1,6*
G04 #@! TO.N,Net-(A1-Pad6)*
X163830000Y-87630000D03*
G04 #@! TO.P,A1,22*
G04 #@! TO.N,Net-(A1-Pad22)*
X179070000Y-95250000D03*
G04 #@! TO.P,A1,7*
G04 #@! TO.N,Net-(A1-Pad7)*
X163830000Y-90170000D03*
G04 #@! TO.P,A1,23*
G04 #@! TO.N,Net-(A1-Pad23)*
X179070000Y-92710000D03*
G04 #@! TO.P,A1,8*
G04 #@! TO.N,Net-(A1-Pad8)*
X163830000Y-92710000D03*
G04 #@! TO.P,A1,24*
G04 #@! TO.N,Net-(A1-Pad24)*
X179070000Y-90170000D03*
G04 #@! TO.P,A1,9*
G04 #@! TO.N,Net-(A1-Pad9)*
X163830000Y-95250000D03*
G04 #@! TO.P,A1,25*
G04 #@! TO.N,Net-(A1-Pad25)*
X179070000Y-87630000D03*
G04 #@! TO.P,A1,10*
G04 #@! TO.N,Net-(A1-Pad10)*
X163830000Y-97790000D03*
G04 #@! TO.P,A1,26*
G04 #@! TO.N,Net-(A1-Pad26)*
X179070000Y-85090000D03*
G04 #@! TO.P,A1,11*
G04 #@! TO.N,Net-(A1-Pad11)*
X163830000Y-100330000D03*
G04 #@! TO.P,A1,27*
G04 #@! TO.N,Net-(A1-Pad27)*
X179070000Y-82550000D03*
G04 #@! TO.P,A1,12*
G04 #@! TO.N,Net-(A1-Pad12)*
X163830000Y-102870000D03*
G04 #@! TO.P,A1,28*
G04 #@! TO.N,Net-(A1-Pad28)*
X179070000Y-80010000D03*
G04 #@! TO.P,A1,13*
G04 #@! TO.N,Net-(A1-Pad13)*
X163830000Y-105410000D03*
G04 #@! TO.P,A1,29*
G04 #@! TO.N,Net-(A1-Pad29)*
X179070000Y-77470000D03*
G04 #@! TO.P,A1,14*
G04 #@! TO.N,Net-(A1-Pad14)*
X163830000Y-107950000D03*
G04 #@! TO.P,A1,30*
G04 #@! TO.N,Net-(A1-Pad30)*
X179070000Y-74930000D03*
G04 #@! TO.P,A1,15*
G04 #@! TO.N,Net-(A1-Pad15)*
X163830000Y-110490000D03*
G04 #@! TO.P,A1,16*
G04 #@! TO.N,Net-(A1-Pad16)*
X179070000Y-110490000D03*
G04 #@! TD*
D10*
G04 #@! TO.P,A4,1*
G04 #@! TO.N,Net-(A1-Pad29)*
X132080000Y-115570000D03*
D11*
G04 #@! TO.P,A4,9*
G04 #@! TO.N,Net-(A4-Pad9)*
X144780000Y-133350000D03*
G04 #@! TO.P,A4,2*
G04 #@! TO.N,Net-(A4-Pad2)*
X132080000Y-118110000D03*
G04 #@! TO.P,A4,10*
G04 #@! TO.N,Net-(A4-Pad10)*
X144780000Y-130810000D03*
G04 #@! TO.P,A4,3*
G04 #@! TO.N,Net-(A4-Pad3)*
X132080000Y-120650000D03*
G04 #@! TO.P,A4,11*
G04 #@! TO.N,Net-(A4-Pad11)*
X144780000Y-128270000D03*
G04 #@! TO.P,A4,4*
G04 #@! TO.N,Net-(A4-Pad4)*
X132080000Y-123190000D03*
G04 #@! TO.P,A4,12*
G04 #@! TO.N,Net-(A4-Pad12)*
X144780000Y-125730000D03*
G04 #@! TO.P,A4,5*
G04 #@! TO.N,Net-(A4-Pad5)*
X132080000Y-125730000D03*
G04 #@! TO.P,A4,13*
G04 #@! TO.N,Net-(A1-Pad27)*
X144780000Y-123190000D03*
G04 #@! TO.P,A4,6*
G04 #@! TO.N,Net-(A4-Pad6)*
X132080000Y-128270000D03*
G04 #@! TO.P,A4,14*
G04 #@! TO.N,Net-(A1-Pad27)*
X144780000Y-120650000D03*
G04 #@! TO.P,A4,7*
G04 #@! TO.N,Net-(A1-Pad29)*
X132080000Y-130810000D03*
G04 #@! TO.P,A4,15*
G04 #@! TO.N,Net-(A1-Pad10)*
X144780000Y-118110000D03*
G04 #@! TO.P,A4,8*
G04 #@! TO.N,Net-(A2-Pad8)*
X132080000Y-133350000D03*
G04 #@! TO.P,A4,16*
G04 #@! TO.N,Net-(A1-Pad9)*
X144780000Y-115570000D03*
G04 #@! TD*
G04 #@! TO.P,A3,16*
G04 #@! TO.N,Net-(A1-Pad7)*
X144780000Y-90805000D03*
G04 #@! TO.P,A3,8*
G04 #@! TO.N,Net-(A2-Pad8)*
X132080000Y-108585000D03*
G04 #@! TO.P,A3,15*
G04 #@! TO.N,Net-(A1-Pad8)*
X144780000Y-93345000D03*
G04 #@! TO.P,A3,7*
G04 #@! TO.N,Net-(A1-Pad29)*
X132080000Y-106045000D03*
G04 #@! TO.P,A3,14*
G04 #@! TO.N,Net-(A1-Pad27)*
X144780000Y-95885000D03*
G04 #@! TO.P,A3,6*
G04 #@! TO.N,Net-(A3-Pad6)*
X132080000Y-103505000D03*
G04 #@! TO.P,A3,13*
G04 #@! TO.N,Net-(A1-Pad27)*
X144780000Y-98425000D03*
G04 #@! TO.P,A3,5*
G04 #@! TO.N,Net-(A3-Pad5)*
X132080000Y-100965000D03*
G04 #@! TO.P,A3,12*
G04 #@! TO.N,Net-(A3-Pad12)*
X144780000Y-100965000D03*
G04 #@! TO.P,A3,4*
G04 #@! TO.N,Net-(A3-Pad4)*
X132080000Y-98425000D03*
G04 #@! TO.P,A3,11*
G04 #@! TO.N,Net-(A3-Pad11)*
X144780000Y-103505000D03*
G04 #@! TO.P,A3,3*
G04 #@! TO.N,Net-(A3-Pad3)*
X132080000Y-95885000D03*
G04 #@! TO.P,A3,10*
G04 #@! TO.N,Net-(A3-Pad10)*
X144780000Y-106045000D03*
G04 #@! TO.P,A3,2*
G04 #@! TO.N,Net-(A3-Pad2)*
X132080000Y-93345000D03*
G04 #@! TO.P,A3,9*
G04 #@! TO.N,Net-(A3-Pad9)*
X144780000Y-108585000D03*
D10*
G04 #@! TO.P,A3,1*
G04 #@! TO.N,Net-(A1-Pad29)*
X132080000Y-90805000D03*
G04 #@! TD*
G04 #@! TO.P,A2,1*
G04 #@! TO.N,Net-(A1-Pad29)*
X132080000Y-66040000D03*
D11*
G04 #@! TO.P,A2,9*
G04 #@! TO.N,Net-(A2-Pad9)*
X144780000Y-83820000D03*
G04 #@! TO.P,A2,2*
G04 #@! TO.N,Net-(A2-Pad2)*
X132080000Y-68580000D03*
G04 #@! TO.P,A2,10*
G04 #@! TO.N,Net-(A2-Pad10)*
X144780000Y-81280000D03*
G04 #@! TO.P,A2,3*
G04 #@! TO.N,Net-(A2-Pad3)*
X132080000Y-71120000D03*
G04 #@! TO.P,A2,11*
G04 #@! TO.N,Net-(A2-Pad11)*
X144780000Y-78740000D03*
G04 #@! TO.P,A2,4*
G04 #@! TO.N,Net-(A2-Pad4)*
X132080000Y-73660000D03*
G04 #@! TO.P,A2,12*
G04 #@! TO.N,Net-(A2-Pad12)*
X144780000Y-76200000D03*
G04 #@! TO.P,A2,5*
G04 #@! TO.N,Net-(A2-Pad5)*
X132080000Y-76200000D03*
G04 #@! TO.P,A2,13*
G04 #@! TO.N,Net-(A1-Pad27)*
X144780000Y-73660000D03*
G04 #@! TO.P,A2,6*
G04 #@! TO.N,Net-(A2-Pad6)*
X132080000Y-78740000D03*
G04 #@! TO.P,A2,14*
G04 #@! TO.N,Net-(A1-Pad27)*
X144780000Y-71120000D03*
G04 #@! TO.P,A2,7*
G04 #@! TO.N,Net-(A1-Pad29)*
X132080000Y-81280000D03*
G04 #@! TO.P,A2,15*
G04 #@! TO.N,Net-(A1-Pad6)*
X144780000Y-68580000D03*
G04 #@! TO.P,A2,8*
G04 #@! TO.N,Net-(A2-Pad8)*
X132080000Y-83820000D03*
G04 #@! TO.P,A2,16*
G04 #@! TO.N,Net-(A1-Pad5)*
X144780000Y-66040000D03*
G04 #@! TD*
D19*
G04 #@! TO.P,J1,1*
G04 #@! TO.N,Net-(A2-Pad8)*
X125980000Y-62420000D03*
D20*
G04 #@! TO.P,J1,2*
G04 #@! TO.N,Net-(A1-Pad29)*
X120900000Y-62420000D03*
G04 #@! TD*
D21*
G04 #@! TO.N,Net-(A1-Pad27)*
X162560000Y-121920000D03*
X172720000Y-121920000D03*
G04 #@! TD*
D22*
G04 #@! TO.N,Net-(A2-Pad3)*
X132080000Y-71120000D02*
X122910000Y-71120000D01*
X122910000Y-71120000D02*
X122880000Y-71150000D01*
G04 #@! TO.N,Net-(A2-Pad5)*
X132080000Y-76200000D02*
X122910000Y-76200000D01*
X122910000Y-76200000D02*
X122880000Y-76230000D01*
G04 #@! TO.N,Net-(A2-Pad4)*
X132080000Y-73660000D02*
X122910000Y-73660000D01*
X122910000Y-73660000D02*
X122880000Y-73690000D01*
G04 #@! TO.N,Net-(A2-Pad6)*
X132080000Y-78740000D02*
X122910000Y-78740000D01*
X122910000Y-78740000D02*
X122880000Y-78770000D01*
G04 #@! TO.N,Net-(A3-Pad6)*
X122130000Y-103520000D02*
X132065000Y-103520000D01*
X132065000Y-103520000D02*
X132080000Y-103505000D01*
G04 #@! TO.N,Net-(A3-Pad4)*
X122130000Y-98440000D02*
X132065000Y-98440000D01*
X132065000Y-98440000D02*
X132080000Y-98425000D01*
G04 #@! TO.N,Net-(A3-Pad5)*
X132080000Y-100965000D02*
X122145000Y-100965000D01*
X122145000Y-100965000D02*
X122130000Y-100980000D01*
G04 #@! TO.N,Net-(A3-Pad3)*
X132080000Y-95885000D02*
X122145000Y-95885000D01*
X122145000Y-95885000D02*
X122130000Y-95900000D01*
G04 #@! TO.N,Net-(A4-Pad3)*
X122530000Y-120650000D02*
X132080000Y-120650000D01*
G04 #@! TO.N,Net-(A4-Pad5)*
X122530000Y-125730000D02*
X132080000Y-125730000D01*
G04 #@! TO.N,Net-(A4-Pad4)*
X132080000Y-123190000D02*
X122530000Y-123190000D01*
G04 #@! TO.N,Net-(A4-Pad6)*
X132080000Y-128270000D02*
X122530000Y-128270000D01*
G04 #@! TO.N,Net-(A2-Pad8)*
X139700000Y-67290000D02*
X134830000Y-62420000D01*
X134830000Y-62420000D02*
X125980000Y-62420000D01*
X139700000Y-81280000D02*
X139700000Y-67290000D01*
X139700000Y-109220000D02*
X139700000Y-106190000D01*
X139065000Y-108585000D02*
X139700000Y-109220000D01*
X139700000Y-130810000D02*
X139700000Y-109220000D01*
X132080000Y-108585000D02*
X139065000Y-108585000D01*
X139580000Y-106070000D02*
X139580000Y-81400000D01*
X139580000Y-81400000D02*
X139700000Y-81280000D01*
X139700000Y-106190000D02*
X139580000Y-106070000D01*
X139700000Y-83820000D02*
X139700000Y-81280000D01*
X132080000Y-83820000D02*
X139700000Y-83820000D01*
X132080000Y-133350000D02*
X139460000Y-133350000D01*
X139700000Y-133110000D02*
X139700000Y-130810000D01*
X139460000Y-133350000D02*
X139700000Y-133110000D01*
G04 #@! TO.N,Net-(A1-Pad29)*
X169190000Y-70360000D02*
X171930000Y-67620000D01*
X171930000Y-67620000D02*
X171930000Y-65120000D01*
X166370000Y-70360000D02*
X169190000Y-70360000D01*
X155130000Y-59120000D02*
X124200000Y-59120000D01*
X124200000Y-59120000D02*
X120900000Y-62420000D01*
X166370000Y-70360000D02*
X155130000Y-59120000D01*
X166370000Y-82550000D02*
X166370000Y-70360000D01*
X129760000Y-66020000D02*
X124500000Y-66020000D01*
X124500000Y-66020000D02*
X120900000Y-62420000D01*
X132080000Y-66040000D02*
X129780000Y-66040000D01*
X129780000Y-66040000D02*
X129760000Y-66020000D01*
X129130000Y-82620000D02*
X130470000Y-81280000D01*
X129130000Y-85770000D02*
X129130000Y-82620000D01*
X130845000Y-87270000D02*
X130630000Y-87270000D01*
X130470000Y-81280000D02*
X132080000Y-81280000D01*
X130630000Y-87270000D02*
X129130000Y-85770000D01*
X132080000Y-90805000D02*
X132080000Y-88505000D01*
X132080000Y-88505000D02*
X130845000Y-87270000D01*
X134430000Y-106045000D02*
X137055000Y-106045000D01*
X132080000Y-106045000D02*
X134430000Y-106045000D01*
X134380000Y-90805000D02*
X134430000Y-90855000D01*
X132080000Y-90805000D02*
X134380000Y-90805000D01*
X134430000Y-90855000D02*
X134430000Y-106045000D01*
X137055000Y-106045000D02*
X137080000Y-106070000D01*
X132080000Y-113270000D02*
X129530000Y-110720000D01*
X129530000Y-106770000D02*
X130255000Y-106045000D01*
X132080000Y-115570000D02*
X132080000Y-113270000D01*
X129530000Y-110720000D02*
X129530000Y-106770000D01*
X130255000Y-106045000D02*
X132080000Y-106045000D01*
X175330000Y-134320000D02*
X174630000Y-133620000D01*
X174630000Y-133620000D02*
X174630000Y-131270000D01*
X167655000Y-134320000D02*
X167030000Y-133695000D01*
X167030000Y-133695000D02*
X167030000Y-131170000D01*
X162330000Y-134320000D02*
X162330000Y-131520000D01*
X162330000Y-131520000D02*
X162680000Y-131170000D01*
X170005000Y-134320000D02*
X170380000Y-134320000D01*
X170380000Y-134320000D02*
X170744999Y-134684999D01*
X170744999Y-134684999D02*
X170744999Y-135184001D01*
X170744999Y-135184001D02*
X171680999Y-136120001D01*
X171680999Y-136120001D02*
X173529999Y-136120001D01*
X173529999Y-136120001D02*
X175330000Y-134320000D01*
X175330000Y-134320000D02*
X177680000Y-134320000D01*
X162330000Y-134320000D02*
X162330000Y-134444002D01*
X162330000Y-134444002D02*
X164005999Y-136120001D01*
X167655000Y-134320000D02*
X170005000Y-134320000D01*
X164005999Y-136120001D02*
X165854999Y-136120001D01*
X165854999Y-136120001D02*
X167655000Y-134320000D01*
X128530000Y-132170000D02*
X129890000Y-130810000D01*
X129890000Y-130810000D02*
X132080000Y-130810000D01*
X128530000Y-134270000D02*
X128530000Y-132170000D01*
X130580000Y-136320000D02*
X128530000Y-134270000D01*
X147180000Y-136320000D02*
X130580000Y-136320000D01*
X149180000Y-134320000D02*
X147180000Y-136320000D01*
X162330000Y-134320000D02*
X149180000Y-134320000D01*
X166370000Y-82550000D02*
X171450000Y-77470000D01*
X171450000Y-77470000D02*
X179070000Y-77470000D01*
X163830000Y-82550000D02*
X166370000Y-82550000D01*
X133350000Y-66040000D02*
X132080000Y-66040000D01*
X134620000Y-67310000D02*
X133350000Y-66040000D01*
X132080000Y-81280000D02*
X134620000Y-81280000D01*
X134620000Y-81280000D02*
X137200000Y-81280000D01*
X134620000Y-81280000D02*
X134620000Y-67310000D01*
X134620000Y-130810000D02*
X134620000Y-115810000D01*
X134620000Y-115810000D02*
X134380000Y-115570000D01*
X134380000Y-115570000D02*
X132080000Y-115570000D01*
X132080000Y-130810000D02*
X134620000Y-130810000D01*
X134620000Y-130810000D02*
X137200000Y-130810000D01*
G04 #@! TO.N,Net-(A1-Pad27)*
X153780000Y-87120000D02*
X156210000Y-84690000D01*
X156210000Y-84690000D02*
X156210000Y-81280000D01*
X144780000Y-87120000D02*
X153780000Y-87120000D01*
X142430000Y-89470000D02*
X144780000Y-87120000D01*
X142430000Y-94666370D02*
X142430000Y-89470000D01*
X144780000Y-95885000D02*
X143648630Y-95885000D01*
X143648630Y-95885000D02*
X142430000Y-94666370D01*
X153280000Y-111520000D02*
X156200000Y-108600000D01*
X156200000Y-108600000D02*
X156200000Y-106050000D01*
X144930000Y-111520000D02*
X153280000Y-111520000D01*
X142530000Y-113920000D02*
X144930000Y-111520000D01*
X142530000Y-119531370D02*
X142530000Y-113920000D01*
X144780000Y-120650000D02*
X143648630Y-120650000D01*
X143648630Y-120650000D02*
X142530000Y-119531370D01*
X144780000Y-98425000D02*
X144780000Y-95885000D01*
X156200000Y-98790000D02*
X155835000Y-98425000D01*
X155835000Y-98425000D02*
X144780000Y-98425000D01*
X156200000Y-100970000D02*
X156200000Y-98790000D01*
X156200000Y-103510000D02*
X156200000Y-100970000D01*
X156200000Y-106050000D02*
X156200000Y-103510000D01*
X144780000Y-73660000D02*
X144780000Y-71120000D01*
X156210000Y-76200000D02*
X153670000Y-73660000D01*
X153670000Y-73660000D02*
X144780000Y-73660000D01*
X144780000Y-120650000D02*
X144780000Y-123190000D01*
X156210000Y-120650000D02*
X144780000Y-120650000D01*
X162560000Y-121920000D02*
X161430000Y-121920000D01*
X161630000Y-122120000D02*
X161630000Y-123740000D01*
X161430000Y-121920000D02*
X160020000Y-121920000D01*
X161430000Y-121920000D02*
X161630000Y-122120000D01*
X175230000Y-122090000D02*
X177830000Y-122090000D01*
X172720000Y-88900000D02*
X172720000Y-120270000D01*
X172720000Y-120270000D02*
X172720000Y-121920000D01*
X173410000Y-120270000D02*
X175230000Y-122090000D01*
X172720000Y-120270000D02*
X173410000Y-120270000D01*
X157480000Y-121920000D02*
X156210000Y-120650000D01*
X160020000Y-121920000D02*
X157480000Y-121920000D01*
X160020000Y-121920000D02*
X156210000Y-125730000D01*
X179070000Y-82550000D02*
X172720000Y-88900000D01*
X156210000Y-78740000D02*
X156210000Y-76200000D01*
X156210000Y-81280000D02*
X156210000Y-78740000D01*
X156210000Y-128270000D02*
X156210000Y-125730000D01*
X156210000Y-130810000D02*
X156210000Y-128270000D01*
G04 #@! TO.N,Net-(A2-Pad12)*
X144780000Y-76200000D02*
X148590000Y-76200000D01*
G04 #@! TO.N,Net-(A2-Pad11)*
X148590000Y-78740000D02*
X144780000Y-78740000D01*
G04 #@! TO.N,Net-(A2-Pad10)*
X144780000Y-81280000D02*
X148590000Y-81280000D01*
G04 #@! TO.N,Net-(A3-Pad10)*
X144780000Y-106045000D02*
X148575000Y-106045000D01*
X148575000Y-106045000D02*
X148580000Y-106050000D01*
G04 #@! TO.N,Net-(A3-Pad11)*
X144780000Y-103505000D02*
X148575000Y-103505000D01*
X148575000Y-103505000D02*
X148580000Y-103510000D01*
G04 #@! TO.N,Net-(A3-Pad12)*
X144780000Y-100965000D02*
X148575000Y-100965000D01*
X148575000Y-100965000D02*
X148580000Y-100970000D01*
G04 #@! TO.N,Net-(A4-Pad12)*
X144780000Y-125730000D02*
X148590000Y-125730000D01*
G04 #@! TO.N,Net-(A4-Pad11)*
X144780000Y-128270000D02*
X148590000Y-128270000D01*
G04 #@! TO.N,Net-(A4-Pad10)*
X144780000Y-130810000D02*
X148590000Y-130810000D01*
G04 #@! TO.N,Net-(A1-Pad6)*
X158750000Y-72390000D02*
X154940000Y-68580000D01*
X154940000Y-68580000D02*
X144780000Y-68580000D01*
X158750000Y-85090000D02*
X158750000Y-72390000D01*
X161290000Y-87630000D02*
X158750000Y-85090000D01*
X163830000Y-87630000D02*
X161290000Y-87630000D01*
G04 #@! TO.N,Net-(A1-Pad5)*
X156210000Y-66040000D02*
X144780000Y-66040000D01*
X161290000Y-71120000D02*
X156210000Y-66040000D01*
X161290000Y-83820000D02*
X161290000Y-71120000D01*
X162560000Y-85090000D02*
X161290000Y-83820000D01*
X163830000Y-85090000D02*
X162560000Y-85090000D01*
G04 #@! TO.N,Net-(A1-Pad7)*
X156345000Y-90805000D02*
X156980000Y-90170000D01*
X156980000Y-90170000D02*
X163830000Y-90170000D01*
X144780000Y-90805000D02*
X156345000Y-90805000D01*
G04 #@! TO.N,Net-(A1-Pad8)*
X157555000Y-93345000D02*
X158190000Y-92710000D01*
X158190000Y-92710000D02*
X163830000Y-92710000D01*
X144780000Y-93345000D02*
X157555000Y-93345000D01*
G04 #@! TO.N,Net-(A1-Pad10)*
X154940000Y-118110000D02*
X144780000Y-118110000D01*
X161290000Y-111760000D02*
X154940000Y-118110000D01*
X161290000Y-99060000D02*
X161290000Y-111760000D01*
X162560000Y-97790000D02*
X161290000Y-99060000D01*
X163830000Y-97790000D02*
X162560000Y-97790000D01*
G04 #@! TO.N,Net-(A1-Pad9)*
X158750000Y-110490000D02*
X153670000Y-115570000D01*
X153670000Y-115570000D02*
X144780000Y-115570000D01*
X158750000Y-96520000D02*
X158750000Y-110490000D01*
X160020000Y-95250000D02*
X158750000Y-96520000D01*
X163830000Y-95250000D02*
X160020000Y-95250000D01*
G04 #@! TO.N,Net-(A1-Pad24)*
X181930000Y-74120000D02*
X174470000Y-66660000D01*
X174470000Y-66660000D02*
X174470000Y-65120000D01*
X181930000Y-89620000D02*
X181930000Y-74120000D01*
X181380000Y-90170000D02*
X181930000Y-89620000D01*
X179070000Y-90170000D02*
X181380000Y-90170000D01*
G04 #@! TO.N,Net-(A1-Pad12)*
X177830000Y-127170000D02*
X177830000Y-130570000D01*
X177830000Y-130570000D02*
X177130000Y-131270000D01*
X179930000Y-124420000D02*
X177980000Y-124420000D01*
X177980000Y-124420000D02*
X172815823Y-124420000D01*
X177980000Y-124420000D02*
X177830000Y-124570000D01*
X177830000Y-124570000D02*
X177830000Y-127170000D01*
X170630000Y-122234177D02*
X170630000Y-107770000D01*
X170630000Y-107770000D02*
X165730000Y-102870000D01*
X165730000Y-102870000D02*
X163830000Y-102870000D01*
X172815823Y-124420000D02*
X170630000Y-122234177D01*
X180220000Y-124710000D02*
X179930000Y-124420000D01*
X180220000Y-134320000D02*
X180220000Y-124710000D01*
G04 #@! TO.N,Net-(A1-Pad13)*
X171280000Y-129870000D02*
X172545000Y-131135000D01*
X168080000Y-126670000D02*
X171280000Y-129870000D01*
X172545000Y-131135000D02*
X172545000Y-134320000D01*
X168080000Y-109070000D02*
X168080000Y-126670000D01*
X165219999Y-106209999D02*
X168080000Y-109070000D01*
X163830000Y-105410000D02*
X164629999Y-106209999D01*
X164629999Y-106209999D02*
X165219999Y-106209999D01*
X170830000Y-129870000D02*
X169530000Y-131170000D01*
X171280000Y-129870000D02*
X170830000Y-129870000D01*
X168580000Y-127170000D02*
X168080000Y-126670000D01*
X175230000Y-127170000D02*
X168580000Y-127170000D01*
G04 #@! TO.N,Net-(A1-Pad15)*
X160640051Y-128820000D02*
X160180000Y-129280051D01*
X160180000Y-129280051D02*
X160180000Y-131170000D01*
X161630000Y-128820000D02*
X160640051Y-128820000D01*
X164870000Y-112661370D02*
X164870000Y-128170000D01*
X164870000Y-128170000D02*
X164220000Y-128820000D01*
X164870000Y-128170000D02*
X164870000Y-134320000D01*
X164220000Y-128820000D02*
X161630000Y-128820000D01*
X163830000Y-110490000D02*
X163830000Y-111621370D01*
X163830000Y-111621370D02*
X164870000Y-112661370D01*
G04 #@! TD*
M02*
