G04 #@! TF.GenerationSoftware,KiCad,Pcbnew,5.0.0-rc2-dev-unknown-ccb668c~64~ubuntu18.04.1*
G04 #@! TF.CreationDate,2018-04-29T16:36:45+02:00*
G04 #@! TF.ProjectId,nano8825,6E616E6F383832352E6B696361645F70,rev?*
G04 #@! TF.SameCoordinates,Original*
G04 #@! TF.FileFunction,Soldermask,Top*
G04 #@! TF.FilePolarity,Negative*
%FSLAX46Y46*%
G04 Gerber Fmt 4.6, Leading zero omitted, Abs format (unit mm)*
G04 Created by KiCad (PCBNEW 5.0.0-rc2-dev-unknown-ccb668c~64~ubuntu18.04.1) date Sun Apr 29 16:36:45 2018*
%MOMM*%
%LPD*%
G01*
G04 APERTURE LIST*
%ADD10O,2.100000X2.100000*%
%ADD11R,2.100000X2.100000*%
%ADD12R,2.600000X2.600000*%
%ADD13C,2.600000*%
%ADD14C,2.000000*%
%ADD15C,1.800000*%
%ADD16O,1.800000X1.800000*%
%ADD17R,2.000000X2.000000*%
%ADD18O,2.000000X2.000000*%
%ADD19R,3.400000X3.400000*%
%ADD20C,3.400000*%
G04 APERTURE END LIST*
D10*
X99540000Y-57500000D03*
D11*
X97000000Y-57500000D03*
X102750000Y-126700000D03*
D10*
X105290000Y-126700000D03*
X97615000Y-126700000D03*
D11*
X95075000Y-126700000D03*
X87400000Y-126700000D03*
D10*
X89940000Y-126700000D03*
D12*
X47600000Y-113030000D03*
D13*
X47600000Y-115570000D03*
X47600000Y-118110000D03*
X47600000Y-120650000D03*
X47950000Y-71150000D03*
X47950000Y-68610000D03*
X47950000Y-66070000D03*
D12*
X47950000Y-63530000D03*
X47200000Y-88280000D03*
D13*
X47200000Y-90820000D03*
X47200000Y-93360000D03*
X47200000Y-95900000D03*
D14*
X85250000Y-123550000D03*
X87750000Y-123550000D03*
X92100000Y-123550000D03*
X94600000Y-123550000D03*
X102200000Y-123650000D03*
X99700000Y-123650000D03*
D15*
X86700000Y-116120000D03*
D16*
X86700000Y-121200000D03*
X100300000Y-119550000D03*
D15*
X100300000Y-114470000D03*
X102900000Y-114470000D03*
D16*
X102900000Y-119550000D03*
D17*
X64770000Y-123190000D03*
D14*
X62270000Y-123190000D03*
D17*
X64770000Y-73660000D03*
D14*
X62270000Y-73660000D03*
X62150000Y-98450000D03*
D17*
X64650000Y-98450000D03*
X88900000Y-67310000D03*
D18*
X104140000Y-100330000D03*
X88900000Y-69850000D03*
X104140000Y-97790000D03*
X88900000Y-72390000D03*
X104140000Y-95250000D03*
X88900000Y-74930000D03*
X104140000Y-92710000D03*
X88900000Y-77470000D03*
X104140000Y-90170000D03*
X88900000Y-80010000D03*
X104140000Y-87630000D03*
X88900000Y-82550000D03*
X104140000Y-85090000D03*
X88900000Y-85090000D03*
X104140000Y-82550000D03*
X88900000Y-87630000D03*
X104140000Y-80010000D03*
X88900000Y-90170000D03*
X104140000Y-77470000D03*
X88900000Y-92710000D03*
X104140000Y-74930000D03*
X88900000Y-95250000D03*
X104140000Y-72390000D03*
X88900000Y-97790000D03*
X104140000Y-69850000D03*
X88900000Y-100330000D03*
X104140000Y-67310000D03*
X88900000Y-102870000D03*
X104140000Y-102870000D03*
D17*
X57150000Y-107950000D03*
D18*
X69850000Y-125730000D03*
X57150000Y-110490000D03*
X69850000Y-123190000D03*
X57150000Y-113030000D03*
X69850000Y-120650000D03*
X57150000Y-115570000D03*
X69850000Y-118110000D03*
X57150000Y-118110000D03*
X69850000Y-115570000D03*
X57150000Y-120650000D03*
X69850000Y-113030000D03*
X57150000Y-123190000D03*
X69850000Y-110490000D03*
X57150000Y-125730000D03*
X69850000Y-107950000D03*
X69850000Y-83185000D03*
X57150000Y-100965000D03*
X69850000Y-85725000D03*
X57150000Y-98425000D03*
X69850000Y-88265000D03*
X57150000Y-95885000D03*
X69850000Y-90805000D03*
X57150000Y-93345000D03*
X69850000Y-93345000D03*
X57150000Y-90805000D03*
X69850000Y-95885000D03*
X57150000Y-88265000D03*
X69850000Y-98425000D03*
X57150000Y-85725000D03*
X69850000Y-100965000D03*
D17*
X57150000Y-83185000D03*
X57150000Y-58420000D03*
D18*
X69850000Y-76200000D03*
X57150000Y-60960000D03*
X69850000Y-73660000D03*
X57150000Y-63500000D03*
X69850000Y-71120000D03*
X57150000Y-66040000D03*
X69850000Y-68580000D03*
X57150000Y-68580000D03*
X69850000Y-66040000D03*
X57150000Y-71120000D03*
X69850000Y-63500000D03*
X57150000Y-73660000D03*
X69850000Y-60960000D03*
X57150000Y-76200000D03*
X69850000Y-58420000D03*
D17*
X81280000Y-123190000D03*
D18*
X73660000Y-118110000D03*
X81280000Y-120650000D03*
X73660000Y-120650000D03*
X81280000Y-118110000D03*
X73660000Y-123190000D03*
X73650000Y-98430000D03*
X81270000Y-93350000D03*
X73650000Y-95890000D03*
X81270000Y-95890000D03*
X73650000Y-93350000D03*
D17*
X81270000Y-98430000D03*
X81280000Y-73660000D03*
D18*
X73660000Y-68580000D03*
X81280000Y-71120000D03*
X73660000Y-71120000D03*
X81280000Y-68580000D03*
X73660000Y-73660000D03*
D19*
X51050000Y-54800000D03*
D20*
X45970000Y-54800000D03*
M02*
