G04 #@! TF.GenerationSoftware,KiCad,Pcbnew,5.0.0-rc2-be01b52~65~ubuntu18.04.1*
G04 #@! TF.CreationDate,2018-05-25T18:16:16+02:00*
G04 #@! TF.ProjectId,nano8825,6E616E6F383832352E6B696361645F70,rev?*
G04 #@! TF.SameCoordinates,Original*
G04 #@! TF.FileFunction,Legend,Top*
G04 #@! TF.FilePolarity,Positive*
%FSLAX46Y46*%
G04 Gerber Fmt 4.6, Leading zero omitted, Abs format (unit mm)*
G04 Created by KiCad (PCBNEW 5.0.0-rc2-be01b52~65~ubuntu18.04.1) date Fri May 25 18:16:16 2018*
%MOMM*%
%LPD*%
G01*
G04 APERTURE LIST*
%ADD10C,0.300000*%
%ADD11C,0.200000*%
%ADD12C,0.120000*%
%ADD13C,0.150000*%
G04 APERTURE END LIST*
D10*
X170572857Y-62798571D02*
X170572857Y-61298571D01*
X171144285Y-61298571D01*
X171287142Y-61370000D01*
X171358571Y-61441428D01*
X171430000Y-61584285D01*
X171430000Y-61798571D01*
X171358571Y-61941428D01*
X171287142Y-62012857D01*
X171144285Y-62084285D01*
X170572857Y-62084285D01*
X172072857Y-62798571D02*
X172072857Y-61798571D01*
X172072857Y-62084285D02*
X172144285Y-61941428D01*
X172215714Y-61870000D01*
X172358571Y-61798571D01*
X172501428Y-61798571D01*
X173215714Y-62798571D02*
X173072857Y-62727142D01*
X173001428Y-62655714D01*
X172930000Y-62512857D01*
X172930000Y-62084285D01*
X173001428Y-61941428D01*
X173072857Y-61870000D01*
X173215714Y-61798571D01*
X173430000Y-61798571D01*
X173572857Y-61870000D01*
X173644285Y-61941428D01*
X173715714Y-62084285D01*
X173715714Y-62512857D01*
X173644285Y-62655714D01*
X173572857Y-62727142D01*
X173430000Y-62798571D01*
X173215714Y-62798571D01*
X174358571Y-62798571D02*
X174358571Y-61298571D01*
X174358571Y-61870000D02*
X174501428Y-61798571D01*
X174787142Y-61798571D01*
X174930000Y-61870000D01*
X175001428Y-61941428D01*
X175072857Y-62084285D01*
X175072857Y-62512857D01*
X175001428Y-62655714D01*
X174930000Y-62727142D01*
X174787142Y-62798571D01*
X174501428Y-62798571D01*
X174358571Y-62727142D01*
X176287142Y-62727142D02*
X176144285Y-62798571D01*
X175858571Y-62798571D01*
X175715714Y-62727142D01*
X175644285Y-62584285D01*
X175644285Y-62012857D01*
X175715714Y-61870000D01*
X175858571Y-61798571D01*
X176144285Y-61798571D01*
X176287142Y-61870000D01*
X176358571Y-62012857D01*
X176358571Y-62155714D01*
X175644285Y-62298571D01*
D11*
X173330000Y-116620000D02*
X168580000Y-116620000D01*
X173280000Y-119120000D02*
X173330000Y-116620000D01*
X168630000Y-119120000D02*
X173280000Y-119120000D01*
X168580000Y-116620000D02*
X168630000Y-119120000D01*
D10*
X178530000Y-136373571D02*
X179530000Y-136373571D01*
X178530000Y-137873571D01*
X179530000Y-137873571D01*
X177351428Y-140423571D02*
X176637142Y-140423571D01*
X176637142Y-138923571D01*
X177851428Y-140423571D02*
X177851428Y-138923571D01*
X178565714Y-140423571D02*
X178565714Y-138923571D01*
X179065714Y-139995000D01*
X179565714Y-138923571D01*
X179565714Y-140423571D01*
X180280000Y-140423571D02*
X180280000Y-138923571D01*
X180780000Y-138923571D02*
X181637142Y-138923571D01*
X181208571Y-140423571D02*
X181208571Y-138923571D01*
X171480000Y-137159285D02*
X171480000Y-137873571D01*
X170980000Y-136373571D02*
X171480000Y-137159285D01*
X171980000Y-136373571D01*
X169801428Y-140423571D02*
X169087142Y-140423571D01*
X169087142Y-138923571D01*
X170301428Y-140423571D02*
X170301428Y-138923571D01*
X171015714Y-140423571D02*
X171015714Y-138923571D01*
X171515714Y-139995000D01*
X172015714Y-138923571D01*
X172015714Y-140423571D01*
X172730000Y-140423571D02*
X172730000Y-138923571D01*
X173230000Y-138923571D02*
X174087142Y-138923571D01*
X173658571Y-140423571D02*
X173658571Y-138923571D01*
X162980000Y-136523571D02*
X163980000Y-138023571D01*
X163980000Y-136523571D02*
X162980000Y-138023571D01*
X161801428Y-140573571D02*
X161087142Y-140573571D01*
X161087142Y-139073571D01*
X162301428Y-140573571D02*
X162301428Y-139073571D01*
X163015714Y-140573571D02*
X163015714Y-139073571D01*
X163515714Y-140145000D01*
X164015714Y-139073571D01*
X164015714Y-140573571D01*
X164730000Y-140573571D02*
X164730000Y-139073571D01*
X165230000Y-139073571D02*
X166087142Y-139073571D01*
X165658571Y-140573571D02*
X165658571Y-139073571D01*
X126233571Y-135284285D02*
X127733571Y-134784285D01*
X126233571Y-134284285D01*
X127733571Y-133784285D02*
X126233571Y-133784285D01*
X127305000Y-133284285D01*
X126233571Y-132784285D01*
X127733571Y-132784285D01*
X126233571Y-131784285D02*
X126233571Y-131498571D01*
X126305000Y-131355714D01*
X126447857Y-131212857D01*
X126733571Y-131141428D01*
X127233571Y-131141428D01*
X127519285Y-131212857D01*
X127662142Y-131355714D01*
X127733571Y-131498571D01*
X127733571Y-131784285D01*
X127662142Y-131927142D01*
X127519285Y-132070000D01*
X127233571Y-132141428D01*
X126733571Y-132141428D01*
X126447857Y-132070000D01*
X126305000Y-131927142D01*
X126233571Y-131784285D01*
X126233571Y-130712857D02*
X126233571Y-129855714D01*
X127733571Y-130284285D02*
X126233571Y-130284285D01*
X129712142Y-134641428D02*
X129712142Y-133498571D01*
X130283571Y-134070000D02*
X129140714Y-134070000D01*
X129712142Y-131641428D02*
X129712142Y-130498571D01*
X126283571Y-110434285D02*
X127783571Y-109934285D01*
X126283571Y-109434285D01*
X127783571Y-108934285D02*
X126283571Y-108934285D01*
X127355000Y-108434285D01*
X126283571Y-107934285D01*
X127783571Y-107934285D01*
X126283571Y-106934285D02*
X126283571Y-106648571D01*
X126355000Y-106505714D01*
X126497857Y-106362857D01*
X126783571Y-106291428D01*
X127283571Y-106291428D01*
X127569285Y-106362857D01*
X127712142Y-106505714D01*
X127783571Y-106648571D01*
X127783571Y-106934285D01*
X127712142Y-107077142D01*
X127569285Y-107220000D01*
X127283571Y-107291428D01*
X126783571Y-107291428D01*
X126497857Y-107220000D01*
X126355000Y-107077142D01*
X126283571Y-106934285D01*
X126283571Y-105862857D02*
X126283571Y-105005714D01*
X127783571Y-105434285D02*
X126283571Y-105434285D01*
X129762142Y-109791428D02*
X129762142Y-108648571D01*
X130333571Y-109220000D02*
X129190714Y-109220000D01*
X129762142Y-106791428D02*
X129762142Y-105648571D01*
X125783571Y-85984285D02*
X127283571Y-85484285D01*
X125783571Y-84984285D01*
X127283571Y-84484285D02*
X125783571Y-84484285D01*
X126855000Y-83984285D01*
X125783571Y-83484285D01*
X127283571Y-83484285D01*
X125783571Y-82484285D02*
X125783571Y-82198571D01*
X125855000Y-82055714D01*
X125997857Y-81912857D01*
X126283571Y-81841428D01*
X126783571Y-81841428D01*
X127069285Y-81912857D01*
X127212142Y-82055714D01*
X127283571Y-82198571D01*
X127283571Y-82484285D01*
X127212142Y-82627142D01*
X127069285Y-82770000D01*
X126783571Y-82841428D01*
X126283571Y-82841428D01*
X125997857Y-82770000D01*
X125855000Y-82627142D01*
X125783571Y-82484285D01*
X125783571Y-81412857D02*
X125783571Y-80555714D01*
X127283571Y-80984285D02*
X125783571Y-80984285D01*
X129262142Y-85341428D02*
X129262142Y-84198571D01*
X129833571Y-84770000D02*
X128690714Y-84770000D01*
X129262142Y-82341428D02*
X129262142Y-81198571D01*
X159058571Y-132627142D02*
X157558571Y-132627142D01*
X158630000Y-132127142D01*
X157558571Y-131627142D01*
X159058571Y-131627142D01*
X157558571Y-130627142D02*
X157558571Y-130484285D01*
X157630000Y-130341428D01*
X157701428Y-130270000D01*
X157844285Y-130198571D01*
X158130000Y-130127142D01*
X158487142Y-130127142D01*
X158772857Y-130198571D01*
X158915714Y-130270000D01*
X158987142Y-130341428D01*
X159058571Y-130484285D01*
X159058571Y-130627142D01*
X158987142Y-130770000D01*
X158915714Y-130841428D01*
X158772857Y-130912857D01*
X158487142Y-130984285D01*
X158130000Y-130984285D01*
X157844285Y-130912857D01*
X157701428Y-130841428D01*
X157630000Y-130770000D01*
X157558571Y-130627142D01*
X159058571Y-129484285D02*
X157558571Y-129484285D01*
X158630000Y-128984285D01*
X157558571Y-128484285D01*
X159058571Y-128484285D01*
X159058571Y-126984285D02*
X159058571Y-127841428D01*
X159058571Y-127412857D02*
X157558571Y-127412857D01*
X157772857Y-127555714D01*
X157915714Y-127698571D01*
X157987142Y-127841428D01*
X159058571Y-126341428D02*
X157558571Y-126341428D01*
X158630000Y-125841428D01*
X157558571Y-125341428D01*
X159058571Y-125341428D01*
X157701428Y-124698571D02*
X157630000Y-124627142D01*
X157558571Y-124484285D01*
X157558571Y-124127142D01*
X157630000Y-123984285D01*
X157701428Y-123912857D01*
X157844285Y-123841428D01*
X157987142Y-123841428D01*
X158201428Y-123912857D01*
X159058571Y-124770000D01*
X159058571Y-123841428D01*
X159558571Y-107877142D02*
X158058571Y-107877142D01*
X159130000Y-107377142D01*
X158058571Y-106877142D01*
X159558571Y-106877142D01*
X158058571Y-105877142D02*
X158058571Y-105734285D01*
X158130000Y-105591428D01*
X158201428Y-105520000D01*
X158344285Y-105448571D01*
X158630000Y-105377142D01*
X158987142Y-105377142D01*
X159272857Y-105448571D01*
X159415714Y-105520000D01*
X159487142Y-105591428D01*
X159558571Y-105734285D01*
X159558571Y-105877142D01*
X159487142Y-106020000D01*
X159415714Y-106091428D01*
X159272857Y-106162857D01*
X158987142Y-106234285D01*
X158630000Y-106234285D01*
X158344285Y-106162857D01*
X158201428Y-106091428D01*
X158130000Y-106020000D01*
X158058571Y-105877142D01*
X159558571Y-104734285D02*
X158058571Y-104734285D01*
X159130000Y-104234285D01*
X158058571Y-103734285D01*
X159558571Y-103734285D01*
X159558571Y-102234285D02*
X159558571Y-103091428D01*
X159558571Y-102662857D02*
X158058571Y-102662857D01*
X158272857Y-102805714D01*
X158415714Y-102948571D01*
X158487142Y-103091428D01*
X159558571Y-101591428D02*
X158058571Y-101591428D01*
X159130000Y-101091428D01*
X158058571Y-100591428D01*
X159558571Y-100591428D01*
X158201428Y-99948571D02*
X158130000Y-99877142D01*
X158058571Y-99734285D01*
X158058571Y-99377142D01*
X158130000Y-99234285D01*
X158201428Y-99162857D01*
X158344285Y-99091428D01*
X158487142Y-99091428D01*
X158701428Y-99162857D01*
X159558571Y-100020000D01*
X159558571Y-99091428D01*
X159558571Y-83677142D02*
X158058571Y-83677142D01*
X159130000Y-83177142D01*
X158058571Y-82677142D01*
X159558571Y-82677142D01*
X158058571Y-81677142D02*
X158058571Y-81534285D01*
X158130000Y-81391428D01*
X158201428Y-81320000D01*
X158344285Y-81248571D01*
X158630000Y-81177142D01*
X158987142Y-81177142D01*
X159272857Y-81248571D01*
X159415714Y-81320000D01*
X159487142Y-81391428D01*
X159558571Y-81534285D01*
X159558571Y-81677142D01*
X159487142Y-81820000D01*
X159415714Y-81891428D01*
X159272857Y-81962857D01*
X158987142Y-82034285D01*
X158630000Y-82034285D01*
X158344285Y-81962857D01*
X158201428Y-81891428D01*
X158130000Y-81820000D01*
X158058571Y-81677142D01*
X159558571Y-80534285D02*
X158058571Y-80534285D01*
X159130000Y-80034285D01*
X158058571Y-79534285D01*
X159558571Y-79534285D01*
X159558571Y-78034285D02*
X159558571Y-78891428D01*
X159558571Y-78462857D02*
X158058571Y-78462857D01*
X158272857Y-78605714D01*
X158415714Y-78748571D01*
X158487142Y-78891428D01*
X159558571Y-77391428D02*
X158058571Y-77391428D01*
X159130000Y-76891428D01*
X158058571Y-76391428D01*
X159558571Y-76391428D01*
X158201428Y-75748571D02*
X158130000Y-75677142D01*
X158058571Y-75534285D01*
X158058571Y-75177142D01*
X158130000Y-75034285D01*
X158201428Y-74962857D01*
X158344285Y-74891428D01*
X158487142Y-74891428D01*
X158701428Y-74962857D01*
X159558571Y-75820000D01*
X159558571Y-74891428D01*
X113733571Y-124870000D02*
X113733571Y-123870000D01*
X115233571Y-124870000D01*
X115233571Y-123870000D01*
X117355000Y-130584285D02*
X117355000Y-129870000D01*
X117783571Y-130727142D02*
X116283571Y-130227142D01*
X117783571Y-129727142D01*
X117212142Y-129227142D02*
X117212142Y-128084285D01*
X117783571Y-128655714D02*
X116640714Y-128655714D01*
X117355000Y-127441428D02*
X117355000Y-126727142D01*
X117783571Y-127584285D02*
X116283571Y-127084285D01*
X117783571Y-126584285D01*
X117212142Y-126084285D02*
X117212142Y-124941428D01*
X116997857Y-123727142D02*
X117069285Y-123512857D01*
X117140714Y-123441428D01*
X117283571Y-123370000D01*
X117497857Y-123370000D01*
X117640714Y-123441428D01*
X117712142Y-123512857D01*
X117783571Y-123655714D01*
X117783571Y-124227142D01*
X116283571Y-124227142D01*
X116283571Y-123727142D01*
X116355000Y-123584285D01*
X116426428Y-123512857D01*
X116569285Y-123441428D01*
X116712142Y-123441428D01*
X116855000Y-123512857D01*
X116926428Y-123584285D01*
X116997857Y-123727142D01*
X116997857Y-124227142D01*
X117212142Y-122727142D02*
X117212142Y-121584285D01*
X117783571Y-122155714D02*
X116640714Y-122155714D01*
X116997857Y-120370000D02*
X117069285Y-120155714D01*
X117140714Y-120084285D01*
X117283571Y-120012857D01*
X117497857Y-120012857D01*
X117640714Y-120084285D01*
X117712142Y-120155714D01*
X117783571Y-120298571D01*
X117783571Y-120870000D01*
X116283571Y-120870000D01*
X116283571Y-120370000D01*
X116355000Y-120227142D01*
X116426428Y-120155714D01*
X116569285Y-120084285D01*
X116712142Y-120084285D01*
X116855000Y-120155714D01*
X116926428Y-120227142D01*
X116997857Y-120370000D01*
X116997857Y-120870000D01*
X117212142Y-119370000D02*
X117212142Y-118227142D01*
X114259285Y-99420000D02*
X114973571Y-99420000D01*
X113473571Y-99920000D02*
X114259285Y-99420000D01*
X113473571Y-98920000D01*
X117095000Y-105634285D02*
X117095000Y-104920000D01*
X117523571Y-105777142D02*
X116023571Y-105277142D01*
X117523571Y-104777142D01*
X116952142Y-104277142D02*
X116952142Y-103134285D01*
X117523571Y-103705714D02*
X116380714Y-103705714D01*
X117095000Y-102491428D02*
X117095000Y-101777142D01*
X117523571Y-102634285D02*
X116023571Y-102134285D01*
X117523571Y-101634285D01*
X116952142Y-101134285D02*
X116952142Y-99991428D01*
X116737857Y-98777142D02*
X116809285Y-98562857D01*
X116880714Y-98491428D01*
X117023571Y-98420000D01*
X117237857Y-98420000D01*
X117380714Y-98491428D01*
X117452142Y-98562857D01*
X117523571Y-98705714D01*
X117523571Y-99277142D01*
X116023571Y-99277142D01*
X116023571Y-98777142D01*
X116095000Y-98634285D01*
X116166428Y-98562857D01*
X116309285Y-98491428D01*
X116452142Y-98491428D01*
X116595000Y-98562857D01*
X116666428Y-98634285D01*
X116737857Y-98777142D01*
X116737857Y-99277142D01*
X116952142Y-97777142D02*
X116952142Y-96634285D01*
X117523571Y-97205714D02*
X116380714Y-97205714D01*
X116737857Y-95420000D02*
X116809285Y-95205714D01*
X116880714Y-95134285D01*
X117023571Y-95062857D01*
X117237857Y-95062857D01*
X117380714Y-95134285D01*
X117452142Y-95205714D01*
X117523571Y-95348571D01*
X117523571Y-95920000D01*
X116023571Y-95920000D01*
X116023571Y-95420000D01*
X116095000Y-95277142D01*
X116166428Y-95205714D01*
X116309285Y-95134285D01*
X116452142Y-95134285D01*
X116595000Y-95205714D01*
X116666428Y-95277142D01*
X116737857Y-95420000D01*
X116737857Y-95920000D01*
X116952142Y-94420000D02*
X116952142Y-93277142D01*
X114333571Y-75270000D02*
X115833571Y-74270000D01*
X114333571Y-74270000D02*
X115833571Y-75270000D01*
X117955000Y-80984285D02*
X117955000Y-80270000D01*
X118383571Y-81127142D02*
X116883571Y-80627142D01*
X118383571Y-80127142D01*
X117812142Y-79627142D02*
X117812142Y-78484285D01*
X118383571Y-79055714D02*
X117240714Y-79055714D01*
X117955000Y-77841428D02*
X117955000Y-77127142D01*
X118383571Y-77984285D02*
X116883571Y-77484285D01*
X118383571Y-76984285D01*
X117812142Y-76484285D02*
X117812142Y-75341428D01*
X117597857Y-74127142D02*
X117669285Y-73912857D01*
X117740714Y-73841428D01*
X117883571Y-73770000D01*
X118097857Y-73770000D01*
X118240714Y-73841428D01*
X118312142Y-73912857D01*
X118383571Y-74055714D01*
X118383571Y-74627142D01*
X116883571Y-74627142D01*
X116883571Y-74127142D01*
X116955000Y-73984285D01*
X117026428Y-73912857D01*
X117169285Y-73841428D01*
X117312142Y-73841428D01*
X117455000Y-73912857D01*
X117526428Y-73984285D01*
X117597857Y-74127142D01*
X117597857Y-74627142D01*
X117812142Y-73127142D02*
X117812142Y-71984285D01*
X118383571Y-72555714D02*
X117240714Y-72555714D01*
X117597857Y-70770000D02*
X117669285Y-70555714D01*
X117740714Y-70484285D01*
X117883571Y-70412857D01*
X118097857Y-70412857D01*
X118240714Y-70484285D01*
X118312142Y-70555714D01*
X118383571Y-70698571D01*
X118383571Y-71270000D01*
X116883571Y-71270000D01*
X116883571Y-70770000D01*
X116955000Y-70627142D01*
X117026428Y-70555714D01*
X117169285Y-70484285D01*
X117312142Y-70484285D01*
X117455000Y-70555714D01*
X117526428Y-70627142D01*
X117597857Y-70770000D01*
X117597857Y-71270000D01*
X117812142Y-69770000D02*
X117812142Y-68627142D01*
X169037142Y-117198571D02*
X169037142Y-118412857D01*
X169108571Y-118555714D01*
X169180000Y-118627142D01*
X169322857Y-118698571D01*
X169608571Y-118698571D01*
X169751428Y-118627142D01*
X169822857Y-118555714D01*
X169894285Y-118412857D01*
X169894285Y-117198571D01*
X170537142Y-118627142D02*
X170751428Y-118698571D01*
X171108571Y-118698571D01*
X171251428Y-118627142D01*
X171322857Y-118555714D01*
X171394285Y-118412857D01*
X171394285Y-118270000D01*
X171322857Y-118127142D01*
X171251428Y-118055714D01*
X171108571Y-117984285D01*
X170822857Y-117912857D01*
X170680000Y-117841428D01*
X170608571Y-117770000D01*
X170537142Y-117627142D01*
X170537142Y-117484285D01*
X170608571Y-117341428D01*
X170680000Y-117270000D01*
X170822857Y-117198571D01*
X171180000Y-117198571D01*
X171394285Y-117270000D01*
X172537142Y-117912857D02*
X172751428Y-117984285D01*
X172822857Y-118055714D01*
X172894285Y-118198571D01*
X172894285Y-118412857D01*
X172822857Y-118555714D01*
X172751428Y-118627142D01*
X172608571Y-118698571D01*
X172037142Y-118698571D01*
X172037142Y-117198571D01*
X172537142Y-117198571D01*
X172680000Y-117270000D01*
X172751428Y-117341428D01*
X172822857Y-117484285D01*
X172822857Y-117627142D01*
X172751428Y-117770000D01*
X172680000Y-117841428D01*
X172537142Y-117912857D01*
X172037142Y-117912857D01*
X119072857Y-57227142D02*
X120215714Y-57227142D01*
X120715714Y-56298571D02*
X121215714Y-57798571D01*
X121715714Y-56298571D01*
X122215714Y-57798571D02*
X122215714Y-56298571D01*
X122715714Y-57370000D01*
X123215714Y-56298571D01*
X123215714Y-57798571D01*
X124215714Y-56298571D02*
X124501428Y-56298571D01*
X124644285Y-56370000D01*
X124787142Y-56512857D01*
X124858571Y-56798571D01*
X124858571Y-57298571D01*
X124787142Y-57584285D01*
X124644285Y-57727142D01*
X124501428Y-57798571D01*
X124215714Y-57798571D01*
X124072857Y-57727142D01*
X123930000Y-57584285D01*
X123858571Y-57298571D01*
X123858571Y-56798571D01*
X123930000Y-56512857D01*
X124072857Y-56370000D01*
X124215714Y-56298571D01*
X125287142Y-56298571D02*
X126144285Y-56298571D01*
X125715714Y-57798571D02*
X125715714Y-56298571D01*
X126644285Y-57227142D02*
X127787142Y-57227142D01*
X127215714Y-57798571D02*
X127215714Y-56655714D01*
D12*
G04 #@! TO.C,SW3*
X155810000Y-132920000D02*
X148989000Y-132920000D01*
X155810000Y-123620000D02*
X148989000Y-123620000D01*
X155810000Y-132920000D02*
X155810000Y-131850000D01*
X155810000Y-129770000D02*
X155810000Y-129259000D01*
X155810000Y-127280000D02*
X155810000Y-126719000D01*
X155810000Y-124740000D02*
X155810000Y-123620000D01*
X148989000Y-124740000D02*
X148989000Y-123620000D01*
X148989000Y-127280000D02*
X148989000Y-126719000D01*
X148989000Y-132920000D02*
X148989000Y-131800000D01*
X148989000Y-129820000D02*
X148989000Y-129259000D01*
X156050000Y-133160000D02*
X154667000Y-133160000D01*
X156050000Y-133160000D02*
X156050000Y-131850000D01*
X154210000Y-131445000D02*
X154210000Y-130175000D01*
X154210000Y-130175000D02*
X150590000Y-130175000D01*
X150590000Y-130175000D02*
X150590000Y-131445000D01*
X150590000Y-131445000D02*
X154210000Y-131445000D01*
X154210000Y-131325000D02*
X153003333Y-131325000D01*
X154210000Y-131205000D02*
X153003333Y-131205000D01*
X154210000Y-131085000D02*
X153003333Y-131085000D01*
X154210000Y-130965000D02*
X153003333Y-130965000D01*
X154210000Y-130845000D02*
X153003333Y-130845000D01*
X154210000Y-130725000D02*
X153003333Y-130725000D01*
X154210000Y-130605000D02*
X153003333Y-130605000D01*
X154210000Y-130485000D02*
X153003333Y-130485000D01*
X154210000Y-130365000D02*
X153003333Y-130365000D01*
X154210000Y-130245000D02*
X153003333Y-130245000D01*
X153003333Y-131445000D02*
X153003333Y-130175000D01*
X154210000Y-128905000D02*
X154210000Y-127635000D01*
X154210000Y-127635000D02*
X150590000Y-127635000D01*
X150590000Y-127635000D02*
X150590000Y-128905000D01*
X150590000Y-128905000D02*
X154210000Y-128905000D01*
X154210000Y-128785000D02*
X153003333Y-128785000D01*
X154210000Y-128665000D02*
X153003333Y-128665000D01*
X154210000Y-128545000D02*
X153003333Y-128545000D01*
X154210000Y-128425000D02*
X153003333Y-128425000D01*
X154210000Y-128305000D02*
X153003333Y-128305000D01*
X154210000Y-128185000D02*
X153003333Y-128185000D01*
X154210000Y-128065000D02*
X153003333Y-128065000D01*
X154210000Y-127945000D02*
X153003333Y-127945000D01*
X154210000Y-127825000D02*
X153003333Y-127825000D01*
X154210000Y-127705000D02*
X153003333Y-127705000D01*
X153003333Y-128905000D02*
X153003333Y-127635000D01*
X154210000Y-126365000D02*
X154210000Y-125095000D01*
X154210000Y-125095000D02*
X150590000Y-125095000D01*
X150590000Y-125095000D02*
X150590000Y-126365000D01*
X150590000Y-126365000D02*
X154210000Y-126365000D01*
X154210000Y-126245000D02*
X153003333Y-126245000D01*
X154210000Y-126125000D02*
X153003333Y-126125000D01*
X154210000Y-126005000D02*
X153003333Y-126005000D01*
X154210000Y-125885000D02*
X153003333Y-125885000D01*
X154210000Y-125765000D02*
X153003333Y-125765000D01*
X154210000Y-125645000D02*
X153003333Y-125645000D01*
X154210000Y-125525000D02*
X153003333Y-125525000D01*
X154210000Y-125405000D02*
X153003333Y-125405000D01*
X154210000Y-125285000D02*
X153003333Y-125285000D01*
X154210000Y-125165000D02*
X153003333Y-125165000D01*
X153003333Y-126365000D02*
X153003333Y-125095000D01*
G04 #@! TO.C,SW2*
X152993333Y-101605000D02*
X152993333Y-100335000D01*
X154200000Y-100405000D02*
X152993333Y-100405000D01*
X154200000Y-100525000D02*
X152993333Y-100525000D01*
X154200000Y-100645000D02*
X152993333Y-100645000D01*
X154200000Y-100765000D02*
X152993333Y-100765000D01*
X154200000Y-100885000D02*
X152993333Y-100885000D01*
X154200000Y-101005000D02*
X152993333Y-101005000D01*
X154200000Y-101125000D02*
X152993333Y-101125000D01*
X154200000Y-101245000D02*
X152993333Y-101245000D01*
X154200000Y-101365000D02*
X152993333Y-101365000D01*
X154200000Y-101485000D02*
X152993333Y-101485000D01*
X150580000Y-101605000D02*
X154200000Y-101605000D01*
X150580000Y-100335000D02*
X150580000Y-101605000D01*
X154200000Y-100335000D02*
X150580000Y-100335000D01*
X154200000Y-101605000D02*
X154200000Y-100335000D01*
X152993333Y-104145000D02*
X152993333Y-102875000D01*
X154200000Y-102945000D02*
X152993333Y-102945000D01*
X154200000Y-103065000D02*
X152993333Y-103065000D01*
X154200000Y-103185000D02*
X152993333Y-103185000D01*
X154200000Y-103305000D02*
X152993333Y-103305000D01*
X154200000Y-103425000D02*
X152993333Y-103425000D01*
X154200000Y-103545000D02*
X152993333Y-103545000D01*
X154200000Y-103665000D02*
X152993333Y-103665000D01*
X154200000Y-103785000D02*
X152993333Y-103785000D01*
X154200000Y-103905000D02*
X152993333Y-103905000D01*
X154200000Y-104025000D02*
X152993333Y-104025000D01*
X150580000Y-104145000D02*
X154200000Y-104145000D01*
X150580000Y-102875000D02*
X150580000Y-104145000D01*
X154200000Y-102875000D02*
X150580000Y-102875000D01*
X154200000Y-104145000D02*
X154200000Y-102875000D01*
X152993333Y-106685000D02*
X152993333Y-105415000D01*
X154200000Y-105485000D02*
X152993333Y-105485000D01*
X154200000Y-105605000D02*
X152993333Y-105605000D01*
X154200000Y-105725000D02*
X152993333Y-105725000D01*
X154200000Y-105845000D02*
X152993333Y-105845000D01*
X154200000Y-105965000D02*
X152993333Y-105965000D01*
X154200000Y-106085000D02*
X152993333Y-106085000D01*
X154200000Y-106205000D02*
X152993333Y-106205000D01*
X154200000Y-106325000D02*
X152993333Y-106325000D01*
X154200000Y-106445000D02*
X152993333Y-106445000D01*
X154200000Y-106565000D02*
X152993333Y-106565000D01*
X150580000Y-106685000D02*
X154200000Y-106685000D01*
X150580000Y-105415000D02*
X150580000Y-106685000D01*
X154200000Y-105415000D02*
X150580000Y-105415000D01*
X154200000Y-106685000D02*
X154200000Y-105415000D01*
X156040000Y-108400000D02*
X156040000Y-107090000D01*
X156040000Y-108400000D02*
X154657000Y-108400000D01*
X148979000Y-105060000D02*
X148979000Y-104499000D01*
X148979000Y-108160000D02*
X148979000Y-107040000D01*
X148979000Y-102520000D02*
X148979000Y-101959000D01*
X148979000Y-99980000D02*
X148979000Y-98860000D01*
X155800000Y-99980000D02*
X155800000Y-98860000D01*
X155800000Y-102520000D02*
X155800000Y-101959000D01*
X155800000Y-105010000D02*
X155800000Y-104499000D01*
X155800000Y-108160000D02*
X155800000Y-107090000D01*
X155800000Y-98860000D02*
X148979000Y-98860000D01*
X155800000Y-108160000D02*
X148979000Y-108160000D01*
G04 #@! TO.C,SW1*
X155810000Y-83390000D02*
X148989000Y-83390000D01*
X155810000Y-74090000D02*
X148989000Y-74090000D01*
X155810000Y-83390000D02*
X155810000Y-82320000D01*
X155810000Y-80240000D02*
X155810000Y-79729000D01*
X155810000Y-77750000D02*
X155810000Y-77189000D01*
X155810000Y-75210000D02*
X155810000Y-74090000D01*
X148989000Y-75210000D02*
X148989000Y-74090000D01*
X148989000Y-77750000D02*
X148989000Y-77189000D01*
X148989000Y-83390000D02*
X148989000Y-82270000D01*
X148989000Y-80290000D02*
X148989000Y-79729000D01*
X156050000Y-83630000D02*
X154667000Y-83630000D01*
X156050000Y-83630000D02*
X156050000Y-82320000D01*
X154210000Y-81915000D02*
X154210000Y-80645000D01*
X154210000Y-80645000D02*
X150590000Y-80645000D01*
X150590000Y-80645000D02*
X150590000Y-81915000D01*
X150590000Y-81915000D02*
X154210000Y-81915000D01*
X154210000Y-81795000D02*
X153003333Y-81795000D01*
X154210000Y-81675000D02*
X153003333Y-81675000D01*
X154210000Y-81555000D02*
X153003333Y-81555000D01*
X154210000Y-81435000D02*
X153003333Y-81435000D01*
X154210000Y-81315000D02*
X153003333Y-81315000D01*
X154210000Y-81195000D02*
X153003333Y-81195000D01*
X154210000Y-81075000D02*
X153003333Y-81075000D01*
X154210000Y-80955000D02*
X153003333Y-80955000D01*
X154210000Y-80835000D02*
X153003333Y-80835000D01*
X154210000Y-80715000D02*
X153003333Y-80715000D01*
X153003333Y-81915000D02*
X153003333Y-80645000D01*
X154210000Y-79375000D02*
X154210000Y-78105000D01*
X154210000Y-78105000D02*
X150590000Y-78105000D01*
X150590000Y-78105000D02*
X150590000Y-79375000D01*
X150590000Y-79375000D02*
X154210000Y-79375000D01*
X154210000Y-79255000D02*
X153003333Y-79255000D01*
X154210000Y-79135000D02*
X153003333Y-79135000D01*
X154210000Y-79015000D02*
X153003333Y-79015000D01*
X154210000Y-78895000D02*
X153003333Y-78895000D01*
X154210000Y-78775000D02*
X153003333Y-78775000D01*
X154210000Y-78655000D02*
X153003333Y-78655000D01*
X154210000Y-78535000D02*
X153003333Y-78535000D01*
X154210000Y-78415000D02*
X153003333Y-78415000D01*
X154210000Y-78295000D02*
X153003333Y-78295000D01*
X154210000Y-78175000D02*
X153003333Y-78175000D01*
X153003333Y-79375000D02*
X153003333Y-78105000D01*
X154210000Y-76835000D02*
X154210000Y-75565000D01*
X154210000Y-75565000D02*
X150590000Y-75565000D01*
X150590000Y-75565000D02*
X150590000Y-76835000D01*
X150590000Y-76835000D02*
X154210000Y-76835000D01*
X154210000Y-76715000D02*
X153003333Y-76715000D01*
X154210000Y-76595000D02*
X153003333Y-76595000D01*
X154210000Y-76475000D02*
X153003333Y-76475000D01*
X154210000Y-76355000D02*
X153003333Y-76355000D01*
X154210000Y-76235000D02*
X153003333Y-76235000D01*
X154210000Y-76115000D02*
X153003333Y-76115000D01*
X154210000Y-75995000D02*
X153003333Y-75995000D01*
X154210000Y-75875000D02*
X153003333Y-75875000D01*
X154210000Y-75755000D02*
X153003333Y-75755000D01*
X154210000Y-75635000D02*
X153003333Y-75635000D01*
X153003333Y-76835000D02*
X153003333Y-75565000D01*
G04 #@! TO.C,J8*
X170600000Y-65120000D02*
X170600000Y-63790000D01*
X170600000Y-63790000D02*
X171930000Y-63790000D01*
X173200000Y-63790000D02*
X175800000Y-63790000D01*
X175800000Y-66450000D02*
X175800000Y-63790000D01*
X173200000Y-66450000D02*
X175800000Y-66450000D01*
X173200000Y-66450000D02*
X173200000Y-63790000D01*
G04 #@! TO.C,J7*
X178950000Y-135650000D02*
X178950000Y-132990000D01*
X178950000Y-135650000D02*
X181550000Y-135650000D01*
X181550000Y-135650000D02*
X181550000Y-132990000D01*
X178950000Y-132990000D02*
X181550000Y-132990000D01*
X176350000Y-132990000D02*
X177680000Y-132990000D01*
X176350000Y-134320000D02*
X176350000Y-132990000D01*
G04 #@! TO.C,J6*
X168675000Y-134320000D02*
X168675000Y-132990000D01*
X168675000Y-132990000D02*
X170005000Y-132990000D01*
X171275000Y-132990000D02*
X173875000Y-132990000D01*
X173875000Y-135650000D02*
X173875000Y-132990000D01*
X171275000Y-135650000D02*
X173875000Y-135650000D01*
X171275000Y-135650000D02*
X171275000Y-132990000D01*
G04 #@! TO.C,J5*
X163600000Y-135650000D02*
X163600000Y-132990000D01*
X163600000Y-135650000D02*
X166200000Y-135650000D01*
X166200000Y-135650000D02*
X166200000Y-132990000D01*
X163600000Y-132990000D02*
X166200000Y-132990000D01*
X161000000Y-132990000D02*
X162330000Y-132990000D01*
X161000000Y-134320000D02*
X161000000Y-132990000D01*
G04 #@! TO.C,J4*
X119930000Y-119090000D02*
X119930000Y-129830000D01*
X125230000Y-119090000D02*
X125230000Y-129830000D01*
X125690000Y-119090000D02*
X125690000Y-129830000D01*
X119370000Y-119090000D02*
X119370000Y-129830000D01*
X125690000Y-119090000D02*
X119370000Y-119090000D01*
X125690000Y-129830000D02*
X119370000Y-129830000D01*
X119870000Y-118850000D02*
X119130000Y-118850000D01*
X119130000Y-118850000D02*
X119130000Y-119350000D01*
G04 #@! TO.C,J2*
X119480000Y-69350000D02*
X119480000Y-69850000D01*
X120220000Y-69350000D02*
X119480000Y-69350000D01*
X126040000Y-80330000D02*
X119720000Y-80330000D01*
X126040000Y-69590000D02*
X119720000Y-69590000D01*
X119720000Y-69590000D02*
X119720000Y-80330000D01*
X126040000Y-69590000D02*
X126040000Y-80330000D01*
X125580000Y-69590000D02*
X125580000Y-80330000D01*
X120280000Y-69590000D02*
X120280000Y-80330000D01*
G04 #@! TO.C,J3*
X119530000Y-94340000D02*
X119530000Y-105080000D01*
X124830000Y-94340000D02*
X124830000Y-105080000D01*
X125290000Y-94340000D02*
X125290000Y-105080000D01*
X118970000Y-94340000D02*
X118970000Y-105080000D01*
X125290000Y-94340000D02*
X118970000Y-94340000D01*
X125290000Y-105080000D02*
X118970000Y-105080000D01*
X119470000Y-94100000D02*
X118730000Y-94100000D01*
X118730000Y-94100000D02*
X118730000Y-94600000D01*
G04 #@! TO.C,C4*
X160843000Y-130309000D02*
X162017000Y-130309000D01*
X160843000Y-132031000D02*
X162017000Y-132031000D01*
G04 #@! TO.C,C5*
X168867000Y-130309000D02*
X167693000Y-130309000D01*
X168867000Y-132031000D02*
X167693000Y-132031000D01*
G04 #@! TO.C,C6*
X176467000Y-132131000D02*
X175293000Y-132131000D01*
X176467000Y-130409000D02*
X175293000Y-130409000D01*
G04 #@! TO.C,R1*
X162550000Y-124360000D02*
X162550000Y-128200000D01*
X160710000Y-124360000D02*
X160710000Y-128200000D01*
G04 #@! TO.C,R2*
X174310000Y-122710000D02*
X174310000Y-126550000D01*
X176150000Y-122710000D02*
X176150000Y-126550000D01*
G04 #@! TO.C,R3*
X178750000Y-122710000D02*
X178750000Y-126550000D01*
X176910000Y-122710000D02*
X176910000Y-126550000D01*
G04 #@! TO.C,C1*
X142570000Y-130810000D02*
G75*
G03X142570000Y-130810000I-4120000J0D01*
G01*
X138450000Y-134890000D02*
X138450000Y-126730000D01*
X138410000Y-134890000D02*
X138410000Y-126730000D01*
X138370000Y-134890000D02*
X138370000Y-126730000D01*
X138330000Y-134889000D02*
X138330000Y-126731000D01*
X138290000Y-134887000D02*
X138290000Y-126733000D01*
X138250000Y-134886000D02*
X138250000Y-126734000D01*
X138210000Y-134884000D02*
X138210000Y-131850000D01*
X138210000Y-129770000D02*
X138210000Y-126736000D01*
X138170000Y-134881000D02*
X138170000Y-131850000D01*
X138170000Y-129770000D02*
X138170000Y-126739000D01*
X138130000Y-134878000D02*
X138130000Y-131850000D01*
X138130000Y-129770000D02*
X138130000Y-126742000D01*
X138090000Y-134875000D02*
X138090000Y-131850000D01*
X138090000Y-129770000D02*
X138090000Y-126745000D01*
X138050000Y-134871000D02*
X138050000Y-131850000D01*
X138050000Y-129770000D02*
X138050000Y-126749000D01*
X138010000Y-134867000D02*
X138010000Y-131850000D01*
X138010000Y-129770000D02*
X138010000Y-126753000D01*
X137970000Y-134862000D02*
X137970000Y-131850000D01*
X137970000Y-129770000D02*
X137970000Y-126758000D01*
X137930000Y-134858000D02*
X137930000Y-131850000D01*
X137930000Y-129770000D02*
X137930000Y-126762000D01*
X137890000Y-134852000D02*
X137890000Y-131850000D01*
X137890000Y-129770000D02*
X137890000Y-126768000D01*
X137850000Y-134847000D02*
X137850000Y-131850000D01*
X137850000Y-129770000D02*
X137850000Y-126773000D01*
X137810000Y-134840000D02*
X137810000Y-131850000D01*
X137810000Y-129770000D02*
X137810000Y-126780000D01*
X137770000Y-134834000D02*
X137770000Y-131850000D01*
X137770000Y-129770000D02*
X137770000Y-126786000D01*
X137729000Y-134827000D02*
X137729000Y-131850000D01*
X137729000Y-129770000D02*
X137729000Y-126793000D01*
X137689000Y-134820000D02*
X137689000Y-131850000D01*
X137689000Y-129770000D02*
X137689000Y-126800000D01*
X137649000Y-134812000D02*
X137649000Y-131850000D01*
X137649000Y-129770000D02*
X137649000Y-126808000D01*
X137609000Y-134804000D02*
X137609000Y-131850000D01*
X137609000Y-129770000D02*
X137609000Y-126816000D01*
X137569000Y-134795000D02*
X137569000Y-131850000D01*
X137569000Y-129770000D02*
X137569000Y-126825000D01*
X137529000Y-134786000D02*
X137529000Y-131850000D01*
X137529000Y-129770000D02*
X137529000Y-126834000D01*
X137489000Y-134777000D02*
X137489000Y-131850000D01*
X137489000Y-129770000D02*
X137489000Y-126843000D01*
X137449000Y-134767000D02*
X137449000Y-131850000D01*
X137449000Y-129770000D02*
X137449000Y-126853000D01*
X137409000Y-134757000D02*
X137409000Y-131850000D01*
X137409000Y-129770000D02*
X137409000Y-126863000D01*
X137369000Y-134746000D02*
X137369000Y-131850000D01*
X137369000Y-129770000D02*
X137369000Y-126874000D01*
X137329000Y-134735000D02*
X137329000Y-131850000D01*
X137329000Y-129770000D02*
X137329000Y-126885000D01*
X137289000Y-134724000D02*
X137289000Y-131850000D01*
X137289000Y-129770000D02*
X137289000Y-126896000D01*
X137249000Y-134712000D02*
X137249000Y-131850000D01*
X137249000Y-129770000D02*
X137249000Y-126908000D01*
X137209000Y-134699000D02*
X137209000Y-131850000D01*
X137209000Y-129770000D02*
X137209000Y-126921000D01*
X137169000Y-134687000D02*
X137169000Y-131850000D01*
X137169000Y-129770000D02*
X137169000Y-126933000D01*
X137129000Y-134673000D02*
X137129000Y-131850000D01*
X137129000Y-129770000D02*
X137129000Y-126947000D01*
X137089000Y-134660000D02*
X137089000Y-131850000D01*
X137089000Y-129770000D02*
X137089000Y-126960000D01*
X137049000Y-134645000D02*
X137049000Y-131850000D01*
X137049000Y-129770000D02*
X137049000Y-126975000D01*
X137009000Y-134631000D02*
X137009000Y-131850000D01*
X137009000Y-129770000D02*
X137009000Y-126989000D01*
X136969000Y-134615000D02*
X136969000Y-131850000D01*
X136969000Y-129770000D02*
X136969000Y-127005000D01*
X136929000Y-134600000D02*
X136929000Y-131850000D01*
X136929000Y-129770000D02*
X136929000Y-127020000D01*
X136889000Y-134584000D02*
X136889000Y-131850000D01*
X136889000Y-129770000D02*
X136889000Y-127036000D01*
X136849000Y-134567000D02*
X136849000Y-131850000D01*
X136849000Y-129770000D02*
X136849000Y-127053000D01*
X136809000Y-134550000D02*
X136809000Y-131850000D01*
X136809000Y-129770000D02*
X136809000Y-127070000D01*
X136769000Y-134532000D02*
X136769000Y-131850000D01*
X136769000Y-129770000D02*
X136769000Y-127088000D01*
X136729000Y-134514000D02*
X136729000Y-131850000D01*
X136729000Y-129770000D02*
X136729000Y-127106000D01*
X136689000Y-134496000D02*
X136689000Y-131850000D01*
X136689000Y-129770000D02*
X136689000Y-127124000D01*
X136649000Y-134476000D02*
X136649000Y-131850000D01*
X136649000Y-129770000D02*
X136649000Y-127144000D01*
X136609000Y-134457000D02*
X136609000Y-131850000D01*
X136609000Y-129770000D02*
X136609000Y-127163000D01*
X136569000Y-134437000D02*
X136569000Y-131850000D01*
X136569000Y-129770000D02*
X136569000Y-127183000D01*
X136529000Y-134416000D02*
X136529000Y-131850000D01*
X136529000Y-129770000D02*
X136529000Y-127204000D01*
X136489000Y-134394000D02*
X136489000Y-131850000D01*
X136489000Y-129770000D02*
X136489000Y-127226000D01*
X136449000Y-134372000D02*
X136449000Y-131850000D01*
X136449000Y-129770000D02*
X136449000Y-127248000D01*
X136409000Y-134350000D02*
X136409000Y-131850000D01*
X136409000Y-129770000D02*
X136409000Y-127270000D01*
X136369000Y-134327000D02*
X136369000Y-131850000D01*
X136369000Y-129770000D02*
X136369000Y-127293000D01*
X136329000Y-134303000D02*
X136329000Y-131850000D01*
X136329000Y-129770000D02*
X136329000Y-127317000D01*
X136289000Y-134279000D02*
X136289000Y-131850000D01*
X136289000Y-129770000D02*
X136289000Y-127341000D01*
X136249000Y-134254000D02*
X136249000Y-131850000D01*
X136249000Y-129770000D02*
X136249000Y-127366000D01*
X136209000Y-134228000D02*
X136209000Y-131850000D01*
X136209000Y-129770000D02*
X136209000Y-127392000D01*
X136169000Y-134202000D02*
X136169000Y-131850000D01*
X136169000Y-129770000D02*
X136169000Y-127418000D01*
X136129000Y-134175000D02*
X136129000Y-127445000D01*
X136089000Y-134148000D02*
X136089000Y-127472000D01*
X136049000Y-134119000D02*
X136049000Y-127501000D01*
X136009000Y-134090000D02*
X136009000Y-127530000D01*
X135969000Y-134060000D02*
X135969000Y-127560000D01*
X135929000Y-134030000D02*
X135929000Y-127590000D01*
X135889000Y-133999000D02*
X135889000Y-127621000D01*
X135849000Y-133966000D02*
X135849000Y-127654000D01*
X135809000Y-133934000D02*
X135809000Y-127686000D01*
X135769000Y-133900000D02*
X135769000Y-127720000D01*
X135729000Y-133865000D02*
X135729000Y-127755000D01*
X135689000Y-133829000D02*
X135689000Y-127791000D01*
X135649000Y-133793000D02*
X135649000Y-127827000D01*
X135609000Y-133755000D02*
X135609000Y-127865000D01*
X135569000Y-133717000D02*
X135569000Y-127903000D01*
X135529000Y-133677000D02*
X135529000Y-127943000D01*
X135489000Y-133636000D02*
X135489000Y-127984000D01*
X135449000Y-133594000D02*
X135449000Y-128026000D01*
X135409000Y-133551000D02*
X135409000Y-128069000D01*
X135369000Y-133507000D02*
X135369000Y-128113000D01*
X135329000Y-133461000D02*
X135329000Y-128159000D01*
X135289000Y-133414000D02*
X135289000Y-128206000D01*
X135249000Y-133366000D02*
X135249000Y-128254000D01*
X135209000Y-133315000D02*
X135209000Y-128305000D01*
X135169000Y-133264000D02*
X135169000Y-128356000D01*
X135129000Y-133210000D02*
X135129000Y-128410000D01*
X135089000Y-133155000D02*
X135089000Y-128465000D01*
X135049000Y-133097000D02*
X135049000Y-128523000D01*
X135009000Y-133038000D02*
X135009000Y-128582000D01*
X134969000Y-132976000D02*
X134969000Y-128644000D01*
X134929000Y-132912000D02*
X134929000Y-128708000D01*
X134889000Y-132844000D02*
X134889000Y-128776000D01*
X134849000Y-132774000D02*
X134849000Y-128846000D01*
X134809000Y-132700000D02*
X134809000Y-128920000D01*
X134769000Y-132623000D02*
X134769000Y-128997000D01*
X134729000Y-132541000D02*
X134729000Y-129079000D01*
X134689000Y-132455000D02*
X134689000Y-129165000D01*
X134649000Y-132362000D02*
X134649000Y-129258000D01*
X134609000Y-132263000D02*
X134609000Y-129357000D01*
X134569000Y-132156000D02*
X134569000Y-129464000D01*
X134529000Y-132039000D02*
X134529000Y-129581000D01*
X134489000Y-131908000D02*
X134489000Y-129712000D01*
X134449000Y-131758000D02*
X134449000Y-129862000D01*
X134409000Y-131578000D02*
X134409000Y-130042000D01*
X134369000Y-131343000D02*
X134369000Y-130277000D01*
X142859698Y-133125000D02*
X142059698Y-133125000D01*
X142459698Y-133525000D02*
X142459698Y-132725000D01*
G04 #@! TO.C,C3*
X142570000Y-81280000D02*
G75*
G03X142570000Y-81280000I-4120000J0D01*
G01*
X138450000Y-85360000D02*
X138450000Y-77200000D01*
X138410000Y-85360000D02*
X138410000Y-77200000D01*
X138370000Y-85360000D02*
X138370000Y-77200000D01*
X138330000Y-85359000D02*
X138330000Y-77201000D01*
X138290000Y-85357000D02*
X138290000Y-77203000D01*
X138250000Y-85356000D02*
X138250000Y-77204000D01*
X138210000Y-85354000D02*
X138210000Y-82320000D01*
X138210000Y-80240000D02*
X138210000Y-77206000D01*
X138170000Y-85351000D02*
X138170000Y-82320000D01*
X138170000Y-80240000D02*
X138170000Y-77209000D01*
X138130000Y-85348000D02*
X138130000Y-82320000D01*
X138130000Y-80240000D02*
X138130000Y-77212000D01*
X138090000Y-85345000D02*
X138090000Y-82320000D01*
X138090000Y-80240000D02*
X138090000Y-77215000D01*
X138050000Y-85341000D02*
X138050000Y-82320000D01*
X138050000Y-80240000D02*
X138050000Y-77219000D01*
X138010000Y-85337000D02*
X138010000Y-82320000D01*
X138010000Y-80240000D02*
X138010000Y-77223000D01*
X137970000Y-85332000D02*
X137970000Y-82320000D01*
X137970000Y-80240000D02*
X137970000Y-77228000D01*
X137930000Y-85328000D02*
X137930000Y-82320000D01*
X137930000Y-80240000D02*
X137930000Y-77232000D01*
X137890000Y-85322000D02*
X137890000Y-82320000D01*
X137890000Y-80240000D02*
X137890000Y-77238000D01*
X137850000Y-85317000D02*
X137850000Y-82320000D01*
X137850000Y-80240000D02*
X137850000Y-77243000D01*
X137810000Y-85310000D02*
X137810000Y-82320000D01*
X137810000Y-80240000D02*
X137810000Y-77250000D01*
X137770000Y-85304000D02*
X137770000Y-82320000D01*
X137770000Y-80240000D02*
X137770000Y-77256000D01*
X137729000Y-85297000D02*
X137729000Y-82320000D01*
X137729000Y-80240000D02*
X137729000Y-77263000D01*
X137689000Y-85290000D02*
X137689000Y-82320000D01*
X137689000Y-80240000D02*
X137689000Y-77270000D01*
X137649000Y-85282000D02*
X137649000Y-82320000D01*
X137649000Y-80240000D02*
X137649000Y-77278000D01*
X137609000Y-85274000D02*
X137609000Y-82320000D01*
X137609000Y-80240000D02*
X137609000Y-77286000D01*
X137569000Y-85265000D02*
X137569000Y-82320000D01*
X137569000Y-80240000D02*
X137569000Y-77295000D01*
X137529000Y-85256000D02*
X137529000Y-82320000D01*
X137529000Y-80240000D02*
X137529000Y-77304000D01*
X137489000Y-85247000D02*
X137489000Y-82320000D01*
X137489000Y-80240000D02*
X137489000Y-77313000D01*
X137449000Y-85237000D02*
X137449000Y-82320000D01*
X137449000Y-80240000D02*
X137449000Y-77323000D01*
X137409000Y-85227000D02*
X137409000Y-82320000D01*
X137409000Y-80240000D02*
X137409000Y-77333000D01*
X137369000Y-85216000D02*
X137369000Y-82320000D01*
X137369000Y-80240000D02*
X137369000Y-77344000D01*
X137329000Y-85205000D02*
X137329000Y-82320000D01*
X137329000Y-80240000D02*
X137329000Y-77355000D01*
X137289000Y-85194000D02*
X137289000Y-82320000D01*
X137289000Y-80240000D02*
X137289000Y-77366000D01*
X137249000Y-85182000D02*
X137249000Y-82320000D01*
X137249000Y-80240000D02*
X137249000Y-77378000D01*
X137209000Y-85169000D02*
X137209000Y-82320000D01*
X137209000Y-80240000D02*
X137209000Y-77391000D01*
X137169000Y-85157000D02*
X137169000Y-82320000D01*
X137169000Y-80240000D02*
X137169000Y-77403000D01*
X137129000Y-85143000D02*
X137129000Y-82320000D01*
X137129000Y-80240000D02*
X137129000Y-77417000D01*
X137089000Y-85130000D02*
X137089000Y-82320000D01*
X137089000Y-80240000D02*
X137089000Y-77430000D01*
X137049000Y-85115000D02*
X137049000Y-82320000D01*
X137049000Y-80240000D02*
X137049000Y-77445000D01*
X137009000Y-85101000D02*
X137009000Y-82320000D01*
X137009000Y-80240000D02*
X137009000Y-77459000D01*
X136969000Y-85085000D02*
X136969000Y-82320000D01*
X136969000Y-80240000D02*
X136969000Y-77475000D01*
X136929000Y-85070000D02*
X136929000Y-82320000D01*
X136929000Y-80240000D02*
X136929000Y-77490000D01*
X136889000Y-85054000D02*
X136889000Y-82320000D01*
X136889000Y-80240000D02*
X136889000Y-77506000D01*
X136849000Y-85037000D02*
X136849000Y-82320000D01*
X136849000Y-80240000D02*
X136849000Y-77523000D01*
X136809000Y-85020000D02*
X136809000Y-82320000D01*
X136809000Y-80240000D02*
X136809000Y-77540000D01*
X136769000Y-85002000D02*
X136769000Y-82320000D01*
X136769000Y-80240000D02*
X136769000Y-77558000D01*
X136729000Y-84984000D02*
X136729000Y-82320000D01*
X136729000Y-80240000D02*
X136729000Y-77576000D01*
X136689000Y-84966000D02*
X136689000Y-82320000D01*
X136689000Y-80240000D02*
X136689000Y-77594000D01*
X136649000Y-84946000D02*
X136649000Y-82320000D01*
X136649000Y-80240000D02*
X136649000Y-77614000D01*
X136609000Y-84927000D02*
X136609000Y-82320000D01*
X136609000Y-80240000D02*
X136609000Y-77633000D01*
X136569000Y-84907000D02*
X136569000Y-82320000D01*
X136569000Y-80240000D02*
X136569000Y-77653000D01*
X136529000Y-84886000D02*
X136529000Y-82320000D01*
X136529000Y-80240000D02*
X136529000Y-77674000D01*
X136489000Y-84864000D02*
X136489000Y-82320000D01*
X136489000Y-80240000D02*
X136489000Y-77696000D01*
X136449000Y-84842000D02*
X136449000Y-82320000D01*
X136449000Y-80240000D02*
X136449000Y-77718000D01*
X136409000Y-84820000D02*
X136409000Y-82320000D01*
X136409000Y-80240000D02*
X136409000Y-77740000D01*
X136369000Y-84797000D02*
X136369000Y-82320000D01*
X136369000Y-80240000D02*
X136369000Y-77763000D01*
X136329000Y-84773000D02*
X136329000Y-82320000D01*
X136329000Y-80240000D02*
X136329000Y-77787000D01*
X136289000Y-84749000D02*
X136289000Y-82320000D01*
X136289000Y-80240000D02*
X136289000Y-77811000D01*
X136249000Y-84724000D02*
X136249000Y-82320000D01*
X136249000Y-80240000D02*
X136249000Y-77836000D01*
X136209000Y-84698000D02*
X136209000Y-82320000D01*
X136209000Y-80240000D02*
X136209000Y-77862000D01*
X136169000Y-84672000D02*
X136169000Y-82320000D01*
X136169000Y-80240000D02*
X136169000Y-77888000D01*
X136129000Y-84645000D02*
X136129000Y-77915000D01*
X136089000Y-84618000D02*
X136089000Y-77942000D01*
X136049000Y-84589000D02*
X136049000Y-77971000D01*
X136009000Y-84560000D02*
X136009000Y-78000000D01*
X135969000Y-84530000D02*
X135969000Y-78030000D01*
X135929000Y-84500000D02*
X135929000Y-78060000D01*
X135889000Y-84469000D02*
X135889000Y-78091000D01*
X135849000Y-84436000D02*
X135849000Y-78124000D01*
X135809000Y-84404000D02*
X135809000Y-78156000D01*
X135769000Y-84370000D02*
X135769000Y-78190000D01*
X135729000Y-84335000D02*
X135729000Y-78225000D01*
X135689000Y-84299000D02*
X135689000Y-78261000D01*
X135649000Y-84263000D02*
X135649000Y-78297000D01*
X135609000Y-84225000D02*
X135609000Y-78335000D01*
X135569000Y-84187000D02*
X135569000Y-78373000D01*
X135529000Y-84147000D02*
X135529000Y-78413000D01*
X135489000Y-84106000D02*
X135489000Y-78454000D01*
X135449000Y-84064000D02*
X135449000Y-78496000D01*
X135409000Y-84021000D02*
X135409000Y-78539000D01*
X135369000Y-83977000D02*
X135369000Y-78583000D01*
X135329000Y-83931000D02*
X135329000Y-78629000D01*
X135289000Y-83884000D02*
X135289000Y-78676000D01*
X135249000Y-83836000D02*
X135249000Y-78724000D01*
X135209000Y-83785000D02*
X135209000Y-78775000D01*
X135169000Y-83734000D02*
X135169000Y-78826000D01*
X135129000Y-83680000D02*
X135129000Y-78880000D01*
X135089000Y-83625000D02*
X135089000Y-78935000D01*
X135049000Y-83567000D02*
X135049000Y-78993000D01*
X135009000Y-83508000D02*
X135009000Y-79052000D01*
X134969000Y-83446000D02*
X134969000Y-79114000D01*
X134929000Y-83382000D02*
X134929000Y-79178000D01*
X134889000Y-83314000D02*
X134889000Y-79246000D01*
X134849000Y-83244000D02*
X134849000Y-79316000D01*
X134809000Y-83170000D02*
X134809000Y-79390000D01*
X134769000Y-83093000D02*
X134769000Y-79467000D01*
X134729000Y-83011000D02*
X134729000Y-79549000D01*
X134689000Y-82925000D02*
X134689000Y-79635000D01*
X134649000Y-82832000D02*
X134649000Y-79728000D01*
X134609000Y-82733000D02*
X134609000Y-79827000D01*
X134569000Y-82626000D02*
X134569000Y-79934000D01*
X134529000Y-82509000D02*
X134529000Y-80051000D01*
X134489000Y-82378000D02*
X134489000Y-80182000D01*
X134449000Y-82228000D02*
X134449000Y-80332000D01*
X134409000Y-82048000D02*
X134409000Y-80512000D01*
X134369000Y-81813000D02*
X134369000Y-80747000D01*
X142859698Y-83595000D02*
X142059698Y-83595000D01*
X142459698Y-83995000D02*
X142459698Y-83195000D01*
G04 #@! TO.C,C2*
X142339698Y-108785000D02*
X142339698Y-107985000D01*
X142739698Y-108385000D02*
X141939698Y-108385000D01*
X134249000Y-106603000D02*
X134249000Y-105537000D01*
X134289000Y-106838000D02*
X134289000Y-105302000D01*
X134329000Y-107018000D02*
X134329000Y-105122000D01*
X134369000Y-107168000D02*
X134369000Y-104972000D01*
X134409000Y-107299000D02*
X134409000Y-104841000D01*
X134449000Y-107416000D02*
X134449000Y-104724000D01*
X134489000Y-107523000D02*
X134489000Y-104617000D01*
X134529000Y-107622000D02*
X134529000Y-104518000D01*
X134569000Y-107715000D02*
X134569000Y-104425000D01*
X134609000Y-107801000D02*
X134609000Y-104339000D01*
X134649000Y-107883000D02*
X134649000Y-104257000D01*
X134689000Y-107960000D02*
X134689000Y-104180000D01*
X134729000Y-108034000D02*
X134729000Y-104106000D01*
X134769000Y-108104000D02*
X134769000Y-104036000D01*
X134809000Y-108172000D02*
X134809000Y-103968000D01*
X134849000Y-108236000D02*
X134849000Y-103904000D01*
X134889000Y-108298000D02*
X134889000Y-103842000D01*
X134929000Y-108357000D02*
X134929000Y-103783000D01*
X134969000Y-108415000D02*
X134969000Y-103725000D01*
X135009000Y-108470000D02*
X135009000Y-103670000D01*
X135049000Y-108524000D02*
X135049000Y-103616000D01*
X135089000Y-108575000D02*
X135089000Y-103565000D01*
X135129000Y-108626000D02*
X135129000Y-103514000D01*
X135169000Y-108674000D02*
X135169000Y-103466000D01*
X135209000Y-108721000D02*
X135209000Y-103419000D01*
X135249000Y-108767000D02*
X135249000Y-103373000D01*
X135289000Y-108811000D02*
X135289000Y-103329000D01*
X135329000Y-108854000D02*
X135329000Y-103286000D01*
X135369000Y-108896000D02*
X135369000Y-103244000D01*
X135409000Y-108937000D02*
X135409000Y-103203000D01*
X135449000Y-108977000D02*
X135449000Y-103163000D01*
X135489000Y-109015000D02*
X135489000Y-103125000D01*
X135529000Y-109053000D02*
X135529000Y-103087000D01*
X135569000Y-109089000D02*
X135569000Y-103051000D01*
X135609000Y-109125000D02*
X135609000Y-103015000D01*
X135649000Y-109160000D02*
X135649000Y-102980000D01*
X135689000Y-109194000D02*
X135689000Y-102946000D01*
X135729000Y-109226000D02*
X135729000Y-102914000D01*
X135769000Y-109259000D02*
X135769000Y-102881000D01*
X135809000Y-109290000D02*
X135809000Y-102850000D01*
X135849000Y-109320000D02*
X135849000Y-102820000D01*
X135889000Y-109350000D02*
X135889000Y-102790000D01*
X135929000Y-109379000D02*
X135929000Y-102761000D01*
X135969000Y-109408000D02*
X135969000Y-102732000D01*
X136009000Y-109435000D02*
X136009000Y-102705000D01*
X136049000Y-105030000D02*
X136049000Y-102678000D01*
X136049000Y-109462000D02*
X136049000Y-107110000D01*
X136089000Y-105030000D02*
X136089000Y-102652000D01*
X136089000Y-109488000D02*
X136089000Y-107110000D01*
X136129000Y-105030000D02*
X136129000Y-102626000D01*
X136129000Y-109514000D02*
X136129000Y-107110000D01*
X136169000Y-105030000D02*
X136169000Y-102601000D01*
X136169000Y-109539000D02*
X136169000Y-107110000D01*
X136209000Y-105030000D02*
X136209000Y-102577000D01*
X136209000Y-109563000D02*
X136209000Y-107110000D01*
X136249000Y-105030000D02*
X136249000Y-102553000D01*
X136249000Y-109587000D02*
X136249000Y-107110000D01*
X136289000Y-105030000D02*
X136289000Y-102530000D01*
X136289000Y-109610000D02*
X136289000Y-107110000D01*
X136329000Y-105030000D02*
X136329000Y-102508000D01*
X136329000Y-109632000D02*
X136329000Y-107110000D01*
X136369000Y-105030000D02*
X136369000Y-102486000D01*
X136369000Y-109654000D02*
X136369000Y-107110000D01*
X136409000Y-105030000D02*
X136409000Y-102464000D01*
X136409000Y-109676000D02*
X136409000Y-107110000D01*
X136449000Y-105030000D02*
X136449000Y-102443000D01*
X136449000Y-109697000D02*
X136449000Y-107110000D01*
X136489000Y-105030000D02*
X136489000Y-102423000D01*
X136489000Y-109717000D02*
X136489000Y-107110000D01*
X136529000Y-105030000D02*
X136529000Y-102404000D01*
X136529000Y-109736000D02*
X136529000Y-107110000D01*
X136569000Y-105030000D02*
X136569000Y-102384000D01*
X136569000Y-109756000D02*
X136569000Y-107110000D01*
X136609000Y-105030000D02*
X136609000Y-102366000D01*
X136609000Y-109774000D02*
X136609000Y-107110000D01*
X136649000Y-105030000D02*
X136649000Y-102348000D01*
X136649000Y-109792000D02*
X136649000Y-107110000D01*
X136689000Y-105030000D02*
X136689000Y-102330000D01*
X136689000Y-109810000D02*
X136689000Y-107110000D01*
X136729000Y-105030000D02*
X136729000Y-102313000D01*
X136729000Y-109827000D02*
X136729000Y-107110000D01*
X136769000Y-105030000D02*
X136769000Y-102296000D01*
X136769000Y-109844000D02*
X136769000Y-107110000D01*
X136809000Y-105030000D02*
X136809000Y-102280000D01*
X136809000Y-109860000D02*
X136809000Y-107110000D01*
X136849000Y-105030000D02*
X136849000Y-102265000D01*
X136849000Y-109875000D02*
X136849000Y-107110000D01*
X136889000Y-105030000D02*
X136889000Y-102249000D01*
X136889000Y-109891000D02*
X136889000Y-107110000D01*
X136929000Y-105030000D02*
X136929000Y-102235000D01*
X136929000Y-109905000D02*
X136929000Y-107110000D01*
X136969000Y-105030000D02*
X136969000Y-102220000D01*
X136969000Y-109920000D02*
X136969000Y-107110000D01*
X137009000Y-105030000D02*
X137009000Y-102207000D01*
X137009000Y-109933000D02*
X137009000Y-107110000D01*
X137049000Y-105030000D02*
X137049000Y-102193000D01*
X137049000Y-109947000D02*
X137049000Y-107110000D01*
X137089000Y-105030000D02*
X137089000Y-102181000D01*
X137089000Y-109959000D02*
X137089000Y-107110000D01*
X137129000Y-105030000D02*
X137129000Y-102168000D01*
X137129000Y-109972000D02*
X137129000Y-107110000D01*
X137169000Y-105030000D02*
X137169000Y-102156000D01*
X137169000Y-109984000D02*
X137169000Y-107110000D01*
X137209000Y-105030000D02*
X137209000Y-102145000D01*
X137209000Y-109995000D02*
X137209000Y-107110000D01*
X137249000Y-105030000D02*
X137249000Y-102134000D01*
X137249000Y-110006000D02*
X137249000Y-107110000D01*
X137289000Y-105030000D02*
X137289000Y-102123000D01*
X137289000Y-110017000D02*
X137289000Y-107110000D01*
X137329000Y-105030000D02*
X137329000Y-102113000D01*
X137329000Y-110027000D02*
X137329000Y-107110000D01*
X137369000Y-105030000D02*
X137369000Y-102103000D01*
X137369000Y-110037000D02*
X137369000Y-107110000D01*
X137409000Y-105030000D02*
X137409000Y-102094000D01*
X137409000Y-110046000D02*
X137409000Y-107110000D01*
X137449000Y-105030000D02*
X137449000Y-102085000D01*
X137449000Y-110055000D02*
X137449000Y-107110000D01*
X137489000Y-105030000D02*
X137489000Y-102076000D01*
X137489000Y-110064000D02*
X137489000Y-107110000D01*
X137529000Y-105030000D02*
X137529000Y-102068000D01*
X137529000Y-110072000D02*
X137529000Y-107110000D01*
X137569000Y-105030000D02*
X137569000Y-102060000D01*
X137569000Y-110080000D02*
X137569000Y-107110000D01*
X137609000Y-105030000D02*
X137609000Y-102053000D01*
X137609000Y-110087000D02*
X137609000Y-107110000D01*
X137650000Y-105030000D02*
X137650000Y-102046000D01*
X137650000Y-110094000D02*
X137650000Y-107110000D01*
X137690000Y-105030000D02*
X137690000Y-102040000D01*
X137690000Y-110100000D02*
X137690000Y-107110000D01*
X137730000Y-105030000D02*
X137730000Y-102033000D01*
X137730000Y-110107000D02*
X137730000Y-107110000D01*
X137770000Y-105030000D02*
X137770000Y-102028000D01*
X137770000Y-110112000D02*
X137770000Y-107110000D01*
X137810000Y-105030000D02*
X137810000Y-102022000D01*
X137810000Y-110118000D02*
X137810000Y-107110000D01*
X137850000Y-105030000D02*
X137850000Y-102018000D01*
X137850000Y-110122000D02*
X137850000Y-107110000D01*
X137890000Y-105030000D02*
X137890000Y-102013000D01*
X137890000Y-110127000D02*
X137890000Y-107110000D01*
X137930000Y-105030000D02*
X137930000Y-102009000D01*
X137930000Y-110131000D02*
X137930000Y-107110000D01*
X137970000Y-105030000D02*
X137970000Y-102005000D01*
X137970000Y-110135000D02*
X137970000Y-107110000D01*
X138010000Y-105030000D02*
X138010000Y-102002000D01*
X138010000Y-110138000D02*
X138010000Y-107110000D01*
X138050000Y-105030000D02*
X138050000Y-101999000D01*
X138050000Y-110141000D02*
X138050000Y-107110000D01*
X138090000Y-105030000D02*
X138090000Y-101996000D01*
X138090000Y-110144000D02*
X138090000Y-107110000D01*
X138130000Y-110146000D02*
X138130000Y-101994000D01*
X138170000Y-110147000D02*
X138170000Y-101993000D01*
X138210000Y-110149000D02*
X138210000Y-101991000D01*
X138250000Y-110150000D02*
X138250000Y-101990000D01*
X138290000Y-110150000D02*
X138290000Y-101990000D01*
X138330000Y-110150000D02*
X138330000Y-101990000D01*
X142450000Y-106070000D02*
G75*
G03X142450000Y-106070000I-4120000J0D01*
G01*
G04 #@! TO.C,A1*
X165100000Y-76200000D02*
X165100000Y-73660000D01*
X165100000Y-73660000D02*
X162430000Y-73660000D01*
X162430000Y-76200000D02*
X162430000Y-114430000D01*
X162430000Y-70990000D02*
X162430000Y-73660000D01*
X177800000Y-73660000D02*
X180470000Y-73660000D01*
X177800000Y-73660000D02*
X177800000Y-111760000D01*
X177800000Y-111760000D02*
X180470000Y-111760000D01*
X165100000Y-76200000D02*
X162430000Y-76200000D01*
X165100000Y-76200000D02*
X165100000Y-111760000D01*
X165100000Y-111760000D02*
X162430000Y-111760000D01*
X162430000Y-114430000D02*
X180470000Y-114430000D01*
X180470000Y-114430000D02*
X180470000Y-70990000D01*
X180470000Y-70990000D02*
X162430000Y-70990000D01*
G04 #@! TO.C,A4*
X143510000Y-114170000D02*
X143510000Y-134750000D01*
X133350000Y-116840000D02*
X133350000Y-134750000D01*
X132080000Y-114170000D02*
X130680000Y-114170000D01*
X130680000Y-114170000D02*
X130680000Y-115570000D01*
X133350000Y-114170000D02*
X133350000Y-116840000D01*
X133350000Y-116840000D02*
X130680000Y-116840000D01*
X130680000Y-116840000D02*
X130680000Y-134750000D01*
X130680000Y-134750000D02*
X146180000Y-134750000D01*
X146180000Y-134750000D02*
X146180000Y-114170000D01*
X146180000Y-114170000D02*
X133350000Y-114170000D01*
G04 #@! TO.C,A3*
X146180000Y-89405000D02*
X133350000Y-89405000D01*
X146180000Y-109985000D02*
X146180000Y-89405000D01*
X130680000Y-109985000D02*
X146180000Y-109985000D01*
X130680000Y-92075000D02*
X130680000Y-109985000D01*
X133350000Y-92075000D02*
X130680000Y-92075000D01*
X133350000Y-89405000D02*
X133350000Y-92075000D01*
X130680000Y-89405000D02*
X130680000Y-90805000D01*
X132080000Y-89405000D02*
X130680000Y-89405000D01*
X133350000Y-92075000D02*
X133350000Y-109985000D01*
X143510000Y-89405000D02*
X143510000Y-109985000D01*
G04 #@! TO.C,A2*
X143510000Y-64640000D02*
X143510000Y-85220000D01*
X133350000Y-67310000D02*
X133350000Y-85220000D01*
X132080000Y-64640000D02*
X130680000Y-64640000D01*
X130680000Y-64640000D02*
X130680000Y-66040000D01*
X133350000Y-64640000D02*
X133350000Y-67310000D01*
X133350000Y-67310000D02*
X130680000Y-67310000D01*
X130680000Y-67310000D02*
X130680000Y-85220000D01*
X130680000Y-85220000D02*
X146180000Y-85220000D01*
X146180000Y-85220000D02*
X146180000Y-64640000D01*
X146180000Y-64640000D02*
X133350000Y-64640000D01*
G04 #@! TO.C,J1*
X118360000Y-59880000D02*
X128520000Y-59880000D01*
X118360000Y-58610000D02*
X118360000Y-66230000D01*
X118360000Y-66230000D02*
X128520000Y-66230000D01*
X128520000Y-66230000D02*
X128520000Y-58610000D01*
X128520000Y-58610000D02*
X118360000Y-58610000D01*
G04 #@! TO.C,SW3*
D13*
X151066666Y-134324761D02*
X151209523Y-134372380D01*
X151447619Y-134372380D01*
X151542857Y-134324761D01*
X151590476Y-134277142D01*
X151638095Y-134181904D01*
X151638095Y-134086666D01*
X151590476Y-133991428D01*
X151542857Y-133943809D01*
X151447619Y-133896190D01*
X151257142Y-133848571D01*
X151161904Y-133800952D01*
X151114285Y-133753333D01*
X151066666Y-133658095D01*
X151066666Y-133562857D01*
X151114285Y-133467619D01*
X151161904Y-133420000D01*
X151257142Y-133372380D01*
X151495238Y-133372380D01*
X151638095Y-133420000D01*
X151971428Y-133372380D02*
X152209523Y-134372380D01*
X152400000Y-133658095D01*
X152590476Y-134372380D01*
X152828571Y-133372380D01*
X153114285Y-133372380D02*
X153733333Y-133372380D01*
X153400000Y-133753333D01*
X153542857Y-133753333D01*
X153638095Y-133800952D01*
X153685714Y-133848571D01*
X153733333Y-133943809D01*
X153733333Y-134181904D01*
X153685714Y-134277142D01*
X153638095Y-134324761D01*
X153542857Y-134372380D01*
X153257142Y-134372380D01*
X153161904Y-134324761D01*
X153114285Y-134277142D01*
G04 #@! TO.C,SW2*
X151056666Y-109564761D02*
X151199523Y-109612380D01*
X151437619Y-109612380D01*
X151532857Y-109564761D01*
X151580476Y-109517142D01*
X151628095Y-109421904D01*
X151628095Y-109326666D01*
X151580476Y-109231428D01*
X151532857Y-109183809D01*
X151437619Y-109136190D01*
X151247142Y-109088571D01*
X151151904Y-109040952D01*
X151104285Y-108993333D01*
X151056666Y-108898095D01*
X151056666Y-108802857D01*
X151104285Y-108707619D01*
X151151904Y-108660000D01*
X151247142Y-108612380D01*
X151485238Y-108612380D01*
X151628095Y-108660000D01*
X151961428Y-108612380D02*
X152199523Y-109612380D01*
X152390000Y-108898095D01*
X152580476Y-109612380D01*
X152818571Y-108612380D01*
X153151904Y-108707619D02*
X153199523Y-108660000D01*
X153294761Y-108612380D01*
X153532857Y-108612380D01*
X153628095Y-108660000D01*
X153675714Y-108707619D01*
X153723333Y-108802857D01*
X153723333Y-108898095D01*
X153675714Y-109040952D01*
X153104285Y-109612380D01*
X153723333Y-109612380D01*
G04 #@! TO.C,SW1*
X151066666Y-84794761D02*
X151209523Y-84842380D01*
X151447619Y-84842380D01*
X151542857Y-84794761D01*
X151590476Y-84747142D01*
X151638095Y-84651904D01*
X151638095Y-84556666D01*
X151590476Y-84461428D01*
X151542857Y-84413809D01*
X151447619Y-84366190D01*
X151257142Y-84318571D01*
X151161904Y-84270952D01*
X151114285Y-84223333D01*
X151066666Y-84128095D01*
X151066666Y-84032857D01*
X151114285Y-83937619D01*
X151161904Y-83890000D01*
X151257142Y-83842380D01*
X151495238Y-83842380D01*
X151638095Y-83890000D01*
X151971428Y-83842380D02*
X152209523Y-84842380D01*
X152400000Y-84128095D01*
X152590476Y-84842380D01*
X152828571Y-83842380D01*
X153733333Y-84842380D02*
X153161904Y-84842380D01*
X153447619Y-84842380D02*
X153447619Y-83842380D01*
X153352380Y-83985238D01*
X153257142Y-84080476D01*
X153161904Y-84128095D01*
G04 #@! TO.C,J8*
X168612380Y-65453333D02*
X169326666Y-65453333D01*
X169469523Y-65500952D01*
X169564761Y-65596190D01*
X169612380Y-65739047D01*
X169612380Y-65834285D01*
X169040952Y-64834285D02*
X168993333Y-64929523D01*
X168945714Y-64977142D01*
X168850476Y-65024761D01*
X168802857Y-65024761D01*
X168707619Y-64977142D01*
X168660000Y-64929523D01*
X168612380Y-64834285D01*
X168612380Y-64643809D01*
X168660000Y-64548571D01*
X168707619Y-64500952D01*
X168802857Y-64453333D01*
X168850476Y-64453333D01*
X168945714Y-64500952D01*
X168993333Y-64548571D01*
X169040952Y-64643809D01*
X169040952Y-64834285D01*
X169088571Y-64929523D01*
X169136190Y-64977142D01*
X169231428Y-65024761D01*
X169421904Y-65024761D01*
X169517142Y-64977142D01*
X169564761Y-64929523D01*
X169612380Y-64834285D01*
X169612380Y-64643809D01*
X169564761Y-64548571D01*
X169517142Y-64500952D01*
X169421904Y-64453333D01*
X169231428Y-64453333D01*
X169136190Y-64500952D01*
X169088571Y-64548571D01*
X169040952Y-64643809D01*
G04 #@! TO.C,J7*
X174362380Y-134653333D02*
X175076666Y-134653333D01*
X175219523Y-134700952D01*
X175314761Y-134796190D01*
X175362380Y-134939047D01*
X175362380Y-135034285D01*
X174362380Y-134272380D02*
X174362380Y-133605714D01*
X175362380Y-134034285D01*
G04 #@! TO.C,J6*
X166687380Y-134653333D02*
X167401666Y-134653333D01*
X167544523Y-134700952D01*
X167639761Y-134796190D01*
X167687380Y-134939047D01*
X167687380Y-135034285D01*
X166687380Y-133748571D02*
X166687380Y-133939047D01*
X166735000Y-134034285D01*
X166782619Y-134081904D01*
X166925476Y-134177142D01*
X167115952Y-134224761D01*
X167496904Y-134224761D01*
X167592142Y-134177142D01*
X167639761Y-134129523D01*
X167687380Y-134034285D01*
X167687380Y-133843809D01*
X167639761Y-133748571D01*
X167592142Y-133700952D01*
X167496904Y-133653333D01*
X167258809Y-133653333D01*
X167163571Y-133700952D01*
X167115952Y-133748571D01*
X167068333Y-133843809D01*
X167068333Y-134034285D01*
X167115952Y-134129523D01*
X167163571Y-134177142D01*
X167258809Y-134224761D01*
G04 #@! TO.C,J5*
X159012380Y-134653333D02*
X159726666Y-134653333D01*
X159869523Y-134700952D01*
X159964761Y-134796190D01*
X160012380Y-134939047D01*
X160012380Y-135034285D01*
X159012380Y-133700952D02*
X159012380Y-134177142D01*
X159488571Y-134224761D01*
X159440952Y-134177142D01*
X159393333Y-134081904D01*
X159393333Y-133843809D01*
X159440952Y-133748571D01*
X159488571Y-133700952D01*
X159583809Y-133653333D01*
X159821904Y-133653333D01*
X159917142Y-133700952D01*
X159964761Y-133748571D01*
X160012380Y-133843809D01*
X160012380Y-134081904D01*
X159964761Y-134177142D01*
X159917142Y-134224761D01*
G04 #@! TO.C,J4*
X126142380Y-124793333D02*
X126856666Y-124793333D01*
X126999523Y-124840952D01*
X127094761Y-124936190D01*
X127142380Y-125079047D01*
X127142380Y-125174285D01*
X126475714Y-123888571D02*
X127142380Y-123888571D01*
X126094761Y-124126666D02*
X126809047Y-124364761D01*
X126809047Y-123745714D01*
G04 #@! TO.C,J2*
X126492380Y-75293333D02*
X127206666Y-75293333D01*
X127349523Y-75340952D01*
X127444761Y-75436190D01*
X127492380Y-75579047D01*
X127492380Y-75674285D01*
X126587619Y-74864761D02*
X126540000Y-74817142D01*
X126492380Y-74721904D01*
X126492380Y-74483809D01*
X126540000Y-74388571D01*
X126587619Y-74340952D01*
X126682857Y-74293333D01*
X126778095Y-74293333D01*
X126920952Y-74340952D01*
X127492380Y-74912380D01*
X127492380Y-74293333D01*
G04 #@! TO.C,J3*
X125742380Y-100043333D02*
X126456666Y-100043333D01*
X126599523Y-100090952D01*
X126694761Y-100186190D01*
X126742380Y-100329047D01*
X126742380Y-100424285D01*
X125742380Y-99662380D02*
X125742380Y-99043333D01*
X126123333Y-99376666D01*
X126123333Y-99233809D01*
X126170952Y-99138571D01*
X126218571Y-99090952D01*
X126313809Y-99043333D01*
X126551904Y-99043333D01*
X126647142Y-99090952D01*
X126694761Y-99138571D01*
X126742380Y-99233809D01*
X126742380Y-99519523D01*
X126694761Y-99614761D01*
X126647142Y-99662380D01*
G04 #@! TO.C,C4*
X161263333Y-129417142D02*
X161215714Y-129464761D01*
X161072857Y-129512380D01*
X160977619Y-129512380D01*
X160834761Y-129464761D01*
X160739523Y-129369523D01*
X160691904Y-129274285D01*
X160644285Y-129083809D01*
X160644285Y-128940952D01*
X160691904Y-128750476D01*
X160739523Y-128655238D01*
X160834761Y-128560000D01*
X160977619Y-128512380D01*
X161072857Y-128512380D01*
X161215714Y-128560000D01*
X161263333Y-128607619D01*
X162120476Y-128845714D02*
X162120476Y-129512380D01*
X161882380Y-128464761D02*
X161644285Y-129179047D01*
X162263333Y-129179047D01*
G04 #@! TO.C,C5*
X168113333Y-133637142D02*
X168065714Y-133684761D01*
X167922857Y-133732380D01*
X167827619Y-133732380D01*
X167684761Y-133684761D01*
X167589523Y-133589523D01*
X167541904Y-133494285D01*
X167494285Y-133303809D01*
X167494285Y-133160952D01*
X167541904Y-132970476D01*
X167589523Y-132875238D01*
X167684761Y-132780000D01*
X167827619Y-132732380D01*
X167922857Y-132732380D01*
X168065714Y-132780000D01*
X168113333Y-132827619D01*
X169018095Y-132732380D02*
X168541904Y-132732380D01*
X168494285Y-133208571D01*
X168541904Y-133160952D01*
X168637142Y-133113333D01*
X168875238Y-133113333D01*
X168970476Y-133160952D01*
X169018095Y-133208571D01*
X169065714Y-133303809D01*
X169065714Y-133541904D01*
X169018095Y-133637142D01*
X168970476Y-133684761D01*
X168875238Y-133732380D01*
X168637142Y-133732380D01*
X168541904Y-133684761D01*
X168494285Y-133637142D01*
G04 #@! TO.C,C6*
X175713333Y-133737142D02*
X175665714Y-133784761D01*
X175522857Y-133832380D01*
X175427619Y-133832380D01*
X175284761Y-133784761D01*
X175189523Y-133689523D01*
X175141904Y-133594285D01*
X175094285Y-133403809D01*
X175094285Y-133260952D01*
X175141904Y-133070476D01*
X175189523Y-132975238D01*
X175284761Y-132880000D01*
X175427619Y-132832380D01*
X175522857Y-132832380D01*
X175665714Y-132880000D01*
X175713333Y-132927619D01*
X176570476Y-132832380D02*
X176380000Y-132832380D01*
X176284761Y-132880000D01*
X176237142Y-132927619D01*
X176141904Y-133070476D01*
X176094285Y-133260952D01*
X176094285Y-133641904D01*
X176141904Y-133737142D01*
X176189523Y-133784761D01*
X176284761Y-133832380D01*
X176475238Y-133832380D01*
X176570476Y-133784761D01*
X176618095Y-133737142D01*
X176665714Y-133641904D01*
X176665714Y-133403809D01*
X176618095Y-133308571D01*
X176570476Y-133260952D01*
X176475238Y-133213333D01*
X176284761Y-133213333D01*
X176189523Y-133260952D01*
X176141904Y-133308571D01*
X176094285Y-133403809D01*
G04 #@! TO.C,R1*
X164002380Y-126446666D02*
X163526190Y-126780000D01*
X164002380Y-127018095D02*
X163002380Y-127018095D01*
X163002380Y-126637142D01*
X163050000Y-126541904D01*
X163097619Y-126494285D01*
X163192857Y-126446666D01*
X163335714Y-126446666D01*
X163430952Y-126494285D01*
X163478571Y-126541904D01*
X163526190Y-126637142D01*
X163526190Y-127018095D01*
X164002380Y-125494285D02*
X164002380Y-126065714D01*
X164002380Y-125780000D02*
X163002380Y-125780000D01*
X163145238Y-125875238D01*
X163240476Y-125970476D01*
X163288095Y-126065714D01*
G04 #@! TO.C,R2*
X177602380Y-124796666D02*
X177126190Y-125130000D01*
X177602380Y-125368095D02*
X176602380Y-125368095D01*
X176602380Y-124987142D01*
X176650000Y-124891904D01*
X176697619Y-124844285D01*
X176792857Y-124796666D01*
X176935714Y-124796666D01*
X177030952Y-124844285D01*
X177078571Y-124891904D01*
X177126190Y-124987142D01*
X177126190Y-125368095D01*
X176697619Y-124415714D02*
X176650000Y-124368095D01*
X176602380Y-124272857D01*
X176602380Y-124034761D01*
X176650000Y-123939523D01*
X176697619Y-123891904D01*
X176792857Y-123844285D01*
X176888095Y-123844285D01*
X177030952Y-123891904D01*
X177602380Y-124463333D01*
X177602380Y-123844285D01*
G04 #@! TO.C,R3*
X180202380Y-124796666D02*
X179726190Y-125130000D01*
X180202380Y-125368095D02*
X179202380Y-125368095D01*
X179202380Y-124987142D01*
X179250000Y-124891904D01*
X179297619Y-124844285D01*
X179392857Y-124796666D01*
X179535714Y-124796666D01*
X179630952Y-124844285D01*
X179678571Y-124891904D01*
X179726190Y-124987142D01*
X179726190Y-125368095D01*
X179202380Y-124463333D02*
X179202380Y-123844285D01*
X179583333Y-124177619D01*
X179583333Y-124034761D01*
X179630952Y-123939523D01*
X179678571Y-123891904D01*
X179773809Y-123844285D01*
X180011904Y-123844285D01*
X180107142Y-123891904D01*
X180154761Y-123939523D01*
X180202380Y-124034761D01*
X180202380Y-124320476D01*
X180154761Y-124415714D01*
X180107142Y-124463333D01*
G04 #@! TO.C,C1*
X138283333Y-136537142D02*
X138235714Y-136584761D01*
X138092857Y-136632380D01*
X137997619Y-136632380D01*
X137854761Y-136584761D01*
X137759523Y-136489523D01*
X137711904Y-136394285D01*
X137664285Y-136203809D01*
X137664285Y-136060952D01*
X137711904Y-135870476D01*
X137759523Y-135775238D01*
X137854761Y-135680000D01*
X137997619Y-135632380D01*
X138092857Y-135632380D01*
X138235714Y-135680000D01*
X138283333Y-135727619D01*
X139235714Y-136632380D02*
X138664285Y-136632380D01*
X138950000Y-136632380D02*
X138950000Y-135632380D01*
X138854761Y-135775238D01*
X138759523Y-135870476D01*
X138664285Y-135918095D01*
G04 #@! TO.C,C3*
X138283333Y-87007142D02*
X138235714Y-87054761D01*
X138092857Y-87102380D01*
X137997619Y-87102380D01*
X137854761Y-87054761D01*
X137759523Y-86959523D01*
X137711904Y-86864285D01*
X137664285Y-86673809D01*
X137664285Y-86530952D01*
X137711904Y-86340476D01*
X137759523Y-86245238D01*
X137854761Y-86150000D01*
X137997619Y-86102380D01*
X138092857Y-86102380D01*
X138235714Y-86150000D01*
X138283333Y-86197619D01*
X138616666Y-86102380D02*
X139235714Y-86102380D01*
X138902380Y-86483333D01*
X139045238Y-86483333D01*
X139140476Y-86530952D01*
X139188095Y-86578571D01*
X139235714Y-86673809D01*
X139235714Y-86911904D01*
X139188095Y-87007142D01*
X139140476Y-87054761D01*
X139045238Y-87102380D01*
X138759523Y-87102380D01*
X138664285Y-87054761D01*
X138616666Y-87007142D01*
G04 #@! TO.C,C2*
X138163333Y-111797142D02*
X138115714Y-111844761D01*
X137972857Y-111892380D01*
X137877619Y-111892380D01*
X137734761Y-111844761D01*
X137639523Y-111749523D01*
X137591904Y-111654285D01*
X137544285Y-111463809D01*
X137544285Y-111320952D01*
X137591904Y-111130476D01*
X137639523Y-111035238D01*
X137734761Y-110940000D01*
X137877619Y-110892380D01*
X137972857Y-110892380D01*
X138115714Y-110940000D01*
X138163333Y-110987619D01*
X138544285Y-110987619D02*
X138591904Y-110940000D01*
X138687142Y-110892380D01*
X138925238Y-110892380D01*
X139020476Y-110940000D01*
X139068095Y-110987619D01*
X139115714Y-111082857D01*
X139115714Y-111178095D01*
X139068095Y-111320952D01*
X138496666Y-111892380D01*
X139115714Y-111892380D01*
G04 #@! TO.C,A1*
X170735714Y-70016666D02*
X171211904Y-70016666D01*
X170640476Y-70302380D02*
X170973809Y-69302380D01*
X171307142Y-70302380D01*
X172164285Y-70302380D02*
X171592857Y-70302380D01*
X171878571Y-70302380D02*
X171878571Y-69302380D01*
X171783333Y-69445238D01*
X171688095Y-69540476D01*
X171592857Y-69588095D01*
G04 #@! TO.C,A4*
X137715714Y-113196666D02*
X138191904Y-113196666D01*
X137620476Y-113482380D02*
X137953809Y-112482380D01*
X138287142Y-113482380D01*
X139049047Y-112815714D02*
X139049047Y-113482380D01*
X138810952Y-112434761D02*
X138572857Y-113149047D01*
X139191904Y-113149047D01*
G04 #@! TO.C,A3*
X137715714Y-88431666D02*
X138191904Y-88431666D01*
X137620476Y-88717380D02*
X137953809Y-87717380D01*
X138287142Y-88717380D01*
X138525238Y-87717380D02*
X139144285Y-87717380D01*
X138810952Y-88098333D01*
X138953809Y-88098333D01*
X139049047Y-88145952D01*
X139096666Y-88193571D01*
X139144285Y-88288809D01*
X139144285Y-88526904D01*
X139096666Y-88622142D01*
X139049047Y-88669761D01*
X138953809Y-88717380D01*
X138668095Y-88717380D01*
X138572857Y-88669761D01*
X138525238Y-88622142D01*
G04 #@! TO.C,A2*
X137715714Y-63666666D02*
X138191904Y-63666666D01*
X137620476Y-63952380D02*
X137953809Y-62952380D01*
X138287142Y-63952380D01*
X138572857Y-63047619D02*
X138620476Y-63000000D01*
X138715714Y-62952380D01*
X138953809Y-62952380D01*
X139049047Y-63000000D01*
X139096666Y-63047619D01*
X139144285Y-63142857D01*
X139144285Y-63238095D01*
X139096666Y-63380952D01*
X138525238Y-63952380D01*
X139144285Y-63952380D01*
G04 #@! TO.C,J1*
X123106666Y-66952380D02*
X123106666Y-67666666D01*
X123059047Y-67809523D01*
X122963809Y-67904761D01*
X122820952Y-67952380D01*
X122725714Y-67952380D01*
X124106666Y-67952380D02*
X123535238Y-67952380D01*
X123820952Y-67952380D02*
X123820952Y-66952380D01*
X123725714Y-67095238D01*
X123630476Y-67190476D01*
X123535238Y-67238095D01*
G04 #@! TD*
M02*
