G04 #@! TF.GenerationSoftware,KiCad,Pcbnew,5.0.0-fee4fd1~66~ubuntu18.04.1*
G04 #@! TF.CreationDate,2018-10-04T01:04:10+02:00*
G04 #@! TF.ProjectId,nano8825,6E616E6F383832352E6B696361645F70,rev?*
G04 #@! TF.SameCoordinates,Original*
G04 #@! TF.FileFunction,Copper,L1,Top,Signal*
G04 #@! TF.FilePolarity,Positive*
%FSLAX46Y46*%
G04 Gerber Fmt 4.6, Leading zero omitted, Abs format (unit mm)*
G04 Created by KiCad (PCBNEW 5.0.0-fee4fd1~66~ubuntu18.04.1) date Thu Oct  4 01:04:10 2018*
%MOMM*%
%LPD*%
G01*
G04 APERTURE LIST*
G04 #@! TA.AperFunction,ComponentPad*
%ADD10R,1.600000X1.600000*%
G04 #@! TD*
G04 #@! TA.AperFunction,ComponentPad*
%ADD11O,1.600000X1.600000*%
G04 #@! TD*
G04 #@! TA.AperFunction,ComponentPad*
%ADD12O,1.700000X1.700000*%
G04 #@! TD*
G04 #@! TA.AperFunction,ComponentPad*
%ADD13R,1.700000X1.700000*%
G04 #@! TD*
G04 #@! TA.AperFunction,ComponentPad*
%ADD14R,2.200000X2.200000*%
G04 #@! TD*
G04 #@! TA.AperFunction,ComponentPad*
%ADD15C,2.200000*%
G04 #@! TD*
G04 #@! TA.AperFunction,ComponentPad*
%ADD16C,1.600000*%
G04 #@! TD*
G04 #@! TA.AperFunction,ComponentPad*
%ADD17C,1.400000*%
G04 #@! TD*
G04 #@! TA.AperFunction,ComponentPad*
%ADD18O,1.400000X1.400000*%
G04 #@! TD*
G04 #@! TA.AperFunction,ComponentPad*
%ADD19R,3.000000X3.000000*%
G04 #@! TD*
G04 #@! TA.AperFunction,ComponentPad*
%ADD20C,3.000000*%
G04 #@! TD*
G04 #@! TA.AperFunction,ViaPad*
%ADD21C,0.800000*%
G04 #@! TD*
G04 #@! TA.AperFunction,Conductor*
%ADD22C,1.500000*%
G04 #@! TD*
G04 #@! TA.AperFunction,Conductor*
%ADD23C,1.000000*%
G04 #@! TD*
G04 APERTURE END LIST*
D10*
G04 #@! TO.P,SW1,1*
G04 #@! TO.N,Net-(A1-Pad27)*
X156210000Y-81280000D03*
D11*
G04 #@! TO.P,SW1,4*
G04 #@! TO.N,Net-(A2-Pad12)*
X148590000Y-76200000D03*
G04 #@! TO.P,SW1,2*
G04 #@! TO.N,Net-(A1-Pad27)*
X156210000Y-78740000D03*
G04 #@! TO.P,SW1,5*
G04 #@! TO.N,Net-(A2-Pad11)*
X148590000Y-78740000D03*
G04 #@! TO.P,SW1,3*
G04 #@! TO.N,Net-(A1-Pad27)*
X156210000Y-76200000D03*
G04 #@! TO.P,SW1,6*
G04 #@! TO.N,Net-(A2-Pad10)*
X148590000Y-81280000D03*
G04 #@! TD*
D10*
G04 #@! TO.P,SW3,1*
G04 #@! TO.N,Net-(A1-Pad27)*
X156210000Y-130810000D03*
D11*
G04 #@! TO.P,SW3,4*
G04 #@! TO.N,Net-(A4-Pad12)*
X148590000Y-125730000D03*
G04 #@! TO.P,SW3,2*
G04 #@! TO.N,Net-(A1-Pad27)*
X156210000Y-128270000D03*
G04 #@! TO.P,SW3,5*
G04 #@! TO.N,Net-(A4-Pad11)*
X148590000Y-128270000D03*
G04 #@! TO.P,SW3,3*
G04 #@! TO.N,Net-(A1-Pad27)*
X156210000Y-125730000D03*
G04 #@! TO.P,SW3,6*
G04 #@! TO.N,Net-(A4-Pad10)*
X148590000Y-130810000D03*
G04 #@! TD*
G04 #@! TO.P,SW2,6*
G04 #@! TO.N,Net-(A3-Pad10)*
X148580000Y-106050000D03*
G04 #@! TO.P,SW2,3*
G04 #@! TO.N,Net-(A1-Pad27)*
X156200000Y-100970000D03*
G04 #@! TO.P,SW2,5*
G04 #@! TO.N,Net-(A3-Pad11)*
X148580000Y-103510000D03*
G04 #@! TO.P,SW2,2*
G04 #@! TO.N,Net-(A1-Pad27)*
X156200000Y-103510000D03*
G04 #@! TO.P,SW2,4*
G04 #@! TO.N,Net-(A3-Pad12)*
X148580000Y-100970000D03*
D10*
G04 #@! TO.P,SW2,1*
G04 #@! TO.N,Net-(A1-Pad27)*
X156200000Y-106050000D03*
G04 #@! TD*
D12*
G04 #@! TO.P,J8,2*
G04 #@! TO.N,Net-(A1-Pad24)*
X179705000Y-81915000D03*
D13*
G04 #@! TO.P,J8,1*
G04 #@! TO.N,Net-(A1-Pad29)*
X179705000Y-79375000D03*
G04 #@! TD*
G04 #@! TO.P,J7,1*
G04 #@! TO.N,Net-(A1-Pad29)*
X159385000Y-60960000D03*
D12*
G04 #@! TO.P,J7,2*
G04 #@! TO.N,Net-(A1-Pad12)*
X161925000Y-60960000D03*
G04 #@! TD*
G04 #@! TO.P,J6,2*
G04 #@! TO.N,Net-(A1-Pad13)*
X170815000Y-60960000D03*
D13*
G04 #@! TO.P,J6,1*
G04 #@! TO.N,Net-(A1-Pad29)*
X168275000Y-60960000D03*
G04 #@! TD*
G04 #@! TO.P,J5,1*
G04 #@! TO.N,Net-(A1-Pad29)*
X177165000Y-60960000D03*
D12*
G04 #@! TO.P,J5,2*
G04 #@! TO.N,Net-(A1-Pad15)*
X179705000Y-60960000D03*
G04 #@! TD*
D14*
G04 #@! TO.P,J4,1*
G04 #@! TO.N,Net-(A4-Pad3)*
X122530000Y-120650000D03*
D15*
G04 #@! TO.P,J4,2*
G04 #@! TO.N,Net-(A4-Pad4)*
X122530000Y-123190000D03*
G04 #@! TO.P,J4,3*
G04 #@! TO.N,Net-(A4-Pad5)*
X122530000Y-125730000D03*
G04 #@! TO.P,J4,4*
G04 #@! TO.N,Net-(A4-Pad6)*
X122530000Y-128270000D03*
G04 #@! TD*
G04 #@! TO.P,J2,4*
G04 #@! TO.N,Net-(A2-Pad6)*
X122880000Y-78770000D03*
G04 #@! TO.P,J2,3*
G04 #@! TO.N,Net-(A2-Pad5)*
X122880000Y-76230000D03*
G04 #@! TO.P,J2,2*
G04 #@! TO.N,Net-(A2-Pad4)*
X122880000Y-73690000D03*
D14*
G04 #@! TO.P,J2,1*
G04 #@! TO.N,Net-(A2-Pad3)*
X122880000Y-71150000D03*
G04 #@! TD*
G04 #@! TO.P,J3,1*
G04 #@! TO.N,Net-(A3-Pad3)*
X122130000Y-95900000D03*
D15*
G04 #@! TO.P,J3,2*
G04 #@! TO.N,Net-(A3-Pad4)*
X122130000Y-98440000D03*
G04 #@! TO.P,J3,3*
G04 #@! TO.N,Net-(A3-Pad5)*
X122130000Y-100980000D03*
G04 #@! TO.P,J3,4*
G04 #@! TO.N,Net-(A3-Pad6)*
X122130000Y-103520000D03*
G04 #@! TD*
D16*
G04 #@! TO.P,C4,1*
G04 #@! TO.N,Net-(A1-Pad15)*
X179705000Y-66040000D03*
G04 #@! TO.P,C4,2*
G04 #@! TO.N,Net-(A1-Pad29)*
X177205000Y-66040000D03*
G04 #@! TD*
G04 #@! TO.P,C5,2*
G04 #@! TO.N,Net-(A1-Pad29)*
X168315000Y-66040000D03*
G04 #@! TO.P,C5,1*
G04 #@! TO.N,Net-(A1-Pad13)*
X170815000Y-66040000D03*
G04 #@! TD*
G04 #@! TO.P,C6,1*
G04 #@! TO.N,Net-(A1-Pad12)*
X161925000Y-66040000D03*
G04 #@! TO.P,C6,2*
G04 #@! TO.N,Net-(A1-Pad29)*
X159425000Y-66040000D03*
G04 #@! TD*
D17*
G04 #@! TO.P,R1,1*
G04 #@! TO.N,Net-(A1-Pad27)*
X168148000Y-77216000D03*
D18*
G04 #@! TO.P,R1,2*
G04 #@! TO.N,Net-(A1-Pad15)*
X173228000Y-77216000D03*
G04 #@! TD*
G04 #@! TO.P,R2,2*
G04 #@! TO.N,Net-(A1-Pad13)*
X173228000Y-73406000D03*
D17*
G04 #@! TO.P,R2,1*
G04 #@! TO.N,Net-(A1-Pad27)*
X168148000Y-73406000D03*
G04 #@! TD*
G04 #@! TO.P,R3,1*
G04 #@! TO.N,Net-(A1-Pad27)*
X168148000Y-69850000D03*
D18*
G04 #@! TO.P,R3,2*
G04 #@! TO.N,Net-(A1-Pad12)*
X173228000Y-69850000D03*
G04 #@! TD*
D10*
G04 #@! TO.P,C1,1*
G04 #@! TO.N,Net-(A2-Pad8)*
X139700000Y-130810000D03*
D16*
G04 #@! TO.P,C1,2*
G04 #@! TO.N,Net-(A1-Pad29)*
X137200000Y-130810000D03*
G04 #@! TD*
D10*
G04 #@! TO.P,C3,1*
G04 #@! TO.N,Net-(A2-Pad8)*
X139700000Y-81280000D03*
D16*
G04 #@! TO.P,C3,2*
G04 #@! TO.N,Net-(A1-Pad29)*
X137200000Y-81280000D03*
G04 #@! TD*
G04 #@! TO.P,C2,2*
G04 #@! TO.N,Net-(A1-Pad29)*
X137080000Y-106070000D03*
D10*
G04 #@! TO.P,C2,1*
G04 #@! TO.N,Net-(A2-Pad8)*
X139580000Y-106070000D03*
G04 #@! TD*
G04 #@! TO.P,A1,1*
G04 #@! TO.N,Net-(A1-Pad1)*
X165100000Y-95250000D03*
D11*
G04 #@! TO.P,A1,17*
G04 #@! TO.N,Net-(A1-Pad17)*
X180340000Y-128270000D03*
G04 #@! TO.P,A1,2*
G04 #@! TO.N,Net-(A1-Pad2)*
X165100000Y-97790000D03*
G04 #@! TO.P,A1,18*
G04 #@! TO.N,Net-(A1-Pad18)*
X180340000Y-125730000D03*
G04 #@! TO.P,A1,3*
G04 #@! TO.N,Net-(A1-Pad3)*
X165100000Y-100330000D03*
G04 #@! TO.P,A1,19*
G04 #@! TO.N,Net-(A1-Pad19)*
X180340000Y-123190000D03*
G04 #@! TO.P,A1,4*
G04 #@! TO.N,Net-(A1-Pad29)*
X165100000Y-102870000D03*
G04 #@! TO.P,A1,20*
G04 #@! TO.N,Net-(A1-Pad20)*
X180340000Y-120650000D03*
G04 #@! TO.P,A1,5*
G04 #@! TO.N,Net-(A1-Pad5)*
X165100000Y-105410000D03*
G04 #@! TO.P,A1,21*
G04 #@! TO.N,Net-(A1-Pad21)*
X180340000Y-118110000D03*
G04 #@! TO.P,A1,6*
G04 #@! TO.N,Net-(A1-Pad6)*
X165100000Y-107950000D03*
G04 #@! TO.P,A1,22*
G04 #@! TO.N,Net-(A1-Pad22)*
X180340000Y-115570000D03*
G04 #@! TO.P,A1,7*
G04 #@! TO.N,Net-(A1-Pad7)*
X165100000Y-110490000D03*
G04 #@! TO.P,A1,23*
G04 #@! TO.N,Net-(A1-Pad23)*
X180340000Y-113030000D03*
G04 #@! TO.P,A1,8*
G04 #@! TO.N,Net-(A1-Pad8)*
X165100000Y-113030000D03*
G04 #@! TO.P,A1,24*
G04 #@! TO.N,Net-(A1-Pad24)*
X180340000Y-110490000D03*
G04 #@! TO.P,A1,9*
G04 #@! TO.N,Net-(A1-Pad9)*
X165100000Y-115570000D03*
G04 #@! TO.P,A1,25*
G04 #@! TO.N,Net-(A1-Pad25)*
X180340000Y-107950000D03*
G04 #@! TO.P,A1,10*
G04 #@! TO.N,Net-(A1-Pad10)*
X165100000Y-118110000D03*
G04 #@! TO.P,A1,26*
G04 #@! TO.N,Net-(A1-Pad26)*
X180340000Y-105410000D03*
G04 #@! TO.P,A1,11*
G04 #@! TO.N,Net-(A1-Pad11)*
X165100000Y-120650000D03*
G04 #@! TO.P,A1,27*
G04 #@! TO.N,Net-(A1-Pad27)*
X180340000Y-102870000D03*
G04 #@! TO.P,A1,12*
G04 #@! TO.N,Net-(A1-Pad12)*
X165100000Y-123190000D03*
G04 #@! TO.P,A1,28*
G04 #@! TO.N,Net-(A1-Pad28)*
X180340000Y-100330000D03*
G04 #@! TO.P,A1,13*
G04 #@! TO.N,Net-(A1-Pad13)*
X165100000Y-125730000D03*
G04 #@! TO.P,A1,29*
G04 #@! TO.N,Net-(A1-Pad29)*
X180340000Y-97790000D03*
G04 #@! TO.P,A1,14*
G04 #@! TO.N,Net-(A1-Pad14)*
X165100000Y-128270000D03*
G04 #@! TO.P,A1,30*
G04 #@! TO.N,Net-(A1-Pad30)*
X180340000Y-95250000D03*
G04 #@! TO.P,A1,15*
G04 #@! TO.N,Net-(A1-Pad15)*
X165100000Y-130810000D03*
G04 #@! TO.P,A1,16*
G04 #@! TO.N,Net-(A1-Pad16)*
X180340000Y-130810000D03*
G04 #@! TD*
D10*
G04 #@! TO.P,A4,1*
G04 #@! TO.N,Net-(A1-Pad29)*
X132080000Y-115570000D03*
D11*
G04 #@! TO.P,A4,9*
G04 #@! TO.N,Net-(A4-Pad9)*
X144780000Y-133350000D03*
G04 #@! TO.P,A4,2*
G04 #@! TO.N,Net-(A1-Pad27)*
X132080000Y-118110000D03*
G04 #@! TO.P,A4,10*
G04 #@! TO.N,Net-(A4-Pad10)*
X144780000Y-130810000D03*
G04 #@! TO.P,A4,3*
G04 #@! TO.N,Net-(A4-Pad3)*
X132080000Y-120650000D03*
G04 #@! TO.P,A4,11*
G04 #@! TO.N,Net-(A4-Pad11)*
X144780000Y-128270000D03*
G04 #@! TO.P,A4,4*
G04 #@! TO.N,Net-(A4-Pad4)*
X132080000Y-123190000D03*
G04 #@! TO.P,A4,12*
G04 #@! TO.N,Net-(A4-Pad12)*
X144780000Y-125730000D03*
G04 #@! TO.P,A4,5*
G04 #@! TO.N,Net-(A4-Pad5)*
X132080000Y-125730000D03*
G04 #@! TO.P,A4,13*
G04 #@! TO.N,Net-(A1-Pad27)*
X144780000Y-123190000D03*
G04 #@! TO.P,A4,6*
G04 #@! TO.N,Net-(A4-Pad6)*
X132080000Y-128270000D03*
G04 #@! TO.P,A4,14*
G04 #@! TO.N,Net-(A1-Pad27)*
X144780000Y-120650000D03*
G04 #@! TO.P,A4,7*
G04 #@! TO.N,Net-(A1-Pad29)*
X132080000Y-130810000D03*
G04 #@! TO.P,A4,15*
G04 #@! TO.N,Net-(A1-Pad10)*
X144780000Y-118110000D03*
G04 #@! TO.P,A4,8*
G04 #@! TO.N,Net-(A2-Pad8)*
X132080000Y-133350000D03*
G04 #@! TO.P,A4,16*
G04 #@! TO.N,Net-(A1-Pad9)*
X144780000Y-115570000D03*
G04 #@! TD*
G04 #@! TO.P,A3,16*
G04 #@! TO.N,Net-(A1-Pad7)*
X144780000Y-90805000D03*
G04 #@! TO.P,A3,8*
G04 #@! TO.N,Net-(A2-Pad8)*
X132080000Y-108585000D03*
G04 #@! TO.P,A3,15*
G04 #@! TO.N,Net-(A1-Pad8)*
X144780000Y-93345000D03*
G04 #@! TO.P,A3,7*
G04 #@! TO.N,Net-(A1-Pad29)*
X132080000Y-106045000D03*
G04 #@! TO.P,A3,14*
G04 #@! TO.N,Net-(A1-Pad27)*
X144780000Y-95885000D03*
G04 #@! TO.P,A3,6*
G04 #@! TO.N,Net-(A3-Pad6)*
X132080000Y-103505000D03*
G04 #@! TO.P,A3,13*
G04 #@! TO.N,Net-(A1-Pad27)*
X144780000Y-98425000D03*
G04 #@! TO.P,A3,5*
G04 #@! TO.N,Net-(A3-Pad5)*
X132080000Y-100965000D03*
G04 #@! TO.P,A3,12*
G04 #@! TO.N,Net-(A3-Pad12)*
X144780000Y-100965000D03*
G04 #@! TO.P,A3,4*
G04 #@! TO.N,Net-(A3-Pad4)*
X132080000Y-98425000D03*
G04 #@! TO.P,A3,11*
G04 #@! TO.N,Net-(A3-Pad11)*
X144780000Y-103505000D03*
G04 #@! TO.P,A3,3*
G04 #@! TO.N,Net-(A3-Pad3)*
X132080000Y-95885000D03*
G04 #@! TO.P,A3,10*
G04 #@! TO.N,Net-(A3-Pad10)*
X144780000Y-106045000D03*
G04 #@! TO.P,A3,2*
G04 #@! TO.N,Net-(A1-Pad27)*
X132080000Y-93345000D03*
G04 #@! TO.P,A3,9*
G04 #@! TO.N,Net-(A3-Pad9)*
X144780000Y-108585000D03*
D10*
G04 #@! TO.P,A3,1*
G04 #@! TO.N,Net-(A1-Pad29)*
X132080000Y-90805000D03*
G04 #@! TD*
G04 #@! TO.P,A2,1*
G04 #@! TO.N,Net-(A1-Pad29)*
X132080000Y-66040000D03*
D11*
G04 #@! TO.P,A2,9*
G04 #@! TO.N,Net-(A2-Pad9)*
X144780000Y-83820000D03*
G04 #@! TO.P,A2,2*
G04 #@! TO.N,Net-(A1-Pad27)*
X132080000Y-68580000D03*
G04 #@! TO.P,A2,10*
G04 #@! TO.N,Net-(A2-Pad10)*
X144780000Y-81280000D03*
G04 #@! TO.P,A2,3*
G04 #@! TO.N,Net-(A2-Pad3)*
X132080000Y-71120000D03*
G04 #@! TO.P,A2,11*
G04 #@! TO.N,Net-(A2-Pad11)*
X144780000Y-78740000D03*
G04 #@! TO.P,A2,4*
G04 #@! TO.N,Net-(A2-Pad4)*
X132080000Y-73660000D03*
G04 #@! TO.P,A2,12*
G04 #@! TO.N,Net-(A2-Pad12)*
X144780000Y-76200000D03*
G04 #@! TO.P,A2,5*
G04 #@! TO.N,Net-(A2-Pad5)*
X132080000Y-76200000D03*
G04 #@! TO.P,A2,13*
G04 #@! TO.N,Net-(A1-Pad27)*
X144780000Y-73660000D03*
G04 #@! TO.P,A2,6*
G04 #@! TO.N,Net-(A2-Pad6)*
X132080000Y-78740000D03*
G04 #@! TO.P,A2,14*
G04 #@! TO.N,Net-(A1-Pad27)*
X144780000Y-71120000D03*
G04 #@! TO.P,A2,7*
G04 #@! TO.N,Net-(A1-Pad29)*
X132080000Y-81280000D03*
G04 #@! TO.P,A2,15*
G04 #@! TO.N,Net-(A1-Pad6)*
X144780000Y-68580000D03*
G04 #@! TO.P,A2,8*
G04 #@! TO.N,Net-(A2-Pad8)*
X132080000Y-83820000D03*
G04 #@! TO.P,A2,16*
G04 #@! TO.N,Net-(A1-Pad5)*
X144780000Y-66040000D03*
G04 #@! TD*
D19*
G04 #@! TO.P,J1,1*
G04 #@! TO.N,Net-(A2-Pad8)*
X125980000Y-62420000D03*
D20*
G04 #@! TO.P,J1,2*
G04 #@! TO.N,Net-(A1-Pad29)*
X120900000Y-62420000D03*
G04 #@! TD*
D21*
G04 #@! TO.N,Net-(A1-Pad29)*
X167640000Y-88646000D03*
X180086000Y-88646000D03*
G04 #@! TD*
D22*
G04 #@! TO.N,Net-(A1-Pad29)*
X167640000Y-88646000D02*
X180086000Y-88646000D01*
D23*
G04 #@! TO.N,Net-(A1-Pad27)*
X132080000Y-118110000D02*
X140462000Y-118110000D01*
X143002000Y-120650000D02*
X144780000Y-120650000D01*
X140462000Y-118110000D02*
X143002000Y-120650000D01*
X142875000Y-95885000D02*
X144780000Y-95885000D01*
X132080000Y-93345000D02*
X140335000Y-93345000D01*
X140335000Y-93345000D02*
X142875000Y-95885000D01*
X142748000Y-71120000D02*
X144780000Y-71120000D01*
X132080000Y-68580000D02*
X140208000Y-68580000D01*
X140208000Y-68580000D02*
X142748000Y-71120000D01*
G04 #@! TD*
M02*
