G04 #@! TF.GenerationSoftware,KiCad,Pcbnew,5.0.0-rc2-dev-unknown-ccb668c~64~ubuntu18.04.1*
G04 #@! TF.CreationDate,2018-04-29T16:36:45+02:00*
G04 #@! TF.ProjectId,nano8825,6E616E6F383832352E6B696361645F70,rev?*
G04 #@! TF.SameCoordinates,Original*
G04 #@! TF.FileFunction,Legend,Top*
G04 #@! TF.FilePolarity,Positive*
%FSLAX46Y46*%
G04 Gerber Fmt 4.6, Leading zero omitted, Abs format (unit mm)*
G04 Created by KiCad (PCBNEW 5.0.0-rc2-dev-unknown-ccb668c~64~ubuntu18.04.1) date Sun Apr 29 16:36:45 2018*
%MOMM*%
%LPD*%
G01*
G04 APERTURE LIST*
%ADD10C,0.300000*%
%ADD11C,0.200000*%
%ADD12C,0.120000*%
%ADD13C,0.150000*%
G04 APERTURE END LIST*
D10*
X95642857Y-55178571D02*
X95642857Y-53678571D01*
X96214285Y-53678571D01*
X96357142Y-53750000D01*
X96428571Y-53821428D01*
X96500000Y-53964285D01*
X96500000Y-54178571D01*
X96428571Y-54321428D01*
X96357142Y-54392857D01*
X96214285Y-54464285D01*
X95642857Y-54464285D01*
X97142857Y-55178571D02*
X97142857Y-54178571D01*
X97142857Y-54464285D02*
X97214285Y-54321428D01*
X97285714Y-54250000D01*
X97428571Y-54178571D01*
X97571428Y-54178571D01*
X98285714Y-55178571D02*
X98142857Y-55107142D01*
X98071428Y-55035714D01*
X98000000Y-54892857D01*
X98000000Y-54464285D01*
X98071428Y-54321428D01*
X98142857Y-54250000D01*
X98285714Y-54178571D01*
X98500000Y-54178571D01*
X98642857Y-54250000D01*
X98714285Y-54321428D01*
X98785714Y-54464285D01*
X98785714Y-54892857D01*
X98714285Y-55035714D01*
X98642857Y-55107142D01*
X98500000Y-55178571D01*
X98285714Y-55178571D01*
X99428571Y-55178571D02*
X99428571Y-53678571D01*
X99428571Y-54250000D02*
X99571428Y-54178571D01*
X99857142Y-54178571D01*
X100000000Y-54250000D01*
X100071428Y-54321428D01*
X100142857Y-54464285D01*
X100142857Y-54892857D01*
X100071428Y-55035714D01*
X100000000Y-55107142D01*
X99857142Y-55178571D01*
X99571428Y-55178571D01*
X99428571Y-55107142D01*
X101357142Y-55107142D02*
X101214285Y-55178571D01*
X100928571Y-55178571D01*
X100785714Y-55107142D01*
X100714285Y-54964285D01*
X100714285Y-54392857D01*
X100785714Y-54250000D01*
X100928571Y-54178571D01*
X101214285Y-54178571D01*
X101357142Y-54250000D01*
X101428571Y-54392857D01*
X101428571Y-54535714D01*
X100714285Y-54678571D01*
D11*
X98400000Y-109000000D02*
X93650000Y-109000000D01*
X98350000Y-111500000D02*
X98400000Y-109000000D01*
X93700000Y-111500000D02*
X98350000Y-111500000D01*
X93650000Y-109000000D02*
X93700000Y-111500000D01*
D10*
X103600000Y-128753571D02*
X104600000Y-128753571D01*
X103600000Y-130253571D01*
X104600000Y-130253571D01*
X102421428Y-132803571D02*
X101707142Y-132803571D01*
X101707142Y-131303571D01*
X102921428Y-132803571D02*
X102921428Y-131303571D01*
X103635714Y-132803571D02*
X103635714Y-131303571D01*
X104135714Y-132375000D01*
X104635714Y-131303571D01*
X104635714Y-132803571D01*
X105350000Y-132803571D02*
X105350000Y-131303571D01*
X105850000Y-131303571D02*
X106707142Y-131303571D01*
X106278571Y-132803571D02*
X106278571Y-131303571D01*
X96550000Y-129539285D02*
X96550000Y-130253571D01*
X96050000Y-128753571D02*
X96550000Y-129539285D01*
X97050000Y-128753571D01*
X94871428Y-132803571D02*
X94157142Y-132803571D01*
X94157142Y-131303571D01*
X95371428Y-132803571D02*
X95371428Y-131303571D01*
X96085714Y-132803571D02*
X96085714Y-131303571D01*
X96585714Y-132375000D01*
X97085714Y-131303571D01*
X97085714Y-132803571D01*
X97800000Y-132803571D02*
X97800000Y-131303571D01*
X98300000Y-131303571D02*
X99157142Y-131303571D01*
X98728571Y-132803571D02*
X98728571Y-131303571D01*
X88050000Y-128903571D02*
X89050000Y-130403571D01*
X89050000Y-128903571D02*
X88050000Y-130403571D01*
X86871428Y-132953571D02*
X86157142Y-132953571D01*
X86157142Y-131453571D01*
X87371428Y-132953571D02*
X87371428Y-131453571D01*
X88085714Y-132953571D02*
X88085714Y-131453571D01*
X88585714Y-132525000D01*
X89085714Y-131453571D01*
X89085714Y-132953571D01*
X89800000Y-132953571D02*
X89800000Y-131453571D01*
X90300000Y-131453571D02*
X91157142Y-131453571D01*
X90728571Y-132953571D02*
X90728571Y-131453571D01*
X51303571Y-127664285D02*
X52803571Y-127164285D01*
X51303571Y-126664285D01*
X52803571Y-126164285D02*
X51303571Y-126164285D01*
X52375000Y-125664285D01*
X51303571Y-125164285D01*
X52803571Y-125164285D01*
X51303571Y-124164285D02*
X51303571Y-123878571D01*
X51375000Y-123735714D01*
X51517857Y-123592857D01*
X51803571Y-123521428D01*
X52303571Y-123521428D01*
X52589285Y-123592857D01*
X52732142Y-123735714D01*
X52803571Y-123878571D01*
X52803571Y-124164285D01*
X52732142Y-124307142D01*
X52589285Y-124450000D01*
X52303571Y-124521428D01*
X51803571Y-124521428D01*
X51517857Y-124450000D01*
X51375000Y-124307142D01*
X51303571Y-124164285D01*
X51303571Y-123092857D02*
X51303571Y-122235714D01*
X52803571Y-122664285D02*
X51303571Y-122664285D01*
X54782142Y-127021428D02*
X54782142Y-125878571D01*
X55353571Y-126450000D02*
X54210714Y-126450000D01*
X54782142Y-124021428D02*
X54782142Y-122878571D01*
X51353571Y-102814285D02*
X52853571Y-102314285D01*
X51353571Y-101814285D01*
X52853571Y-101314285D02*
X51353571Y-101314285D01*
X52425000Y-100814285D01*
X51353571Y-100314285D01*
X52853571Y-100314285D01*
X51353571Y-99314285D02*
X51353571Y-99028571D01*
X51425000Y-98885714D01*
X51567857Y-98742857D01*
X51853571Y-98671428D01*
X52353571Y-98671428D01*
X52639285Y-98742857D01*
X52782142Y-98885714D01*
X52853571Y-99028571D01*
X52853571Y-99314285D01*
X52782142Y-99457142D01*
X52639285Y-99600000D01*
X52353571Y-99671428D01*
X51853571Y-99671428D01*
X51567857Y-99600000D01*
X51425000Y-99457142D01*
X51353571Y-99314285D01*
X51353571Y-98242857D02*
X51353571Y-97385714D01*
X52853571Y-97814285D02*
X51353571Y-97814285D01*
X54832142Y-102171428D02*
X54832142Y-101028571D01*
X55403571Y-101600000D02*
X54260714Y-101600000D01*
X54832142Y-99171428D02*
X54832142Y-98028571D01*
X50853571Y-78364285D02*
X52353571Y-77864285D01*
X50853571Y-77364285D01*
X52353571Y-76864285D02*
X50853571Y-76864285D01*
X51925000Y-76364285D01*
X50853571Y-75864285D01*
X52353571Y-75864285D01*
X50853571Y-74864285D02*
X50853571Y-74578571D01*
X50925000Y-74435714D01*
X51067857Y-74292857D01*
X51353571Y-74221428D01*
X51853571Y-74221428D01*
X52139285Y-74292857D01*
X52282142Y-74435714D01*
X52353571Y-74578571D01*
X52353571Y-74864285D01*
X52282142Y-75007142D01*
X52139285Y-75150000D01*
X51853571Y-75221428D01*
X51353571Y-75221428D01*
X51067857Y-75150000D01*
X50925000Y-75007142D01*
X50853571Y-74864285D01*
X50853571Y-73792857D02*
X50853571Y-72935714D01*
X52353571Y-73364285D02*
X50853571Y-73364285D01*
X54332142Y-77721428D02*
X54332142Y-76578571D01*
X54903571Y-77150000D02*
X53760714Y-77150000D01*
X54332142Y-74721428D02*
X54332142Y-73578571D01*
X84128571Y-125007142D02*
X82628571Y-125007142D01*
X83700000Y-124507142D01*
X82628571Y-124007142D01*
X84128571Y-124007142D01*
X82628571Y-123007142D02*
X82628571Y-122864285D01*
X82700000Y-122721428D01*
X82771428Y-122650000D01*
X82914285Y-122578571D01*
X83200000Y-122507142D01*
X83557142Y-122507142D01*
X83842857Y-122578571D01*
X83985714Y-122650000D01*
X84057142Y-122721428D01*
X84128571Y-122864285D01*
X84128571Y-123007142D01*
X84057142Y-123150000D01*
X83985714Y-123221428D01*
X83842857Y-123292857D01*
X83557142Y-123364285D01*
X83200000Y-123364285D01*
X82914285Y-123292857D01*
X82771428Y-123221428D01*
X82700000Y-123150000D01*
X82628571Y-123007142D01*
X84128571Y-121864285D02*
X82628571Y-121864285D01*
X83700000Y-121364285D01*
X82628571Y-120864285D01*
X84128571Y-120864285D01*
X84128571Y-119364285D02*
X84128571Y-120221428D01*
X84128571Y-119792857D02*
X82628571Y-119792857D01*
X82842857Y-119935714D01*
X82985714Y-120078571D01*
X83057142Y-120221428D01*
X84128571Y-118721428D02*
X82628571Y-118721428D01*
X83700000Y-118221428D01*
X82628571Y-117721428D01*
X84128571Y-117721428D01*
X82771428Y-117078571D02*
X82700000Y-117007142D01*
X82628571Y-116864285D01*
X82628571Y-116507142D01*
X82700000Y-116364285D01*
X82771428Y-116292857D01*
X82914285Y-116221428D01*
X83057142Y-116221428D01*
X83271428Y-116292857D01*
X84128571Y-117150000D01*
X84128571Y-116221428D01*
X84628571Y-100257142D02*
X83128571Y-100257142D01*
X84200000Y-99757142D01*
X83128571Y-99257142D01*
X84628571Y-99257142D01*
X83128571Y-98257142D02*
X83128571Y-98114285D01*
X83200000Y-97971428D01*
X83271428Y-97900000D01*
X83414285Y-97828571D01*
X83700000Y-97757142D01*
X84057142Y-97757142D01*
X84342857Y-97828571D01*
X84485714Y-97900000D01*
X84557142Y-97971428D01*
X84628571Y-98114285D01*
X84628571Y-98257142D01*
X84557142Y-98400000D01*
X84485714Y-98471428D01*
X84342857Y-98542857D01*
X84057142Y-98614285D01*
X83700000Y-98614285D01*
X83414285Y-98542857D01*
X83271428Y-98471428D01*
X83200000Y-98400000D01*
X83128571Y-98257142D01*
X84628571Y-97114285D02*
X83128571Y-97114285D01*
X84200000Y-96614285D01*
X83128571Y-96114285D01*
X84628571Y-96114285D01*
X84628571Y-94614285D02*
X84628571Y-95471428D01*
X84628571Y-95042857D02*
X83128571Y-95042857D01*
X83342857Y-95185714D01*
X83485714Y-95328571D01*
X83557142Y-95471428D01*
X84628571Y-93971428D02*
X83128571Y-93971428D01*
X84200000Y-93471428D01*
X83128571Y-92971428D01*
X84628571Y-92971428D01*
X83271428Y-92328571D02*
X83200000Y-92257142D01*
X83128571Y-92114285D01*
X83128571Y-91757142D01*
X83200000Y-91614285D01*
X83271428Y-91542857D01*
X83414285Y-91471428D01*
X83557142Y-91471428D01*
X83771428Y-91542857D01*
X84628571Y-92400000D01*
X84628571Y-91471428D01*
X84628571Y-76057142D02*
X83128571Y-76057142D01*
X84200000Y-75557142D01*
X83128571Y-75057142D01*
X84628571Y-75057142D01*
X83128571Y-74057142D02*
X83128571Y-73914285D01*
X83200000Y-73771428D01*
X83271428Y-73700000D01*
X83414285Y-73628571D01*
X83700000Y-73557142D01*
X84057142Y-73557142D01*
X84342857Y-73628571D01*
X84485714Y-73700000D01*
X84557142Y-73771428D01*
X84628571Y-73914285D01*
X84628571Y-74057142D01*
X84557142Y-74200000D01*
X84485714Y-74271428D01*
X84342857Y-74342857D01*
X84057142Y-74414285D01*
X83700000Y-74414285D01*
X83414285Y-74342857D01*
X83271428Y-74271428D01*
X83200000Y-74200000D01*
X83128571Y-74057142D01*
X84628571Y-72914285D02*
X83128571Y-72914285D01*
X84200000Y-72414285D01*
X83128571Y-71914285D01*
X84628571Y-71914285D01*
X84628571Y-70414285D02*
X84628571Y-71271428D01*
X84628571Y-70842857D02*
X83128571Y-70842857D01*
X83342857Y-70985714D01*
X83485714Y-71128571D01*
X83557142Y-71271428D01*
X84628571Y-69771428D02*
X83128571Y-69771428D01*
X84200000Y-69271428D01*
X83128571Y-68771428D01*
X84628571Y-68771428D01*
X83271428Y-68128571D02*
X83200000Y-68057142D01*
X83128571Y-67914285D01*
X83128571Y-67557142D01*
X83200000Y-67414285D01*
X83271428Y-67342857D01*
X83414285Y-67271428D01*
X83557142Y-67271428D01*
X83771428Y-67342857D01*
X84628571Y-68200000D01*
X84628571Y-67271428D01*
X38803571Y-117250000D02*
X38803571Y-116250000D01*
X40303571Y-117250000D01*
X40303571Y-116250000D01*
X42425000Y-122964285D02*
X42425000Y-122250000D01*
X42853571Y-123107142D02*
X41353571Y-122607142D01*
X42853571Y-122107142D01*
X42282142Y-121607142D02*
X42282142Y-120464285D01*
X42853571Y-121035714D02*
X41710714Y-121035714D01*
X42425000Y-119821428D02*
X42425000Y-119107142D01*
X42853571Y-119964285D02*
X41353571Y-119464285D01*
X42853571Y-118964285D01*
X42282142Y-118464285D02*
X42282142Y-117321428D01*
X42067857Y-116107142D02*
X42139285Y-115892857D01*
X42210714Y-115821428D01*
X42353571Y-115750000D01*
X42567857Y-115750000D01*
X42710714Y-115821428D01*
X42782142Y-115892857D01*
X42853571Y-116035714D01*
X42853571Y-116607142D01*
X41353571Y-116607142D01*
X41353571Y-116107142D01*
X41425000Y-115964285D01*
X41496428Y-115892857D01*
X41639285Y-115821428D01*
X41782142Y-115821428D01*
X41925000Y-115892857D01*
X41996428Y-115964285D01*
X42067857Y-116107142D01*
X42067857Y-116607142D01*
X42282142Y-115107142D02*
X42282142Y-113964285D01*
X42853571Y-114535714D02*
X41710714Y-114535714D01*
X42067857Y-112750000D02*
X42139285Y-112535714D01*
X42210714Y-112464285D01*
X42353571Y-112392857D01*
X42567857Y-112392857D01*
X42710714Y-112464285D01*
X42782142Y-112535714D01*
X42853571Y-112678571D01*
X42853571Y-113250000D01*
X41353571Y-113250000D01*
X41353571Y-112750000D01*
X41425000Y-112607142D01*
X41496428Y-112535714D01*
X41639285Y-112464285D01*
X41782142Y-112464285D01*
X41925000Y-112535714D01*
X41996428Y-112607142D01*
X42067857Y-112750000D01*
X42067857Y-113250000D01*
X42282142Y-111750000D02*
X42282142Y-110607142D01*
X39239285Y-91800000D02*
X39953571Y-91800000D01*
X38453571Y-92300000D02*
X39239285Y-91800000D01*
X38453571Y-91300000D01*
X42075000Y-98014285D02*
X42075000Y-97300000D01*
X42503571Y-98157142D02*
X41003571Y-97657142D01*
X42503571Y-97157142D01*
X41932142Y-96657142D02*
X41932142Y-95514285D01*
X42503571Y-96085714D02*
X41360714Y-96085714D01*
X42075000Y-94871428D02*
X42075000Y-94157142D01*
X42503571Y-95014285D02*
X41003571Y-94514285D01*
X42503571Y-94014285D01*
X41932142Y-93514285D02*
X41932142Y-92371428D01*
X41717857Y-91157142D02*
X41789285Y-90942857D01*
X41860714Y-90871428D01*
X42003571Y-90800000D01*
X42217857Y-90800000D01*
X42360714Y-90871428D01*
X42432142Y-90942857D01*
X42503571Y-91085714D01*
X42503571Y-91657142D01*
X41003571Y-91657142D01*
X41003571Y-91157142D01*
X41075000Y-91014285D01*
X41146428Y-90942857D01*
X41289285Y-90871428D01*
X41432142Y-90871428D01*
X41575000Y-90942857D01*
X41646428Y-91014285D01*
X41717857Y-91157142D01*
X41717857Y-91657142D01*
X41932142Y-90157142D02*
X41932142Y-89014285D01*
X42503571Y-89585714D02*
X41360714Y-89585714D01*
X41717857Y-87800000D02*
X41789285Y-87585714D01*
X41860714Y-87514285D01*
X42003571Y-87442857D01*
X42217857Y-87442857D01*
X42360714Y-87514285D01*
X42432142Y-87585714D01*
X42503571Y-87728571D01*
X42503571Y-88300000D01*
X41003571Y-88300000D01*
X41003571Y-87800000D01*
X41075000Y-87657142D01*
X41146428Y-87585714D01*
X41289285Y-87514285D01*
X41432142Y-87514285D01*
X41575000Y-87585714D01*
X41646428Y-87657142D01*
X41717857Y-87800000D01*
X41717857Y-88300000D01*
X41932142Y-86800000D02*
X41932142Y-85657142D01*
X39403571Y-67650000D02*
X40903571Y-66650000D01*
X39403571Y-66650000D02*
X40903571Y-67650000D01*
X43025000Y-73364285D02*
X43025000Y-72650000D01*
X43453571Y-73507142D02*
X41953571Y-73007142D01*
X43453571Y-72507142D01*
X42882142Y-72007142D02*
X42882142Y-70864285D01*
X43453571Y-71435714D02*
X42310714Y-71435714D01*
X43025000Y-70221428D02*
X43025000Y-69507142D01*
X43453571Y-70364285D02*
X41953571Y-69864285D01*
X43453571Y-69364285D01*
X42882142Y-68864285D02*
X42882142Y-67721428D01*
X42667857Y-66507142D02*
X42739285Y-66292857D01*
X42810714Y-66221428D01*
X42953571Y-66150000D01*
X43167857Y-66150000D01*
X43310714Y-66221428D01*
X43382142Y-66292857D01*
X43453571Y-66435714D01*
X43453571Y-67007142D01*
X41953571Y-67007142D01*
X41953571Y-66507142D01*
X42025000Y-66364285D01*
X42096428Y-66292857D01*
X42239285Y-66221428D01*
X42382142Y-66221428D01*
X42525000Y-66292857D01*
X42596428Y-66364285D01*
X42667857Y-66507142D01*
X42667857Y-67007142D01*
X42882142Y-65507142D02*
X42882142Y-64364285D01*
X43453571Y-64935714D02*
X42310714Y-64935714D01*
X42667857Y-63150000D02*
X42739285Y-62935714D01*
X42810714Y-62864285D01*
X42953571Y-62792857D01*
X43167857Y-62792857D01*
X43310714Y-62864285D01*
X43382142Y-62935714D01*
X43453571Y-63078571D01*
X43453571Y-63650000D01*
X41953571Y-63650000D01*
X41953571Y-63150000D01*
X42025000Y-63007142D01*
X42096428Y-62935714D01*
X42239285Y-62864285D01*
X42382142Y-62864285D01*
X42525000Y-62935714D01*
X42596428Y-63007142D01*
X42667857Y-63150000D01*
X42667857Y-63650000D01*
X42882142Y-62150000D02*
X42882142Y-61007142D01*
X94107142Y-109578571D02*
X94107142Y-110792857D01*
X94178571Y-110935714D01*
X94250000Y-111007142D01*
X94392857Y-111078571D01*
X94678571Y-111078571D01*
X94821428Y-111007142D01*
X94892857Y-110935714D01*
X94964285Y-110792857D01*
X94964285Y-109578571D01*
X95607142Y-111007142D02*
X95821428Y-111078571D01*
X96178571Y-111078571D01*
X96321428Y-111007142D01*
X96392857Y-110935714D01*
X96464285Y-110792857D01*
X96464285Y-110650000D01*
X96392857Y-110507142D01*
X96321428Y-110435714D01*
X96178571Y-110364285D01*
X95892857Y-110292857D01*
X95750000Y-110221428D01*
X95678571Y-110150000D01*
X95607142Y-110007142D01*
X95607142Y-109864285D01*
X95678571Y-109721428D01*
X95750000Y-109650000D01*
X95892857Y-109578571D01*
X96250000Y-109578571D01*
X96464285Y-109650000D01*
X97607142Y-110292857D02*
X97821428Y-110364285D01*
X97892857Y-110435714D01*
X97964285Y-110578571D01*
X97964285Y-110792857D01*
X97892857Y-110935714D01*
X97821428Y-111007142D01*
X97678571Y-111078571D01*
X97107142Y-111078571D01*
X97107142Y-109578571D01*
X97607142Y-109578571D01*
X97750000Y-109650000D01*
X97821428Y-109721428D01*
X97892857Y-109864285D01*
X97892857Y-110007142D01*
X97821428Y-110150000D01*
X97750000Y-110221428D01*
X97607142Y-110292857D01*
X97107142Y-110292857D01*
X44142857Y-49607142D02*
X45285714Y-49607142D01*
X45785714Y-48678571D02*
X46285714Y-50178571D01*
X46785714Y-48678571D01*
X47285714Y-50178571D02*
X47285714Y-48678571D01*
X47785714Y-49750000D01*
X48285714Y-48678571D01*
X48285714Y-50178571D01*
X49285714Y-48678571D02*
X49571428Y-48678571D01*
X49714285Y-48750000D01*
X49857142Y-48892857D01*
X49928571Y-49178571D01*
X49928571Y-49678571D01*
X49857142Y-49964285D01*
X49714285Y-50107142D01*
X49571428Y-50178571D01*
X49285714Y-50178571D01*
X49142857Y-50107142D01*
X49000000Y-49964285D01*
X48928571Y-49678571D01*
X48928571Y-49178571D01*
X49000000Y-48892857D01*
X49142857Y-48750000D01*
X49285714Y-48678571D01*
X50357142Y-48678571D02*
X51214285Y-48678571D01*
X50785714Y-50178571D02*
X50785714Y-48678571D01*
X51714285Y-49607142D02*
X52857142Y-49607142D01*
X52285714Y-50178571D02*
X52285714Y-49035714D01*
D12*
X95670000Y-57500000D02*
X95670000Y-56170000D01*
X95670000Y-56170000D02*
X97000000Y-56170000D01*
X98270000Y-56170000D02*
X100870000Y-56170000D01*
X100870000Y-58830000D02*
X100870000Y-56170000D01*
X98270000Y-58830000D02*
X100870000Y-58830000D01*
X98270000Y-58830000D02*
X98270000Y-56170000D01*
X104020000Y-128030000D02*
X104020000Y-125370000D01*
X104020000Y-128030000D02*
X106620000Y-128030000D01*
X106620000Y-128030000D02*
X106620000Y-125370000D01*
X104020000Y-125370000D02*
X106620000Y-125370000D01*
X101420000Y-125370000D02*
X102750000Y-125370000D01*
X101420000Y-126700000D02*
X101420000Y-125370000D01*
X93745000Y-126700000D02*
X93745000Y-125370000D01*
X93745000Y-125370000D02*
X95075000Y-125370000D01*
X96345000Y-125370000D02*
X98945000Y-125370000D01*
X98945000Y-128030000D02*
X98945000Y-125370000D01*
X96345000Y-128030000D02*
X98945000Y-128030000D01*
X96345000Y-128030000D02*
X96345000Y-125370000D01*
X88670000Y-128030000D02*
X88670000Y-125370000D01*
X88670000Y-128030000D02*
X91270000Y-128030000D01*
X91270000Y-128030000D02*
X91270000Y-125370000D01*
X88670000Y-125370000D02*
X91270000Y-125370000D01*
X86070000Y-125370000D02*
X87400000Y-125370000D01*
X86070000Y-126700000D02*
X86070000Y-125370000D01*
X45000000Y-111470000D02*
X45000000Y-122210000D01*
X50300000Y-111470000D02*
X50300000Y-122210000D01*
X50760000Y-111470000D02*
X50760000Y-122210000D01*
X44440000Y-111470000D02*
X44440000Y-122210000D01*
X50760000Y-111470000D02*
X44440000Y-111470000D01*
X50760000Y-122210000D02*
X44440000Y-122210000D01*
X44940000Y-111230000D02*
X44200000Y-111230000D01*
X44200000Y-111230000D02*
X44200000Y-111730000D01*
X44550000Y-61730000D02*
X44550000Y-62230000D01*
X45290000Y-61730000D02*
X44550000Y-61730000D01*
X51110000Y-72710000D02*
X44790000Y-72710000D01*
X51110000Y-61970000D02*
X44790000Y-61970000D01*
X44790000Y-61970000D02*
X44790000Y-72710000D01*
X51110000Y-61970000D02*
X51110000Y-72710000D01*
X50650000Y-61970000D02*
X50650000Y-72710000D01*
X45350000Y-61970000D02*
X45350000Y-72710000D01*
X44600000Y-86720000D02*
X44600000Y-97460000D01*
X49900000Y-86720000D02*
X49900000Y-97460000D01*
X50360000Y-86720000D02*
X50360000Y-97460000D01*
X44040000Y-86720000D02*
X44040000Y-97460000D01*
X50360000Y-86720000D02*
X44040000Y-86720000D01*
X50360000Y-97460000D02*
X44040000Y-97460000D01*
X44540000Y-86480000D02*
X43800000Y-86480000D01*
X43800000Y-86480000D02*
X43800000Y-86980000D01*
X85913000Y-122689000D02*
X87087000Y-122689000D01*
X85913000Y-124411000D02*
X87087000Y-124411000D01*
X93937000Y-122689000D02*
X92763000Y-122689000D01*
X93937000Y-124411000D02*
X92763000Y-124411000D01*
X101537000Y-124511000D02*
X100363000Y-124511000D01*
X101537000Y-122789000D02*
X100363000Y-122789000D01*
X87620000Y-116740000D02*
X87620000Y-120580000D01*
X85780000Y-116740000D02*
X85780000Y-120580000D01*
X99380000Y-115090000D02*
X99380000Y-118930000D01*
X101220000Y-115090000D02*
X101220000Y-118930000D01*
X103820000Y-115090000D02*
X103820000Y-118930000D01*
X101980000Y-115090000D02*
X101980000Y-118930000D01*
X67640000Y-123190000D02*
G75*
G03X67640000Y-123190000I-4120000J0D01*
G01*
X63520000Y-127270000D02*
X63520000Y-119110000D01*
X63480000Y-127270000D02*
X63480000Y-119110000D01*
X63440000Y-127270000D02*
X63440000Y-119110000D01*
X63400000Y-127269000D02*
X63400000Y-119111000D01*
X63360000Y-127267000D02*
X63360000Y-119113000D01*
X63320000Y-127266000D02*
X63320000Y-119114000D01*
X63280000Y-127264000D02*
X63280000Y-124230000D01*
X63280000Y-122150000D02*
X63280000Y-119116000D01*
X63240000Y-127261000D02*
X63240000Y-124230000D01*
X63240000Y-122150000D02*
X63240000Y-119119000D01*
X63200000Y-127258000D02*
X63200000Y-124230000D01*
X63200000Y-122150000D02*
X63200000Y-119122000D01*
X63160000Y-127255000D02*
X63160000Y-124230000D01*
X63160000Y-122150000D02*
X63160000Y-119125000D01*
X63120000Y-127251000D02*
X63120000Y-124230000D01*
X63120000Y-122150000D02*
X63120000Y-119129000D01*
X63080000Y-127247000D02*
X63080000Y-124230000D01*
X63080000Y-122150000D02*
X63080000Y-119133000D01*
X63040000Y-127242000D02*
X63040000Y-124230000D01*
X63040000Y-122150000D02*
X63040000Y-119138000D01*
X63000000Y-127238000D02*
X63000000Y-124230000D01*
X63000000Y-122150000D02*
X63000000Y-119142000D01*
X62960000Y-127232000D02*
X62960000Y-124230000D01*
X62960000Y-122150000D02*
X62960000Y-119148000D01*
X62920000Y-127227000D02*
X62920000Y-124230000D01*
X62920000Y-122150000D02*
X62920000Y-119153000D01*
X62880000Y-127220000D02*
X62880000Y-124230000D01*
X62880000Y-122150000D02*
X62880000Y-119160000D01*
X62840000Y-127214000D02*
X62840000Y-124230000D01*
X62840000Y-122150000D02*
X62840000Y-119166000D01*
X62799000Y-127207000D02*
X62799000Y-124230000D01*
X62799000Y-122150000D02*
X62799000Y-119173000D01*
X62759000Y-127200000D02*
X62759000Y-124230000D01*
X62759000Y-122150000D02*
X62759000Y-119180000D01*
X62719000Y-127192000D02*
X62719000Y-124230000D01*
X62719000Y-122150000D02*
X62719000Y-119188000D01*
X62679000Y-127184000D02*
X62679000Y-124230000D01*
X62679000Y-122150000D02*
X62679000Y-119196000D01*
X62639000Y-127175000D02*
X62639000Y-124230000D01*
X62639000Y-122150000D02*
X62639000Y-119205000D01*
X62599000Y-127166000D02*
X62599000Y-124230000D01*
X62599000Y-122150000D02*
X62599000Y-119214000D01*
X62559000Y-127157000D02*
X62559000Y-124230000D01*
X62559000Y-122150000D02*
X62559000Y-119223000D01*
X62519000Y-127147000D02*
X62519000Y-124230000D01*
X62519000Y-122150000D02*
X62519000Y-119233000D01*
X62479000Y-127137000D02*
X62479000Y-124230000D01*
X62479000Y-122150000D02*
X62479000Y-119243000D01*
X62439000Y-127126000D02*
X62439000Y-124230000D01*
X62439000Y-122150000D02*
X62439000Y-119254000D01*
X62399000Y-127115000D02*
X62399000Y-124230000D01*
X62399000Y-122150000D02*
X62399000Y-119265000D01*
X62359000Y-127104000D02*
X62359000Y-124230000D01*
X62359000Y-122150000D02*
X62359000Y-119276000D01*
X62319000Y-127092000D02*
X62319000Y-124230000D01*
X62319000Y-122150000D02*
X62319000Y-119288000D01*
X62279000Y-127079000D02*
X62279000Y-124230000D01*
X62279000Y-122150000D02*
X62279000Y-119301000D01*
X62239000Y-127067000D02*
X62239000Y-124230000D01*
X62239000Y-122150000D02*
X62239000Y-119313000D01*
X62199000Y-127053000D02*
X62199000Y-124230000D01*
X62199000Y-122150000D02*
X62199000Y-119327000D01*
X62159000Y-127040000D02*
X62159000Y-124230000D01*
X62159000Y-122150000D02*
X62159000Y-119340000D01*
X62119000Y-127025000D02*
X62119000Y-124230000D01*
X62119000Y-122150000D02*
X62119000Y-119355000D01*
X62079000Y-127011000D02*
X62079000Y-124230000D01*
X62079000Y-122150000D02*
X62079000Y-119369000D01*
X62039000Y-126995000D02*
X62039000Y-124230000D01*
X62039000Y-122150000D02*
X62039000Y-119385000D01*
X61999000Y-126980000D02*
X61999000Y-124230000D01*
X61999000Y-122150000D02*
X61999000Y-119400000D01*
X61959000Y-126964000D02*
X61959000Y-124230000D01*
X61959000Y-122150000D02*
X61959000Y-119416000D01*
X61919000Y-126947000D02*
X61919000Y-124230000D01*
X61919000Y-122150000D02*
X61919000Y-119433000D01*
X61879000Y-126930000D02*
X61879000Y-124230000D01*
X61879000Y-122150000D02*
X61879000Y-119450000D01*
X61839000Y-126912000D02*
X61839000Y-124230000D01*
X61839000Y-122150000D02*
X61839000Y-119468000D01*
X61799000Y-126894000D02*
X61799000Y-124230000D01*
X61799000Y-122150000D02*
X61799000Y-119486000D01*
X61759000Y-126876000D02*
X61759000Y-124230000D01*
X61759000Y-122150000D02*
X61759000Y-119504000D01*
X61719000Y-126856000D02*
X61719000Y-124230000D01*
X61719000Y-122150000D02*
X61719000Y-119524000D01*
X61679000Y-126837000D02*
X61679000Y-124230000D01*
X61679000Y-122150000D02*
X61679000Y-119543000D01*
X61639000Y-126817000D02*
X61639000Y-124230000D01*
X61639000Y-122150000D02*
X61639000Y-119563000D01*
X61599000Y-126796000D02*
X61599000Y-124230000D01*
X61599000Y-122150000D02*
X61599000Y-119584000D01*
X61559000Y-126774000D02*
X61559000Y-124230000D01*
X61559000Y-122150000D02*
X61559000Y-119606000D01*
X61519000Y-126752000D02*
X61519000Y-124230000D01*
X61519000Y-122150000D02*
X61519000Y-119628000D01*
X61479000Y-126730000D02*
X61479000Y-124230000D01*
X61479000Y-122150000D02*
X61479000Y-119650000D01*
X61439000Y-126707000D02*
X61439000Y-124230000D01*
X61439000Y-122150000D02*
X61439000Y-119673000D01*
X61399000Y-126683000D02*
X61399000Y-124230000D01*
X61399000Y-122150000D02*
X61399000Y-119697000D01*
X61359000Y-126659000D02*
X61359000Y-124230000D01*
X61359000Y-122150000D02*
X61359000Y-119721000D01*
X61319000Y-126634000D02*
X61319000Y-124230000D01*
X61319000Y-122150000D02*
X61319000Y-119746000D01*
X61279000Y-126608000D02*
X61279000Y-124230000D01*
X61279000Y-122150000D02*
X61279000Y-119772000D01*
X61239000Y-126582000D02*
X61239000Y-124230000D01*
X61239000Y-122150000D02*
X61239000Y-119798000D01*
X61199000Y-126555000D02*
X61199000Y-119825000D01*
X61159000Y-126528000D02*
X61159000Y-119852000D01*
X61119000Y-126499000D02*
X61119000Y-119881000D01*
X61079000Y-126470000D02*
X61079000Y-119910000D01*
X61039000Y-126440000D02*
X61039000Y-119940000D01*
X60999000Y-126410000D02*
X60999000Y-119970000D01*
X60959000Y-126379000D02*
X60959000Y-120001000D01*
X60919000Y-126346000D02*
X60919000Y-120034000D01*
X60879000Y-126314000D02*
X60879000Y-120066000D01*
X60839000Y-126280000D02*
X60839000Y-120100000D01*
X60799000Y-126245000D02*
X60799000Y-120135000D01*
X60759000Y-126209000D02*
X60759000Y-120171000D01*
X60719000Y-126173000D02*
X60719000Y-120207000D01*
X60679000Y-126135000D02*
X60679000Y-120245000D01*
X60639000Y-126097000D02*
X60639000Y-120283000D01*
X60599000Y-126057000D02*
X60599000Y-120323000D01*
X60559000Y-126016000D02*
X60559000Y-120364000D01*
X60519000Y-125974000D02*
X60519000Y-120406000D01*
X60479000Y-125931000D02*
X60479000Y-120449000D01*
X60439000Y-125887000D02*
X60439000Y-120493000D01*
X60399000Y-125841000D02*
X60399000Y-120539000D01*
X60359000Y-125794000D02*
X60359000Y-120586000D01*
X60319000Y-125746000D02*
X60319000Y-120634000D01*
X60279000Y-125695000D02*
X60279000Y-120685000D01*
X60239000Y-125644000D02*
X60239000Y-120736000D01*
X60199000Y-125590000D02*
X60199000Y-120790000D01*
X60159000Y-125535000D02*
X60159000Y-120845000D01*
X60119000Y-125477000D02*
X60119000Y-120903000D01*
X60079000Y-125418000D02*
X60079000Y-120962000D01*
X60039000Y-125356000D02*
X60039000Y-121024000D01*
X59999000Y-125292000D02*
X59999000Y-121088000D01*
X59959000Y-125224000D02*
X59959000Y-121156000D01*
X59919000Y-125154000D02*
X59919000Y-121226000D01*
X59879000Y-125080000D02*
X59879000Y-121300000D01*
X59839000Y-125003000D02*
X59839000Y-121377000D01*
X59799000Y-124921000D02*
X59799000Y-121459000D01*
X59759000Y-124835000D02*
X59759000Y-121545000D01*
X59719000Y-124742000D02*
X59719000Y-121638000D01*
X59679000Y-124643000D02*
X59679000Y-121737000D01*
X59639000Y-124536000D02*
X59639000Y-121844000D01*
X59599000Y-124419000D02*
X59599000Y-121961000D01*
X59559000Y-124288000D02*
X59559000Y-122092000D01*
X59519000Y-124138000D02*
X59519000Y-122242000D01*
X59479000Y-123958000D02*
X59479000Y-122422000D01*
X59439000Y-123723000D02*
X59439000Y-122657000D01*
X67929698Y-125505000D02*
X67129698Y-125505000D01*
X67529698Y-125905000D02*
X67529698Y-125105000D01*
X67640000Y-73660000D02*
G75*
G03X67640000Y-73660000I-4120000J0D01*
G01*
X63520000Y-77740000D02*
X63520000Y-69580000D01*
X63480000Y-77740000D02*
X63480000Y-69580000D01*
X63440000Y-77740000D02*
X63440000Y-69580000D01*
X63400000Y-77739000D02*
X63400000Y-69581000D01*
X63360000Y-77737000D02*
X63360000Y-69583000D01*
X63320000Y-77736000D02*
X63320000Y-69584000D01*
X63280000Y-77734000D02*
X63280000Y-74700000D01*
X63280000Y-72620000D02*
X63280000Y-69586000D01*
X63240000Y-77731000D02*
X63240000Y-74700000D01*
X63240000Y-72620000D02*
X63240000Y-69589000D01*
X63200000Y-77728000D02*
X63200000Y-74700000D01*
X63200000Y-72620000D02*
X63200000Y-69592000D01*
X63160000Y-77725000D02*
X63160000Y-74700000D01*
X63160000Y-72620000D02*
X63160000Y-69595000D01*
X63120000Y-77721000D02*
X63120000Y-74700000D01*
X63120000Y-72620000D02*
X63120000Y-69599000D01*
X63080000Y-77717000D02*
X63080000Y-74700000D01*
X63080000Y-72620000D02*
X63080000Y-69603000D01*
X63040000Y-77712000D02*
X63040000Y-74700000D01*
X63040000Y-72620000D02*
X63040000Y-69608000D01*
X63000000Y-77708000D02*
X63000000Y-74700000D01*
X63000000Y-72620000D02*
X63000000Y-69612000D01*
X62960000Y-77702000D02*
X62960000Y-74700000D01*
X62960000Y-72620000D02*
X62960000Y-69618000D01*
X62920000Y-77697000D02*
X62920000Y-74700000D01*
X62920000Y-72620000D02*
X62920000Y-69623000D01*
X62880000Y-77690000D02*
X62880000Y-74700000D01*
X62880000Y-72620000D02*
X62880000Y-69630000D01*
X62840000Y-77684000D02*
X62840000Y-74700000D01*
X62840000Y-72620000D02*
X62840000Y-69636000D01*
X62799000Y-77677000D02*
X62799000Y-74700000D01*
X62799000Y-72620000D02*
X62799000Y-69643000D01*
X62759000Y-77670000D02*
X62759000Y-74700000D01*
X62759000Y-72620000D02*
X62759000Y-69650000D01*
X62719000Y-77662000D02*
X62719000Y-74700000D01*
X62719000Y-72620000D02*
X62719000Y-69658000D01*
X62679000Y-77654000D02*
X62679000Y-74700000D01*
X62679000Y-72620000D02*
X62679000Y-69666000D01*
X62639000Y-77645000D02*
X62639000Y-74700000D01*
X62639000Y-72620000D02*
X62639000Y-69675000D01*
X62599000Y-77636000D02*
X62599000Y-74700000D01*
X62599000Y-72620000D02*
X62599000Y-69684000D01*
X62559000Y-77627000D02*
X62559000Y-74700000D01*
X62559000Y-72620000D02*
X62559000Y-69693000D01*
X62519000Y-77617000D02*
X62519000Y-74700000D01*
X62519000Y-72620000D02*
X62519000Y-69703000D01*
X62479000Y-77607000D02*
X62479000Y-74700000D01*
X62479000Y-72620000D02*
X62479000Y-69713000D01*
X62439000Y-77596000D02*
X62439000Y-74700000D01*
X62439000Y-72620000D02*
X62439000Y-69724000D01*
X62399000Y-77585000D02*
X62399000Y-74700000D01*
X62399000Y-72620000D02*
X62399000Y-69735000D01*
X62359000Y-77574000D02*
X62359000Y-74700000D01*
X62359000Y-72620000D02*
X62359000Y-69746000D01*
X62319000Y-77562000D02*
X62319000Y-74700000D01*
X62319000Y-72620000D02*
X62319000Y-69758000D01*
X62279000Y-77549000D02*
X62279000Y-74700000D01*
X62279000Y-72620000D02*
X62279000Y-69771000D01*
X62239000Y-77537000D02*
X62239000Y-74700000D01*
X62239000Y-72620000D02*
X62239000Y-69783000D01*
X62199000Y-77523000D02*
X62199000Y-74700000D01*
X62199000Y-72620000D02*
X62199000Y-69797000D01*
X62159000Y-77510000D02*
X62159000Y-74700000D01*
X62159000Y-72620000D02*
X62159000Y-69810000D01*
X62119000Y-77495000D02*
X62119000Y-74700000D01*
X62119000Y-72620000D02*
X62119000Y-69825000D01*
X62079000Y-77481000D02*
X62079000Y-74700000D01*
X62079000Y-72620000D02*
X62079000Y-69839000D01*
X62039000Y-77465000D02*
X62039000Y-74700000D01*
X62039000Y-72620000D02*
X62039000Y-69855000D01*
X61999000Y-77450000D02*
X61999000Y-74700000D01*
X61999000Y-72620000D02*
X61999000Y-69870000D01*
X61959000Y-77434000D02*
X61959000Y-74700000D01*
X61959000Y-72620000D02*
X61959000Y-69886000D01*
X61919000Y-77417000D02*
X61919000Y-74700000D01*
X61919000Y-72620000D02*
X61919000Y-69903000D01*
X61879000Y-77400000D02*
X61879000Y-74700000D01*
X61879000Y-72620000D02*
X61879000Y-69920000D01*
X61839000Y-77382000D02*
X61839000Y-74700000D01*
X61839000Y-72620000D02*
X61839000Y-69938000D01*
X61799000Y-77364000D02*
X61799000Y-74700000D01*
X61799000Y-72620000D02*
X61799000Y-69956000D01*
X61759000Y-77346000D02*
X61759000Y-74700000D01*
X61759000Y-72620000D02*
X61759000Y-69974000D01*
X61719000Y-77326000D02*
X61719000Y-74700000D01*
X61719000Y-72620000D02*
X61719000Y-69994000D01*
X61679000Y-77307000D02*
X61679000Y-74700000D01*
X61679000Y-72620000D02*
X61679000Y-70013000D01*
X61639000Y-77287000D02*
X61639000Y-74700000D01*
X61639000Y-72620000D02*
X61639000Y-70033000D01*
X61599000Y-77266000D02*
X61599000Y-74700000D01*
X61599000Y-72620000D02*
X61599000Y-70054000D01*
X61559000Y-77244000D02*
X61559000Y-74700000D01*
X61559000Y-72620000D02*
X61559000Y-70076000D01*
X61519000Y-77222000D02*
X61519000Y-74700000D01*
X61519000Y-72620000D02*
X61519000Y-70098000D01*
X61479000Y-77200000D02*
X61479000Y-74700000D01*
X61479000Y-72620000D02*
X61479000Y-70120000D01*
X61439000Y-77177000D02*
X61439000Y-74700000D01*
X61439000Y-72620000D02*
X61439000Y-70143000D01*
X61399000Y-77153000D02*
X61399000Y-74700000D01*
X61399000Y-72620000D02*
X61399000Y-70167000D01*
X61359000Y-77129000D02*
X61359000Y-74700000D01*
X61359000Y-72620000D02*
X61359000Y-70191000D01*
X61319000Y-77104000D02*
X61319000Y-74700000D01*
X61319000Y-72620000D02*
X61319000Y-70216000D01*
X61279000Y-77078000D02*
X61279000Y-74700000D01*
X61279000Y-72620000D02*
X61279000Y-70242000D01*
X61239000Y-77052000D02*
X61239000Y-74700000D01*
X61239000Y-72620000D02*
X61239000Y-70268000D01*
X61199000Y-77025000D02*
X61199000Y-70295000D01*
X61159000Y-76998000D02*
X61159000Y-70322000D01*
X61119000Y-76969000D02*
X61119000Y-70351000D01*
X61079000Y-76940000D02*
X61079000Y-70380000D01*
X61039000Y-76910000D02*
X61039000Y-70410000D01*
X60999000Y-76880000D02*
X60999000Y-70440000D01*
X60959000Y-76849000D02*
X60959000Y-70471000D01*
X60919000Y-76816000D02*
X60919000Y-70504000D01*
X60879000Y-76784000D02*
X60879000Y-70536000D01*
X60839000Y-76750000D02*
X60839000Y-70570000D01*
X60799000Y-76715000D02*
X60799000Y-70605000D01*
X60759000Y-76679000D02*
X60759000Y-70641000D01*
X60719000Y-76643000D02*
X60719000Y-70677000D01*
X60679000Y-76605000D02*
X60679000Y-70715000D01*
X60639000Y-76567000D02*
X60639000Y-70753000D01*
X60599000Y-76527000D02*
X60599000Y-70793000D01*
X60559000Y-76486000D02*
X60559000Y-70834000D01*
X60519000Y-76444000D02*
X60519000Y-70876000D01*
X60479000Y-76401000D02*
X60479000Y-70919000D01*
X60439000Y-76357000D02*
X60439000Y-70963000D01*
X60399000Y-76311000D02*
X60399000Y-71009000D01*
X60359000Y-76264000D02*
X60359000Y-71056000D01*
X60319000Y-76216000D02*
X60319000Y-71104000D01*
X60279000Y-76165000D02*
X60279000Y-71155000D01*
X60239000Y-76114000D02*
X60239000Y-71206000D01*
X60199000Y-76060000D02*
X60199000Y-71260000D01*
X60159000Y-76005000D02*
X60159000Y-71315000D01*
X60119000Y-75947000D02*
X60119000Y-71373000D01*
X60079000Y-75888000D02*
X60079000Y-71432000D01*
X60039000Y-75826000D02*
X60039000Y-71494000D01*
X59999000Y-75762000D02*
X59999000Y-71558000D01*
X59959000Y-75694000D02*
X59959000Y-71626000D01*
X59919000Y-75624000D02*
X59919000Y-71696000D01*
X59879000Y-75550000D02*
X59879000Y-71770000D01*
X59839000Y-75473000D02*
X59839000Y-71847000D01*
X59799000Y-75391000D02*
X59799000Y-71929000D01*
X59759000Y-75305000D02*
X59759000Y-72015000D01*
X59719000Y-75212000D02*
X59719000Y-72108000D01*
X59679000Y-75113000D02*
X59679000Y-72207000D01*
X59639000Y-75006000D02*
X59639000Y-72314000D01*
X59599000Y-74889000D02*
X59599000Y-72431000D01*
X59559000Y-74758000D02*
X59559000Y-72562000D01*
X59519000Y-74608000D02*
X59519000Y-72712000D01*
X59479000Y-74428000D02*
X59479000Y-72892000D01*
X59439000Y-74193000D02*
X59439000Y-73127000D01*
X67929698Y-75975000D02*
X67129698Y-75975000D01*
X67529698Y-76375000D02*
X67529698Y-75575000D01*
X67409698Y-101165000D02*
X67409698Y-100365000D01*
X67809698Y-100765000D02*
X67009698Y-100765000D01*
X59319000Y-98983000D02*
X59319000Y-97917000D01*
X59359000Y-99218000D02*
X59359000Y-97682000D01*
X59399000Y-99398000D02*
X59399000Y-97502000D01*
X59439000Y-99548000D02*
X59439000Y-97352000D01*
X59479000Y-99679000D02*
X59479000Y-97221000D01*
X59519000Y-99796000D02*
X59519000Y-97104000D01*
X59559000Y-99903000D02*
X59559000Y-96997000D01*
X59599000Y-100002000D02*
X59599000Y-96898000D01*
X59639000Y-100095000D02*
X59639000Y-96805000D01*
X59679000Y-100181000D02*
X59679000Y-96719000D01*
X59719000Y-100263000D02*
X59719000Y-96637000D01*
X59759000Y-100340000D02*
X59759000Y-96560000D01*
X59799000Y-100414000D02*
X59799000Y-96486000D01*
X59839000Y-100484000D02*
X59839000Y-96416000D01*
X59879000Y-100552000D02*
X59879000Y-96348000D01*
X59919000Y-100616000D02*
X59919000Y-96284000D01*
X59959000Y-100678000D02*
X59959000Y-96222000D01*
X59999000Y-100737000D02*
X59999000Y-96163000D01*
X60039000Y-100795000D02*
X60039000Y-96105000D01*
X60079000Y-100850000D02*
X60079000Y-96050000D01*
X60119000Y-100904000D02*
X60119000Y-95996000D01*
X60159000Y-100955000D02*
X60159000Y-95945000D01*
X60199000Y-101006000D02*
X60199000Y-95894000D01*
X60239000Y-101054000D02*
X60239000Y-95846000D01*
X60279000Y-101101000D02*
X60279000Y-95799000D01*
X60319000Y-101147000D02*
X60319000Y-95753000D01*
X60359000Y-101191000D02*
X60359000Y-95709000D01*
X60399000Y-101234000D02*
X60399000Y-95666000D01*
X60439000Y-101276000D02*
X60439000Y-95624000D01*
X60479000Y-101317000D02*
X60479000Y-95583000D01*
X60519000Y-101357000D02*
X60519000Y-95543000D01*
X60559000Y-101395000D02*
X60559000Y-95505000D01*
X60599000Y-101433000D02*
X60599000Y-95467000D01*
X60639000Y-101469000D02*
X60639000Y-95431000D01*
X60679000Y-101505000D02*
X60679000Y-95395000D01*
X60719000Y-101540000D02*
X60719000Y-95360000D01*
X60759000Y-101574000D02*
X60759000Y-95326000D01*
X60799000Y-101606000D02*
X60799000Y-95294000D01*
X60839000Y-101639000D02*
X60839000Y-95261000D01*
X60879000Y-101670000D02*
X60879000Y-95230000D01*
X60919000Y-101700000D02*
X60919000Y-95200000D01*
X60959000Y-101730000D02*
X60959000Y-95170000D01*
X60999000Y-101759000D02*
X60999000Y-95141000D01*
X61039000Y-101788000D02*
X61039000Y-95112000D01*
X61079000Y-101815000D02*
X61079000Y-95085000D01*
X61119000Y-97410000D02*
X61119000Y-95058000D01*
X61119000Y-101842000D02*
X61119000Y-99490000D01*
X61159000Y-97410000D02*
X61159000Y-95032000D01*
X61159000Y-101868000D02*
X61159000Y-99490000D01*
X61199000Y-97410000D02*
X61199000Y-95006000D01*
X61199000Y-101894000D02*
X61199000Y-99490000D01*
X61239000Y-97410000D02*
X61239000Y-94981000D01*
X61239000Y-101919000D02*
X61239000Y-99490000D01*
X61279000Y-97410000D02*
X61279000Y-94957000D01*
X61279000Y-101943000D02*
X61279000Y-99490000D01*
X61319000Y-97410000D02*
X61319000Y-94933000D01*
X61319000Y-101967000D02*
X61319000Y-99490000D01*
X61359000Y-97410000D02*
X61359000Y-94910000D01*
X61359000Y-101990000D02*
X61359000Y-99490000D01*
X61399000Y-97410000D02*
X61399000Y-94888000D01*
X61399000Y-102012000D02*
X61399000Y-99490000D01*
X61439000Y-97410000D02*
X61439000Y-94866000D01*
X61439000Y-102034000D02*
X61439000Y-99490000D01*
X61479000Y-97410000D02*
X61479000Y-94844000D01*
X61479000Y-102056000D02*
X61479000Y-99490000D01*
X61519000Y-97410000D02*
X61519000Y-94823000D01*
X61519000Y-102077000D02*
X61519000Y-99490000D01*
X61559000Y-97410000D02*
X61559000Y-94803000D01*
X61559000Y-102097000D02*
X61559000Y-99490000D01*
X61599000Y-97410000D02*
X61599000Y-94784000D01*
X61599000Y-102116000D02*
X61599000Y-99490000D01*
X61639000Y-97410000D02*
X61639000Y-94764000D01*
X61639000Y-102136000D02*
X61639000Y-99490000D01*
X61679000Y-97410000D02*
X61679000Y-94746000D01*
X61679000Y-102154000D02*
X61679000Y-99490000D01*
X61719000Y-97410000D02*
X61719000Y-94728000D01*
X61719000Y-102172000D02*
X61719000Y-99490000D01*
X61759000Y-97410000D02*
X61759000Y-94710000D01*
X61759000Y-102190000D02*
X61759000Y-99490000D01*
X61799000Y-97410000D02*
X61799000Y-94693000D01*
X61799000Y-102207000D02*
X61799000Y-99490000D01*
X61839000Y-97410000D02*
X61839000Y-94676000D01*
X61839000Y-102224000D02*
X61839000Y-99490000D01*
X61879000Y-97410000D02*
X61879000Y-94660000D01*
X61879000Y-102240000D02*
X61879000Y-99490000D01*
X61919000Y-97410000D02*
X61919000Y-94645000D01*
X61919000Y-102255000D02*
X61919000Y-99490000D01*
X61959000Y-97410000D02*
X61959000Y-94629000D01*
X61959000Y-102271000D02*
X61959000Y-99490000D01*
X61999000Y-97410000D02*
X61999000Y-94615000D01*
X61999000Y-102285000D02*
X61999000Y-99490000D01*
X62039000Y-97410000D02*
X62039000Y-94600000D01*
X62039000Y-102300000D02*
X62039000Y-99490000D01*
X62079000Y-97410000D02*
X62079000Y-94587000D01*
X62079000Y-102313000D02*
X62079000Y-99490000D01*
X62119000Y-97410000D02*
X62119000Y-94573000D01*
X62119000Y-102327000D02*
X62119000Y-99490000D01*
X62159000Y-97410000D02*
X62159000Y-94561000D01*
X62159000Y-102339000D02*
X62159000Y-99490000D01*
X62199000Y-97410000D02*
X62199000Y-94548000D01*
X62199000Y-102352000D02*
X62199000Y-99490000D01*
X62239000Y-97410000D02*
X62239000Y-94536000D01*
X62239000Y-102364000D02*
X62239000Y-99490000D01*
X62279000Y-97410000D02*
X62279000Y-94525000D01*
X62279000Y-102375000D02*
X62279000Y-99490000D01*
X62319000Y-97410000D02*
X62319000Y-94514000D01*
X62319000Y-102386000D02*
X62319000Y-99490000D01*
X62359000Y-97410000D02*
X62359000Y-94503000D01*
X62359000Y-102397000D02*
X62359000Y-99490000D01*
X62399000Y-97410000D02*
X62399000Y-94493000D01*
X62399000Y-102407000D02*
X62399000Y-99490000D01*
X62439000Y-97410000D02*
X62439000Y-94483000D01*
X62439000Y-102417000D02*
X62439000Y-99490000D01*
X62479000Y-97410000D02*
X62479000Y-94474000D01*
X62479000Y-102426000D02*
X62479000Y-99490000D01*
X62519000Y-97410000D02*
X62519000Y-94465000D01*
X62519000Y-102435000D02*
X62519000Y-99490000D01*
X62559000Y-97410000D02*
X62559000Y-94456000D01*
X62559000Y-102444000D02*
X62559000Y-99490000D01*
X62599000Y-97410000D02*
X62599000Y-94448000D01*
X62599000Y-102452000D02*
X62599000Y-99490000D01*
X62639000Y-97410000D02*
X62639000Y-94440000D01*
X62639000Y-102460000D02*
X62639000Y-99490000D01*
X62679000Y-97410000D02*
X62679000Y-94433000D01*
X62679000Y-102467000D02*
X62679000Y-99490000D01*
X62720000Y-97410000D02*
X62720000Y-94426000D01*
X62720000Y-102474000D02*
X62720000Y-99490000D01*
X62760000Y-97410000D02*
X62760000Y-94420000D01*
X62760000Y-102480000D02*
X62760000Y-99490000D01*
X62800000Y-97410000D02*
X62800000Y-94413000D01*
X62800000Y-102487000D02*
X62800000Y-99490000D01*
X62840000Y-97410000D02*
X62840000Y-94408000D01*
X62840000Y-102492000D02*
X62840000Y-99490000D01*
X62880000Y-97410000D02*
X62880000Y-94402000D01*
X62880000Y-102498000D02*
X62880000Y-99490000D01*
X62920000Y-97410000D02*
X62920000Y-94398000D01*
X62920000Y-102502000D02*
X62920000Y-99490000D01*
X62960000Y-97410000D02*
X62960000Y-94393000D01*
X62960000Y-102507000D02*
X62960000Y-99490000D01*
X63000000Y-97410000D02*
X63000000Y-94389000D01*
X63000000Y-102511000D02*
X63000000Y-99490000D01*
X63040000Y-97410000D02*
X63040000Y-94385000D01*
X63040000Y-102515000D02*
X63040000Y-99490000D01*
X63080000Y-97410000D02*
X63080000Y-94382000D01*
X63080000Y-102518000D02*
X63080000Y-99490000D01*
X63120000Y-97410000D02*
X63120000Y-94379000D01*
X63120000Y-102521000D02*
X63120000Y-99490000D01*
X63160000Y-97410000D02*
X63160000Y-94376000D01*
X63160000Y-102524000D02*
X63160000Y-99490000D01*
X63200000Y-102526000D02*
X63200000Y-94374000D01*
X63240000Y-102527000D02*
X63240000Y-94373000D01*
X63280000Y-102529000D02*
X63280000Y-94371000D01*
X63320000Y-102530000D02*
X63320000Y-94370000D01*
X63360000Y-102530000D02*
X63360000Y-94370000D01*
X63400000Y-102530000D02*
X63400000Y-94370000D01*
X67520000Y-98450000D02*
G75*
G03X67520000Y-98450000I-4120000J0D01*
G01*
X90170000Y-68580000D02*
X90170000Y-66040000D01*
X90170000Y-66040000D02*
X87500000Y-66040000D01*
X87500000Y-68580000D02*
X87500000Y-106810000D01*
X87500000Y-63370000D02*
X87500000Y-66040000D01*
X102870000Y-66040000D02*
X105540000Y-66040000D01*
X102870000Y-66040000D02*
X102870000Y-104140000D01*
X102870000Y-104140000D02*
X105540000Y-104140000D01*
X90170000Y-68580000D02*
X87500000Y-68580000D01*
X90170000Y-68580000D02*
X90170000Y-104140000D01*
X90170000Y-104140000D02*
X87500000Y-104140000D01*
X87500000Y-106810000D02*
X105540000Y-106810000D01*
X105540000Y-106810000D02*
X105540000Y-63370000D01*
X105540000Y-63370000D02*
X87500000Y-63370000D01*
X68580000Y-106550000D02*
X68580000Y-127130000D01*
X58420000Y-109220000D02*
X58420000Y-127130000D01*
X57150000Y-106550000D02*
X55750000Y-106550000D01*
X55750000Y-106550000D02*
X55750000Y-107950000D01*
X58420000Y-106550000D02*
X58420000Y-109220000D01*
X58420000Y-109220000D02*
X55750000Y-109220000D01*
X55750000Y-109220000D02*
X55750000Y-127130000D01*
X55750000Y-127130000D02*
X71250000Y-127130000D01*
X71250000Y-127130000D02*
X71250000Y-106550000D01*
X71250000Y-106550000D02*
X58420000Y-106550000D01*
X71250000Y-81785000D02*
X58420000Y-81785000D01*
X71250000Y-102365000D02*
X71250000Y-81785000D01*
X55750000Y-102365000D02*
X71250000Y-102365000D01*
X55750000Y-84455000D02*
X55750000Y-102365000D01*
X58420000Y-84455000D02*
X55750000Y-84455000D01*
X58420000Y-81785000D02*
X58420000Y-84455000D01*
X55750000Y-81785000D02*
X55750000Y-83185000D01*
X57150000Y-81785000D02*
X55750000Y-81785000D01*
X58420000Y-84455000D02*
X58420000Y-102365000D01*
X68580000Y-81785000D02*
X68580000Y-102365000D01*
X68580000Y-57020000D02*
X68580000Y-77600000D01*
X58420000Y-59690000D02*
X58420000Y-77600000D01*
X57150000Y-57020000D02*
X55750000Y-57020000D01*
X55750000Y-57020000D02*
X55750000Y-58420000D01*
X58420000Y-57020000D02*
X58420000Y-59690000D01*
X58420000Y-59690000D02*
X55750000Y-59690000D01*
X55750000Y-59690000D02*
X55750000Y-77600000D01*
X55750000Y-77600000D02*
X71250000Y-77600000D01*
X71250000Y-77600000D02*
X71250000Y-57020000D01*
X71250000Y-57020000D02*
X58420000Y-57020000D01*
X76470000Y-124520000D02*
G75*
G02X78470000Y-124520000I1000000J0D01*
G01*
X78470000Y-124520000D02*
X80120000Y-124520000D01*
X80120000Y-124520000D02*
X80120000Y-116780000D01*
X80120000Y-116780000D02*
X74820000Y-116780000D01*
X74820000Y-116780000D02*
X74820000Y-124520000D01*
X74820000Y-124520000D02*
X76470000Y-124520000D01*
X74810000Y-99760000D02*
X76460000Y-99760000D01*
X74810000Y-92020000D02*
X74810000Y-99760000D01*
X80110000Y-92020000D02*
X74810000Y-92020000D01*
X80110000Y-99760000D02*
X80110000Y-92020000D01*
X78460000Y-99760000D02*
X80110000Y-99760000D01*
X76460000Y-99760000D02*
G75*
G02X78460000Y-99760000I1000000J0D01*
G01*
X76470000Y-74990000D02*
G75*
G02X78470000Y-74990000I1000000J0D01*
G01*
X78470000Y-74990000D02*
X80120000Y-74990000D01*
X80120000Y-74990000D02*
X80120000Y-67250000D01*
X80120000Y-67250000D02*
X74820000Y-67250000D01*
X74820000Y-67250000D02*
X74820000Y-74990000D01*
X74820000Y-74990000D02*
X76470000Y-74990000D01*
X43430000Y-52260000D02*
X53590000Y-52260000D01*
X43430000Y-50990000D02*
X43430000Y-58610000D01*
X43430000Y-58610000D02*
X53590000Y-58610000D01*
X53590000Y-58610000D02*
X53590000Y-50990000D01*
X53590000Y-50990000D02*
X43430000Y-50990000D01*
D13*
X93682380Y-57833333D02*
X94396666Y-57833333D01*
X94539523Y-57880952D01*
X94634761Y-57976190D01*
X94682380Y-58119047D01*
X94682380Y-58214285D01*
X94110952Y-57214285D02*
X94063333Y-57309523D01*
X94015714Y-57357142D01*
X93920476Y-57404761D01*
X93872857Y-57404761D01*
X93777619Y-57357142D01*
X93730000Y-57309523D01*
X93682380Y-57214285D01*
X93682380Y-57023809D01*
X93730000Y-56928571D01*
X93777619Y-56880952D01*
X93872857Y-56833333D01*
X93920476Y-56833333D01*
X94015714Y-56880952D01*
X94063333Y-56928571D01*
X94110952Y-57023809D01*
X94110952Y-57214285D01*
X94158571Y-57309523D01*
X94206190Y-57357142D01*
X94301428Y-57404761D01*
X94491904Y-57404761D01*
X94587142Y-57357142D01*
X94634761Y-57309523D01*
X94682380Y-57214285D01*
X94682380Y-57023809D01*
X94634761Y-56928571D01*
X94587142Y-56880952D01*
X94491904Y-56833333D01*
X94301428Y-56833333D01*
X94206190Y-56880952D01*
X94158571Y-56928571D01*
X94110952Y-57023809D01*
X99432380Y-127033333D02*
X100146666Y-127033333D01*
X100289523Y-127080952D01*
X100384761Y-127176190D01*
X100432380Y-127319047D01*
X100432380Y-127414285D01*
X99432380Y-126652380D02*
X99432380Y-125985714D01*
X100432380Y-126414285D01*
X91757380Y-127033333D02*
X92471666Y-127033333D01*
X92614523Y-127080952D01*
X92709761Y-127176190D01*
X92757380Y-127319047D01*
X92757380Y-127414285D01*
X91757380Y-126128571D02*
X91757380Y-126319047D01*
X91805000Y-126414285D01*
X91852619Y-126461904D01*
X91995476Y-126557142D01*
X92185952Y-126604761D01*
X92566904Y-126604761D01*
X92662142Y-126557142D01*
X92709761Y-126509523D01*
X92757380Y-126414285D01*
X92757380Y-126223809D01*
X92709761Y-126128571D01*
X92662142Y-126080952D01*
X92566904Y-126033333D01*
X92328809Y-126033333D01*
X92233571Y-126080952D01*
X92185952Y-126128571D01*
X92138333Y-126223809D01*
X92138333Y-126414285D01*
X92185952Y-126509523D01*
X92233571Y-126557142D01*
X92328809Y-126604761D01*
X84082380Y-127033333D02*
X84796666Y-127033333D01*
X84939523Y-127080952D01*
X85034761Y-127176190D01*
X85082380Y-127319047D01*
X85082380Y-127414285D01*
X84082380Y-126080952D02*
X84082380Y-126557142D01*
X84558571Y-126604761D01*
X84510952Y-126557142D01*
X84463333Y-126461904D01*
X84463333Y-126223809D01*
X84510952Y-126128571D01*
X84558571Y-126080952D01*
X84653809Y-126033333D01*
X84891904Y-126033333D01*
X84987142Y-126080952D01*
X85034761Y-126128571D01*
X85082380Y-126223809D01*
X85082380Y-126461904D01*
X85034761Y-126557142D01*
X84987142Y-126604761D01*
X51212380Y-117173333D02*
X51926666Y-117173333D01*
X52069523Y-117220952D01*
X52164761Y-117316190D01*
X52212380Y-117459047D01*
X52212380Y-117554285D01*
X51545714Y-116268571D02*
X52212380Y-116268571D01*
X51164761Y-116506666D02*
X51879047Y-116744761D01*
X51879047Y-116125714D01*
X51562380Y-67673333D02*
X52276666Y-67673333D01*
X52419523Y-67720952D01*
X52514761Y-67816190D01*
X52562380Y-67959047D01*
X52562380Y-68054285D01*
X51657619Y-67244761D02*
X51610000Y-67197142D01*
X51562380Y-67101904D01*
X51562380Y-66863809D01*
X51610000Y-66768571D01*
X51657619Y-66720952D01*
X51752857Y-66673333D01*
X51848095Y-66673333D01*
X51990952Y-66720952D01*
X52562380Y-67292380D01*
X52562380Y-66673333D01*
X50812380Y-92423333D02*
X51526666Y-92423333D01*
X51669523Y-92470952D01*
X51764761Y-92566190D01*
X51812380Y-92709047D01*
X51812380Y-92804285D01*
X50812380Y-92042380D02*
X50812380Y-91423333D01*
X51193333Y-91756666D01*
X51193333Y-91613809D01*
X51240952Y-91518571D01*
X51288571Y-91470952D01*
X51383809Y-91423333D01*
X51621904Y-91423333D01*
X51717142Y-91470952D01*
X51764761Y-91518571D01*
X51812380Y-91613809D01*
X51812380Y-91899523D01*
X51764761Y-91994761D01*
X51717142Y-92042380D01*
X86333333Y-121797142D02*
X86285714Y-121844761D01*
X86142857Y-121892380D01*
X86047619Y-121892380D01*
X85904761Y-121844761D01*
X85809523Y-121749523D01*
X85761904Y-121654285D01*
X85714285Y-121463809D01*
X85714285Y-121320952D01*
X85761904Y-121130476D01*
X85809523Y-121035238D01*
X85904761Y-120940000D01*
X86047619Y-120892380D01*
X86142857Y-120892380D01*
X86285714Y-120940000D01*
X86333333Y-120987619D01*
X87190476Y-121225714D02*
X87190476Y-121892380D01*
X86952380Y-120844761D02*
X86714285Y-121559047D01*
X87333333Y-121559047D01*
X93183333Y-126017142D02*
X93135714Y-126064761D01*
X92992857Y-126112380D01*
X92897619Y-126112380D01*
X92754761Y-126064761D01*
X92659523Y-125969523D01*
X92611904Y-125874285D01*
X92564285Y-125683809D01*
X92564285Y-125540952D01*
X92611904Y-125350476D01*
X92659523Y-125255238D01*
X92754761Y-125160000D01*
X92897619Y-125112380D01*
X92992857Y-125112380D01*
X93135714Y-125160000D01*
X93183333Y-125207619D01*
X94088095Y-125112380D02*
X93611904Y-125112380D01*
X93564285Y-125588571D01*
X93611904Y-125540952D01*
X93707142Y-125493333D01*
X93945238Y-125493333D01*
X94040476Y-125540952D01*
X94088095Y-125588571D01*
X94135714Y-125683809D01*
X94135714Y-125921904D01*
X94088095Y-126017142D01*
X94040476Y-126064761D01*
X93945238Y-126112380D01*
X93707142Y-126112380D01*
X93611904Y-126064761D01*
X93564285Y-126017142D01*
X100783333Y-126117142D02*
X100735714Y-126164761D01*
X100592857Y-126212380D01*
X100497619Y-126212380D01*
X100354761Y-126164761D01*
X100259523Y-126069523D01*
X100211904Y-125974285D01*
X100164285Y-125783809D01*
X100164285Y-125640952D01*
X100211904Y-125450476D01*
X100259523Y-125355238D01*
X100354761Y-125260000D01*
X100497619Y-125212380D01*
X100592857Y-125212380D01*
X100735714Y-125260000D01*
X100783333Y-125307619D01*
X101640476Y-125212380D02*
X101450000Y-125212380D01*
X101354761Y-125260000D01*
X101307142Y-125307619D01*
X101211904Y-125450476D01*
X101164285Y-125640952D01*
X101164285Y-126021904D01*
X101211904Y-126117142D01*
X101259523Y-126164761D01*
X101354761Y-126212380D01*
X101545238Y-126212380D01*
X101640476Y-126164761D01*
X101688095Y-126117142D01*
X101735714Y-126021904D01*
X101735714Y-125783809D01*
X101688095Y-125688571D01*
X101640476Y-125640952D01*
X101545238Y-125593333D01*
X101354761Y-125593333D01*
X101259523Y-125640952D01*
X101211904Y-125688571D01*
X101164285Y-125783809D01*
X89072380Y-118826666D02*
X88596190Y-119160000D01*
X89072380Y-119398095D02*
X88072380Y-119398095D01*
X88072380Y-119017142D01*
X88120000Y-118921904D01*
X88167619Y-118874285D01*
X88262857Y-118826666D01*
X88405714Y-118826666D01*
X88500952Y-118874285D01*
X88548571Y-118921904D01*
X88596190Y-119017142D01*
X88596190Y-119398095D01*
X89072380Y-117874285D02*
X89072380Y-118445714D01*
X89072380Y-118160000D02*
X88072380Y-118160000D01*
X88215238Y-118255238D01*
X88310476Y-118350476D01*
X88358095Y-118445714D01*
X102672380Y-117176666D02*
X102196190Y-117510000D01*
X102672380Y-117748095D02*
X101672380Y-117748095D01*
X101672380Y-117367142D01*
X101720000Y-117271904D01*
X101767619Y-117224285D01*
X101862857Y-117176666D01*
X102005714Y-117176666D01*
X102100952Y-117224285D01*
X102148571Y-117271904D01*
X102196190Y-117367142D01*
X102196190Y-117748095D01*
X101767619Y-116795714D02*
X101720000Y-116748095D01*
X101672380Y-116652857D01*
X101672380Y-116414761D01*
X101720000Y-116319523D01*
X101767619Y-116271904D01*
X101862857Y-116224285D01*
X101958095Y-116224285D01*
X102100952Y-116271904D01*
X102672380Y-116843333D01*
X102672380Y-116224285D01*
X105272380Y-117176666D02*
X104796190Y-117510000D01*
X105272380Y-117748095D02*
X104272380Y-117748095D01*
X104272380Y-117367142D01*
X104320000Y-117271904D01*
X104367619Y-117224285D01*
X104462857Y-117176666D01*
X104605714Y-117176666D01*
X104700952Y-117224285D01*
X104748571Y-117271904D01*
X104796190Y-117367142D01*
X104796190Y-117748095D01*
X104272380Y-116843333D02*
X104272380Y-116224285D01*
X104653333Y-116557619D01*
X104653333Y-116414761D01*
X104700952Y-116319523D01*
X104748571Y-116271904D01*
X104843809Y-116224285D01*
X105081904Y-116224285D01*
X105177142Y-116271904D01*
X105224761Y-116319523D01*
X105272380Y-116414761D01*
X105272380Y-116700476D01*
X105224761Y-116795714D01*
X105177142Y-116843333D01*
X63353333Y-128917142D02*
X63305714Y-128964761D01*
X63162857Y-129012380D01*
X63067619Y-129012380D01*
X62924761Y-128964761D01*
X62829523Y-128869523D01*
X62781904Y-128774285D01*
X62734285Y-128583809D01*
X62734285Y-128440952D01*
X62781904Y-128250476D01*
X62829523Y-128155238D01*
X62924761Y-128060000D01*
X63067619Y-128012380D01*
X63162857Y-128012380D01*
X63305714Y-128060000D01*
X63353333Y-128107619D01*
X64305714Y-129012380D02*
X63734285Y-129012380D01*
X64020000Y-129012380D02*
X64020000Y-128012380D01*
X63924761Y-128155238D01*
X63829523Y-128250476D01*
X63734285Y-128298095D01*
X63353333Y-79387142D02*
X63305714Y-79434761D01*
X63162857Y-79482380D01*
X63067619Y-79482380D01*
X62924761Y-79434761D01*
X62829523Y-79339523D01*
X62781904Y-79244285D01*
X62734285Y-79053809D01*
X62734285Y-78910952D01*
X62781904Y-78720476D01*
X62829523Y-78625238D01*
X62924761Y-78530000D01*
X63067619Y-78482380D01*
X63162857Y-78482380D01*
X63305714Y-78530000D01*
X63353333Y-78577619D01*
X63686666Y-78482380D02*
X64305714Y-78482380D01*
X63972380Y-78863333D01*
X64115238Y-78863333D01*
X64210476Y-78910952D01*
X64258095Y-78958571D01*
X64305714Y-79053809D01*
X64305714Y-79291904D01*
X64258095Y-79387142D01*
X64210476Y-79434761D01*
X64115238Y-79482380D01*
X63829523Y-79482380D01*
X63734285Y-79434761D01*
X63686666Y-79387142D01*
X63233333Y-104177142D02*
X63185714Y-104224761D01*
X63042857Y-104272380D01*
X62947619Y-104272380D01*
X62804761Y-104224761D01*
X62709523Y-104129523D01*
X62661904Y-104034285D01*
X62614285Y-103843809D01*
X62614285Y-103700952D01*
X62661904Y-103510476D01*
X62709523Y-103415238D01*
X62804761Y-103320000D01*
X62947619Y-103272380D01*
X63042857Y-103272380D01*
X63185714Y-103320000D01*
X63233333Y-103367619D01*
X63614285Y-103367619D02*
X63661904Y-103320000D01*
X63757142Y-103272380D01*
X63995238Y-103272380D01*
X64090476Y-103320000D01*
X64138095Y-103367619D01*
X64185714Y-103462857D01*
X64185714Y-103558095D01*
X64138095Y-103700952D01*
X63566666Y-104272380D01*
X64185714Y-104272380D01*
X95805714Y-62396666D02*
X96281904Y-62396666D01*
X95710476Y-62682380D02*
X96043809Y-61682380D01*
X96377142Y-62682380D01*
X97234285Y-62682380D02*
X96662857Y-62682380D01*
X96948571Y-62682380D02*
X96948571Y-61682380D01*
X96853333Y-61825238D01*
X96758095Y-61920476D01*
X96662857Y-61968095D01*
X62785714Y-105576666D02*
X63261904Y-105576666D01*
X62690476Y-105862380D02*
X63023809Y-104862380D01*
X63357142Y-105862380D01*
X64119047Y-105195714D02*
X64119047Y-105862380D01*
X63880952Y-104814761D02*
X63642857Y-105529047D01*
X64261904Y-105529047D01*
X62785714Y-80811666D02*
X63261904Y-80811666D01*
X62690476Y-81097380D02*
X63023809Y-80097380D01*
X63357142Y-81097380D01*
X63595238Y-80097380D02*
X64214285Y-80097380D01*
X63880952Y-80478333D01*
X64023809Y-80478333D01*
X64119047Y-80525952D01*
X64166666Y-80573571D01*
X64214285Y-80668809D01*
X64214285Y-80906904D01*
X64166666Y-81002142D01*
X64119047Y-81049761D01*
X64023809Y-81097380D01*
X63738095Y-81097380D01*
X63642857Y-81049761D01*
X63595238Y-81002142D01*
X62785714Y-56046666D02*
X63261904Y-56046666D01*
X62690476Y-56332380D02*
X63023809Y-55332380D01*
X63357142Y-56332380D01*
X63642857Y-55427619D02*
X63690476Y-55380000D01*
X63785714Y-55332380D01*
X64023809Y-55332380D01*
X64119047Y-55380000D01*
X64166666Y-55427619D01*
X64214285Y-55522857D01*
X64214285Y-55618095D01*
X64166666Y-55760952D01*
X63595238Y-56332380D01*
X64214285Y-56332380D01*
X76136666Y-125924761D02*
X76279523Y-125972380D01*
X76517619Y-125972380D01*
X76612857Y-125924761D01*
X76660476Y-125877142D01*
X76708095Y-125781904D01*
X76708095Y-125686666D01*
X76660476Y-125591428D01*
X76612857Y-125543809D01*
X76517619Y-125496190D01*
X76327142Y-125448571D01*
X76231904Y-125400952D01*
X76184285Y-125353333D01*
X76136666Y-125258095D01*
X76136666Y-125162857D01*
X76184285Y-125067619D01*
X76231904Y-125020000D01*
X76327142Y-124972380D01*
X76565238Y-124972380D01*
X76708095Y-125020000D01*
X77041428Y-124972380D02*
X77279523Y-125972380D01*
X77470000Y-125258095D01*
X77660476Y-125972380D01*
X77898571Y-124972380D01*
X78184285Y-124972380D02*
X78803333Y-124972380D01*
X78470000Y-125353333D01*
X78612857Y-125353333D01*
X78708095Y-125400952D01*
X78755714Y-125448571D01*
X78803333Y-125543809D01*
X78803333Y-125781904D01*
X78755714Y-125877142D01*
X78708095Y-125924761D01*
X78612857Y-125972380D01*
X78327142Y-125972380D01*
X78231904Y-125924761D01*
X78184285Y-125877142D01*
X76126666Y-101164761D02*
X76269523Y-101212380D01*
X76507619Y-101212380D01*
X76602857Y-101164761D01*
X76650476Y-101117142D01*
X76698095Y-101021904D01*
X76698095Y-100926666D01*
X76650476Y-100831428D01*
X76602857Y-100783809D01*
X76507619Y-100736190D01*
X76317142Y-100688571D01*
X76221904Y-100640952D01*
X76174285Y-100593333D01*
X76126666Y-100498095D01*
X76126666Y-100402857D01*
X76174285Y-100307619D01*
X76221904Y-100260000D01*
X76317142Y-100212380D01*
X76555238Y-100212380D01*
X76698095Y-100260000D01*
X77031428Y-100212380D02*
X77269523Y-101212380D01*
X77460000Y-100498095D01*
X77650476Y-101212380D01*
X77888571Y-100212380D01*
X78221904Y-100307619D02*
X78269523Y-100260000D01*
X78364761Y-100212380D01*
X78602857Y-100212380D01*
X78698095Y-100260000D01*
X78745714Y-100307619D01*
X78793333Y-100402857D01*
X78793333Y-100498095D01*
X78745714Y-100640952D01*
X78174285Y-101212380D01*
X78793333Y-101212380D01*
X76136666Y-76394761D02*
X76279523Y-76442380D01*
X76517619Y-76442380D01*
X76612857Y-76394761D01*
X76660476Y-76347142D01*
X76708095Y-76251904D01*
X76708095Y-76156666D01*
X76660476Y-76061428D01*
X76612857Y-76013809D01*
X76517619Y-75966190D01*
X76327142Y-75918571D01*
X76231904Y-75870952D01*
X76184285Y-75823333D01*
X76136666Y-75728095D01*
X76136666Y-75632857D01*
X76184285Y-75537619D01*
X76231904Y-75490000D01*
X76327142Y-75442380D01*
X76565238Y-75442380D01*
X76708095Y-75490000D01*
X77041428Y-75442380D02*
X77279523Y-76442380D01*
X77470000Y-75728095D01*
X77660476Y-76442380D01*
X77898571Y-75442380D01*
X78803333Y-76442380D02*
X78231904Y-76442380D01*
X78517619Y-76442380D02*
X78517619Y-75442380D01*
X78422380Y-75585238D01*
X78327142Y-75680476D01*
X78231904Y-75728095D01*
X48176666Y-59332380D02*
X48176666Y-60046666D01*
X48129047Y-60189523D01*
X48033809Y-60284761D01*
X47890952Y-60332380D01*
X47795714Y-60332380D01*
X49176666Y-60332380D02*
X48605238Y-60332380D01*
X48890952Y-60332380D02*
X48890952Y-59332380D01*
X48795714Y-59475238D01*
X48700476Y-59570476D01*
X48605238Y-59618095D01*
M02*
