M48
;DRILL file {KiCad 5.0.0-rc2-dev-unknown-ccb668c~64~ubuntu18.04.1} date Sun Apr 29 16:37:07 2018
;FORMAT={-:-/ absolute / metric / decimal}
FMAT,2
METRIC,TZ
T1C0.400
T2C0.700
T3C0.800
T4C1.000
T5C1.100
T6C1.520
%
G90
G05
M71
T1
X87.63Y-114.3
X97.79Y-114.3
T2
X100.3Y-114.47
X100.3Y-119.55
X102.9Y-114.47
X102.9Y-119.55
X86.7Y-116.12
X86.7Y-121.2
T3
X73.65Y-93.35
X73.65Y-95.89
X73.65Y-98.43
X81.27Y-93.35
X81.27Y-95.89
X81.27Y-98.43
X62.27Y-73.66
X64.77Y-73.66
X62.27Y-123.19
X64.77Y-123.19
X57.15Y-107.95
X57.15Y-110.49
X57.15Y-113.03
X57.15Y-115.57
X57.15Y-118.11
X57.15Y-120.65
X57.15Y-123.19
X57.15Y-125.73
X69.85Y-107.95
X69.85Y-110.49
X69.85Y-113.03
X69.85Y-115.57
X69.85Y-118.11
X69.85Y-120.65
X69.85Y-123.19
X69.85Y-125.73
X73.66Y-118.11
X73.66Y-120.65
X73.66Y-123.19
X81.28Y-118.11
X81.28Y-120.65
X81.28Y-123.19
X62.15Y-98.45
X64.65Y-98.45
X92.1Y-123.55
X94.6Y-123.55
X73.66Y-68.58
X73.66Y-71.12
X73.66Y-73.66
X81.28Y-68.58
X81.28Y-71.12
X81.28Y-73.66
X88.9Y-67.31
X88.9Y-69.85
X88.9Y-72.39
X88.9Y-74.93
X88.9Y-77.47
X88.9Y-80.01
X88.9Y-82.55
X88.9Y-85.09
X88.9Y-87.63
X88.9Y-90.17
X88.9Y-92.71
X88.9Y-95.25
X88.9Y-97.79
X88.9Y-100.33
X88.9Y-102.87
X104.14Y-67.31
X104.14Y-69.85
X104.14Y-72.39
X104.14Y-74.93
X104.14Y-77.47
X104.14Y-80.01
X104.14Y-82.55
X104.14Y-85.09
X104.14Y-87.63
X104.14Y-90.17
X104.14Y-92.71
X104.14Y-95.25
X104.14Y-97.79
X104.14Y-100.33
X104.14Y-102.87
X99.7Y-123.65
X102.2Y-123.65
X85.25Y-123.55
X87.75Y-123.55
X57.15Y-83.185
X57.15Y-85.725
X57.15Y-88.265
X57.15Y-90.805
X57.15Y-93.345
X57.15Y-95.885
X57.15Y-98.425
X57.15Y-100.965
X69.85Y-83.185
X69.85Y-85.725
X69.85Y-88.265
X69.85Y-90.805
X69.85Y-93.345
X69.85Y-95.885
X69.85Y-98.425
X69.85Y-100.965
X57.15Y-58.42
X57.15Y-60.96
X57.15Y-63.5
X57.15Y-66.04
X57.15Y-68.58
X57.15Y-71.12
X57.15Y-73.66
X57.15Y-76.2
X69.85Y-58.42
X69.85Y-60.96
X69.85Y-63.5
X69.85Y-66.04
X69.85Y-68.58
X69.85Y-71.12
X69.85Y-73.66
X69.85Y-76.2
T4
X102.75Y-126.7
X105.29Y-126.7
X97.Y-57.5
X99.54Y-57.5
X95.075Y-126.7
X97.615Y-126.7
X87.4Y-126.7
X89.94Y-126.7
T5
X47.6Y-113.03
X47.6Y-115.57
X47.6Y-118.11
X47.6Y-120.65
X47.2Y-88.28
X47.2Y-90.82
X47.2Y-93.36
X47.2Y-95.9
X47.95Y-63.53
X47.95Y-66.07
X47.95Y-68.61
X47.95Y-71.15
T6
X45.97Y-54.8
X51.05Y-54.8
T0
M30
